<?xml version="1.0" encoding="UTF-8"?>
<!DOCTYPE svg PUBLIC "-//W3C//DTD SVG 1.1//EN" "http://www.w3.org/Graphics/SVG/1.1/DTD/svg11.dtd">
<svg xmlns="http://www.w3.org/2000/svg" version="1.1" width="1760px" height="596px" style="shape-rendering:geometricPrecision; text-rendering:geometricPrecision; image-rendering:optimizeQuality; fill-rule:evenodd; clip-rule:evenodd" xmlns:xlink="http://www.w3.org/1999/xlink">
<g><path style="opacity:1" fill="#646464" d="M 184.5,-0.5 C 184.833,-0.5 185.167,-0.5 185.5,-0.5C 217.13,11.2273 247.797,25.3939 277.5,42C 309.892,59.7477 341.225,79.0811 371.5,100C 379.493,100.5 387.493,100.666 395.5,100.5C 399.955,101.488 404.621,101.488 409.5,100.5C 422.905,100.606 436.238,99.9395 449.5,98.5C 448.483,102.867 446.65,106.867 444,110.5C 434.541,102.028 425.708,102.528 417.5,112C 412.316,112.174 407.316,112.674 402.5,113.5C 396.167,113.5 389.833,113.5 383.5,113.5C 384.373,118.126 385.04,122.792 385.5,127.5C 385.071,131.831 384.738,136.165 384.5,140.5C 383.691,142.292 383.191,144.292 383,146.5C 380.728,150.724 378.228,154.724 375.5,158.5C 324.81,221.528 275.31,285.528 227,350.5C 213.556,365.433 200.723,380.767 188.5,396.5C 184.487,400.515 180.821,404.848 177.5,409.5C 173.073,412.317 168.739,412.151 164.5,409C 148.5,396 132.5,383 116.5,370C 115.668,369.312 115.002,369.479 114.5,370.5C 139.028,431.862 183.028,471.695 246.5,490C 255.007,492.468 263.674,493.968 272.5,494.5C 278.991,495.166 285.658,495.5 292.5,495.5C 343.536,494.456 394.536,493.456 445.5,492.5C 516.839,491.862 588.172,490.862 659.5,489.5C 716.829,488.507 774.163,487.84 831.5,487.5C 904.17,487.812 976.837,488.478 1049.5,489.5C 1095.83,490.627 1142.16,491.294 1188.5,491.5C 1247,492.826 1305.67,493.826 1364.5,494.5C 1364.89,483.603 1366.56,472.936 1369.5,462.5C 1369.5,462.167 1369.5,461.833 1369.5,461.5C 1371.14,456.934 1372.48,452.267 1373.5,447.5C 1374.17,447.5 1374.5,447.167 1374.5,446.5C 1379.69,431.793 1385.69,417.459 1392.5,403.5C 1389.4,386.291 1387.4,368.958 1386.5,351.5C 1386.06,323.877 1396.73,301.711 1418.5,285C 1427.96,280.768 1437.3,276.268 1446.5,271.5C 1440.83,265.998 1435,260.664 1429,255.5C 1390.93,271.297 1366.59,259.297 1356,219.5C 1354.42,212.572 1353.25,205.572 1352.5,198.5C 1352.67,192.732 1355.67,189.565 1361.5,189C 1376.86,188.163 1392.2,188.496 1407.5,190C 1429.5,195.332 1442.5,208.999 1446.5,231C 1459.99,239.672 1473.33,248.506 1486.5,257.5C 1489.83,256.333 1493.17,255.167 1496.5,254C 1483.7,239.532 1470.53,225.366 1457,211.5C 1455.16,209.152 1453.99,206.485 1453.5,203.5C 1462.9,192.619 1474.56,184.952 1488.5,180.5C 1490.27,181.091 1491.93,181.924 1493.5,183C 1510.1,199.761 1526.1,216.928 1541.5,234.5C 1542.78,236.452 1544.45,238.118 1546.5,239.5C 1548.73,238.423 1551.06,237.756 1553.5,237.5C 1548.79,224.415 1543.79,211.415 1538.5,198.5C 1538.33,191.825 1538.5,185.158 1539,178.5C 1539.24,175.711 1539.91,173.044 1541,170.5C 1542.57,169.878 1544.24,169.544 1546,169.5C 1550.35,169.969 1554.52,170.802 1558.5,172C 1537.02,148.756 1511.36,131.756 1481.5,121C 1452.71,116.174 1423.71,114.008 1394.5,114.5C 1334.5,113.522 1274.5,112.856 1214.5,112.5C 1156.34,111.069 1098,110.069 1039.5,109.5C 977.144,109.251 914.81,107.918 852.5,105.5C 842.828,105.771 833.161,106.104 823.5,106.5C 759.158,107.855 694.825,109.189 630.5,110.5C 610.167,110.5 589.833,110.5 569.5,110.5C 557.5,110.5 545.5,110.5 533.5,110.5C 532.907,105.728 531.907,101.061 530.5,96.5C 531.151,97.0906 531.818,97.7573 532.5,98.5C 533.425,97.3595 534.259,97.3595 535,98.5C 608.78,96.6958 682.78,95.0292 757,93.5C 822.948,94.628 888.948,94.628 955,93.5C 1085.12,96.1133 1215.78,98.7799 1347,101.5C 1375.01,100.737 1403.51,100.571 1432.5,101C 1479.58,99.8035 1520.92,114.47 1556.5,145C 1581.66,167.337 1600.66,194.004 1613.5,225C 1625.08,227.65 1636.75,229.65 1648.5,231C 1658.76,242.36 1667.93,254.527 1676,267.5C 1706.32,315.12 1733.32,364.787 1757,416.5C 1757.84,419.628 1758.67,422.628 1759.5,425.5C 1759.5,426.833 1759.5,428.167 1759.5,429.5C 1758.17,430.167 1758.17,430.833 1759.5,431.5C 1759.5,434.167 1759.5,436.833 1759.5,439.5C 1755.22,448.725 1750.39,457.725 1745,466.5C 1719.49,492.518 1689.33,511.351 1654.5,523C 1635.64,529.382 1616.31,533.548 1596.5,535.5C 1593.07,545.884 1587.07,554.384 1578.5,561C 1567.17,568.336 1554.84,573.336 1541.5,576C 1527.17,576.333 1512.83,576.667 1498.5,577C 1479.42,580.436 1460.76,585.436 1442.5,592C 1436.09,593.562 1429.76,594.729 1423.5,595.5C 1421.83,595.5 1420.17,595.5 1418.5,595.5C 1418.17,594.167 1417.83,594.167 1417.5,595.5C 1417.17,595.5 1416.83,595.5 1416.5,595.5C 1386.42,591.25 1368.92,573.917 1364,543.5C 1361.95,531.924 1361.12,520.257 1361.5,508.5C 1271.45,507.99 1181.29,506.99 1091,505.5C 1088.26,506.066 1085.59,506.399 1083,506.5C 896.011,504.071 710.011,504.404 525,507.5C 521.978,507.12 518.978,506.787 516,506.5C 489,507.167 462,507.833 435,508.5C 432,508.167 429,507.833 426,507.5C 400.906,508.328 375.739,508.828 350.5,509C 310.307,513.898 270.641,511.232 231.5,501C 159.023,476.356 112.356,427.189 91.5,353.5C 63.9742,332.807 36.3076,312.307 8.5,292C 3.50797,288.565 0.507965,284.065 -0.5,278.5C -0.5,273.5 -0.5,268.5 -0.5,263.5C 0.833333,262.833 0.833333,262.167 -0.5,261.5C -0.5,260.167 -0.5,258.833 -0.5,257.5C 1.09328,252.98 3.25995,248.647 6,244.5C 46.4932,182.345 88.1599,121.012 131,60.5C 145.071,41.0922 159.904,22.2589 175.5,4C 178.437,2.19914 181.437,0.699136 184.5,-0.5 Z M 1416.5,510.5 C 1419.37,510.718 1422.37,510.885 1425.5,511C 1431.08,519.249 1437.41,526.916 1444.5,534C 1460.79,543.518 1478.13,545.851 1496.5,541C 1506.54,538.833 1515.54,534.666 1523.5,528.5C 1536.04,531.077 1548.71,532.577 1561.5,533C 1549.96,544.766 1535.96,549.766 1519.5,548C 1502.56,543.902 1485.56,543.569 1468.5,547C 1457.97,550.733 1447.3,554.067 1436.5,557C 1414.91,561.714 1401.08,553.548 1395,532.5C 1393.88,525.239 1393.05,518.239 1392.5,511.5C 1400.68,511.826 1408.68,511.492 1416.5,510.5 Z"/></g>
<g><path style="opacity:1" fill="#b3b9c5" d="M 183.5,10.5 C 224.837,30.3355 265.504,51.5021 305.5,74C 325.172,85.8341 344.505,98.1674 363.5,111C 366.045,113.376 368.378,115.876 370.5,118.5C 370.007,121.485 368.84,124.152 367,126.5C 349.957,144.941 333.623,163.941 318,183.5C 281.619,228.879 245.619,274.546 210,320.5C 196.471,336.875 182.471,352.875 168,368.5C 117.21,331.693 67.0432,294.193 17.5,256C 66.8195,177.854 118.986,101.687 174,27.5C 177.824,22.1822 180.991,16.5155 183.5,10.5 Z"/></g>
<g><path style="opacity:1" fill="#666666" d="M 185.5,29.5 C 190.815,29.9302 195.815,31.4302 200.5,34C 251.548,57.3488 300.548,84.0155 347.5,114C 351.617,116.344 352.45,119.511 350,123.5C 307.667,177.833 265.333,232.167 223,286.5C 212.185,299.283 201.018,311.783 189.5,324C 185.511,324.908 181.845,324.241 178.5,322C 136.658,292.913 94.9914,263.579 53.5,234C 49.4322,229.402 49.5989,224.902 54,220.5C 71.4388,198.395 88.1055,175.729 104,152.5C 130.608,112.227 157.608,72.2268 185,32.5C 185.483,31.552 185.649,30.552 185.5,29.5 Z"/></g>
<g><path style="opacity:1" fill="#7c7d7c" d="M 668.5,32.5 C 669.833,33.1667 669.833,33.1667 668.5,32.5 Z"/></g>
<g><path style="opacity:1" fill="#f9faf9" d="M 1044.5,32.5 C 1045.83,33.1667 1045.83,33.1667 1044.5,32.5 Z"/></g>
<g><path style="opacity:1" fill="#f1f1f1" d="M 188.5,34.5 C 242.676,60.9177 295.342,89.9177 346.5,121.5C 302.007,173.82 258.84,227.153 217,281.5C 206.596,293.314 196.429,305.314 186.5,317.5C 143.44,287.775 100.107,258.442 56.5,229.5C 97.973,173.894 137.473,116.894 175,58.5C 179.777,50.6073 184.277,42.6073 188.5,34.5 Z"/></g>
<g><path style="opacity:1" fill="#767576" d="M 463.5,98.5 C 460.547,102.232 458.213,106.398 456.5,111C 470.496,111.5 484.496,111.667 498.5,111.5C 498.387,108.951 499.054,106.618 500.5,104.5C 502.903,102.764 504.903,100.764 506.5,98.5C 510.884,98.8256 515.217,98.4922 519.5,97.5C 514.921,89.4238 509.754,81.7572 504,74.5C 501.843,69.1078 503.009,64.4411 507.5,60.5C 514.852,53.2458 523.352,47.9125 533,44.5C 535.034,44.3536 536.701,45.0203 538,46.5C 537.287,54.0781 533.787,60.2447 527.5,65C 524.167,67.3333 520.833,69.6667 517.5,72C 523.279,79.3917 527.613,87.5584 530.5,96.5C 531.907,101.061 532.907,105.728 533.5,110.5C 545.5,110.5 557.5,110.5 569.5,110.5C 557.327,111.167 544.993,111.833 532.5,112.5C 526.602,126.229 516.935,129.729 503.5,123C 500.347,120.195 498.681,116.695 498.5,112.5C 484.151,112.167 469.818,112.501 455.5,113.5C 453.153,119.694 450.153,125.527 446.5,131C 442.71,134.021 438.377,135.188 433.5,134.5C 425.768,132.929 420.268,128.595 417,121.5C 416.289,119.101 416.456,116.768 417.5,114.5C 412.544,113.506 407.544,113.173 402.5,113.5C 407.316,112.674 412.316,112.174 417.5,112C 425.708,102.528 434.541,102.028 444,110.5C 446.65,106.867 448.483,102.867 449.5,98.5C 451.964,93.7386 454.297,88.9053 456.5,84C 446.702,75.8707 437.202,67.3707 428,58.5C 424.257,70.7289 419.924,82.7289 415,94.5C 412.96,96.3702 411.127,98.3702 409.5,100.5C 404.621,101.488 399.955,101.488 395.5,100.5C 379.767,95.1417 375.934,85.1417 384,70.5C 387.624,65.5139 392.457,63.6805 398.5,65C 401.952,66.2257 405.285,67.7257 408.5,69.5C 412.089,61.2414 415.589,52.908 419,44.5C 420.532,42.4376 422.532,41.1043 425,40.5C 432.324,44.1485 438.824,48.9819 444.5,55C 452.755,60.7106 460.921,66.544 469,72.5C 469.837,74.3506 470.671,76.1839 471.5,78C 468.733,84.8009 466.067,91.6342 463.5,98.5 Z M 449.5,98.5 C 436.238,99.9395 422.905,100.606 409.5,100.5C 411.127,98.3702 412.96,96.3702 415,94.5C 419.924,82.7289 424.257,70.7289 428,58.5C 437.202,67.3707 446.702,75.8707 456.5,84C 454.297,88.9053 451.964,93.7386 449.5,98.5 Z"/></g>
<g><path style="opacity:1" fill="#686868" d="M 216.5,76.5 C 251.217,74.7287 273.717,90.3954 284,123.5C 287.988,148.343 280.155,168.51 260.5,184C 229.184,201.908 201.684,197.408 178,170.5C 159.122,137.89 164.289,109.724 193.5,86C 200.793,81.679 208.46,78.5123 216.5,76.5 Z"/></g>
<g><path style="opacity:1" fill="#d9e5f2" d="M 217.5,81.5 C 250.588,79.1026 271.421,93.7692 280,125.5C 283.01,153.655 271.844,173.822 246.5,186C 220.154,194.217 198.654,187.384 182,165.5C 167.1,137.551 171.266,113.051 194.5,92C 201.596,87.0334 209.263,83.5334 217.5,81.5 Z"/></g>
<g><path style="opacity:1" fill="#759acf" d="M 200.5,95.5 C 207.59,95.4636 213.09,98.4636 217,104.5C 221.113,110.391 224.446,116.724 227,123.5C 229.167,124.333 230.667,125.833 231.5,128C 233.779,128.473 235.779,129.473 237.5,131C 247.74,131.047 257.407,133.381 266.5,138C 274.668,144.135 274.501,149.969 266,155.5C 262.941,161.559 258.774,166.726 253.5,171C 245.497,171.047 239.33,167.547 235,160.5C 233.426,167.144 231.092,173.478 228,179.5C 226.023,176.688 223.856,174.022 221.5,171.5C 218.557,170.756 215.557,170.256 212.5,170C 211.978,169.439 211.645,168.772 211.5,168C 215.154,159.554 218.32,151.054 221,142.5C 214.283,148.888 207.283,154.888 200,160.5C 199.228,160.355 198.561,160.022 198,159.5C 196.688,157.045 195.522,154.545 194.5,152C 190.885,151.268 187.552,149.935 184.5,148C 189.268,143.231 194.601,139.231 200.5,136C 194.447,134.226 189.28,131.059 185,126.5C 184.035,122.218 184.702,118.218 187,114.5C 191.198,109.651 194.531,104.317 197,98.5C 198.145,97.3636 199.312,96.3636 200.5,95.5 Z"/></g>
<g><path style="opacity:1" fill="#adcae9" d="M 200.5,97.5 C 202.989,97.2978 205.323,97.7978 207.5,99C 205.487,99.6797 204.154,101.013 203.5,103C 207.149,112.486 213.482,119.652 222.5,124.5C 221.758,125.287 220.925,125.953 220,126.5C 217.933,123.93 215.433,121.93 212.5,120.5C 211.246,122.259 211.579,123.759 213.5,125C 212.101,125.595 210.768,125.428 209.5,124.5C 208.152,126.611 208.485,128.445 210.5,130C 212.81,130.497 215.143,130.663 217.5,130.5C 218.231,132.599 218.231,134.599 217.5,136.5C 215.297,134.822 212.797,133.822 210,133.5C 201.023,134.856 193.357,132.189 187,125.5C 187.292,118.249 190.292,112.249 196,107.5C 196.905,103.847 198.405,100.514 200.5,97.5 Z"/></g>
<g><path style="opacity:1" fill="#92b6e2" d="M 208.5,99.5 C 215.862,105.957 220.862,113.624 223.5,122.5C 215.53,118.367 209.864,112.2 206.5,104C 207.074,102.393 207.74,100.893 208.5,99.5 Z"/></g>
<g><path style="opacity:1" fill="#636363" d="M 463.5,98.5 C 477.769,99.5647 492.102,99.5647 506.5,98.5C 504.903,100.764 502.903,102.764 500.5,104.5C 499.054,106.618 498.387,108.951 498.5,111.5C 484.496,111.667 470.496,111.5 456.5,111C 458.213,106.398 460.547,102.232 463.5,98.5 Z"/></g>
<g><path style="opacity:1" fill="#a7c7e6" d="M 1039.5,109.5 C 1039.39,110.117 1039.06,110.617 1038.5,111C 1040.83,114.509 1043.49,117.676 1046.5,120.5C 1047.98,125.455 1050.48,129.788 1054,133.5C 1055,136.962 1056.17,140.296 1057.5,143.5C 1008.17,143.5 958.833,143.5 909.5,143.5C 886.004,142.668 862.337,142.168 838.5,142C 831.394,130.719 824.06,119.552 816.5,108.5C 818.969,107.832 821.302,107.165 823.5,106.5C 833.161,106.104 842.828,105.771 852.5,105.5C 914.81,107.918 977.144,109.251 1039.5,109.5 Z"/></g>
<g><path style="opacity:1" fill="#88aedf" d="M 823.5,106.5 C 821.302,107.165 818.969,107.832 816.5,108.5C 824.06,119.552 831.394,130.719 838.5,142C 862.337,142.168 886.004,142.668 909.5,143.5C 823.176,143.087 736.843,143.087 650.5,143.5C 645.12,131.744 638.454,120.744 630.5,110.5C 694.825,109.189 759.158,107.855 823.5,106.5 Z"/></g>
<g><path style="opacity:1" fill="#88aedf" d="M 1039.5,109.5 C 1098,110.069 1156.34,111.069 1214.5,112.5C 1220.43,120.622 1226.26,128.955 1232,137.5C 1232.48,138.448 1232.65,139.448 1232.5,140.5C 1232.07,141.71 1231.4,142.71 1230.5,143.5C 1172.83,143.5 1115.17,143.5 1057.5,143.5C 1056.17,140.296 1055,136.962 1054,133.5C 1050.48,129.788 1047.98,125.455 1046.5,120.5C 1043.49,117.676 1040.83,114.509 1038.5,111C 1039.06,110.617 1039.39,110.117 1039.5,109.5 Z"/></g>
<g><path style="opacity:1" fill="#a7c7e6" d="M 569.5,110.5 C 589.833,110.5 610.167,110.5 630.5,110.5C 638.454,120.744 645.12,131.744 650.5,143.5C 580.5,143.5 510.5,143.5 440.5,143.5C 438.487,140.165 436.154,137.165 433.5,134.5C 438.377,135.188 442.71,134.021 446.5,131C 450.153,125.527 453.153,119.694 455.5,113.5C 469.818,112.501 484.151,112.167 498.5,112.5C 498.681,116.695 500.347,120.195 503.5,123C 516.935,129.729 526.602,126.229 532.5,112.5C 544.993,111.833 557.327,111.167 569.5,110.5 Z"/></g>
<g><path style="opacity:1" fill="#a7c6e6" d="M 1214.5,112.5 C 1274.5,112.856 1334.5,113.522 1394.5,114.5C 1401.13,121.731 1407.29,129.398 1413,137.5C 1414.56,139.217 1415.39,141.217 1415.5,143.5C 1386.17,143.5 1356.83,143.5 1327.5,143.5C 1321.6,128.881 1311.27,124.048 1296.5,129C 1291.32,133.513 1286.16,138.013 1281,142.5C 1272.89,135.444 1263.55,130.777 1253,128.5C 1244.21,129.307 1237.38,133.307 1232.5,140.5C 1232.65,139.448 1232.48,138.448 1232,137.5C 1226.26,128.955 1220.43,120.622 1214.5,112.5 Z"/></g>
<g><path style="opacity:1" fill="#88aedf" d="M 402.5,113.5 C 407.544,113.173 412.544,113.506 417.5,114.5C 416.456,116.768 416.289,119.101 417,121.5C 420.268,128.595 425.768,132.929 433.5,134.5C 436.154,137.165 438.487,140.165 440.5,143.5C 421.833,143.5 403.167,143.5 384.5,143.5C 384.5,142.5 384.5,141.5 384.5,140.5C 384.738,136.165 385.071,131.831 385.5,127.5C 385.04,122.792 384.373,118.126 383.5,113.5C 389.833,113.5 396.167,113.5 402.5,113.5 Z"/></g>
<g><path style="opacity:1" fill="#88aedf" d="M 1394.5,114.5 C 1423.71,114.008 1452.71,116.174 1481.5,121C 1511.36,131.756 1537.02,148.756 1558.5,172C 1554.52,170.802 1550.35,169.969 1546,169.5C 1544.24,169.544 1542.57,169.878 1541,170.5C 1539.91,173.044 1539.24,175.711 1539,178.5C 1538.5,185.158 1538.33,191.825 1538.5,198.5C 1514.51,166.16 1482.18,148.327 1441.5,145C 1403.66,144.169 1366,144.336 1328.5,145.5C 1327.66,145.158 1327.33,144.492 1327.5,143.5C 1356.83,143.5 1386.17,143.5 1415.5,143.5C 1415.39,141.217 1414.56,139.217 1413,137.5C 1407.29,129.398 1401.13,121.731 1394.5,114.5 Z"/></g>
<g><path style="opacity:1" fill="#958e95" d="M 373.5,124.5 C 374.152,125.449 374.486,126.615 374.5,128C 373.959,131.828 373.459,135.661 373,139.5C 368.061,148.101 362.728,156.435 357,164.5C 318.667,214.167 280.333,263.833 242,313.5C 225.375,333.794 208.375,353.794 191,373.5C 186,380.5 181,387.5 176,394.5C 174.989,395.337 173.822,395.67 172.5,395.5C 172.772,389.286 172.438,383.119 171.5,377C 171.862,375.775 172.362,374.609 173,373.5C 187.667,356.833 202.333,340.167 217,323.5C 268.211,256.41 320.377,190.077 373.5,124.5 Z"/></g>
<g><path style="opacity:1" fill="#b0cde9" d="M 225.5,125.5 C 227.922,126.085 229.589,127.585 230.5,130C 235.378,130.462 236.712,132.962 234.5,137.5C 226.772,139.233 222.605,136.233 222,128.5C 223.145,127.364 224.312,126.364 225.5,125.5 Z"/></g>
<g><path style="opacity:1" fill="#e6a9bb" d="M 1327.5,143.5 C 1327.33,144.492 1327.66,145.158 1328.5,145.5C 1328.5,149.833 1328.5,154.167 1328.5,158.5C 1326.58,163.898 1324.25,169.231 1321.5,174.5C 1331.76,182.598 1338.09,193.098 1340.5,206C 1337.94,220.731 1329.27,229.231 1314.5,231.5C 1303.85,229.506 1294.51,224.839 1286.5,217.5C 1281.35,222.238 1276.02,226.738 1270.5,231C 1251.63,240.447 1238.96,235.114 1232.5,215C 1234.17,203.157 1239.17,192.99 1247.5,184.5C 1238.76,177.752 1232.76,169.085 1229.5,158.5C 1229.5,155.5 1229.5,152.5 1229.5,149.5C 1229.52,147.435 1229.85,145.435 1230.5,143.5C 1231.4,142.71 1232.07,141.71 1232.5,140.5C 1237.38,133.307 1244.21,129.307 1253,128.5C 1263.55,130.777 1272.89,135.444 1281,142.5C 1286.16,138.013 1291.32,133.513 1296.5,129C 1311.27,124.048 1321.6,128.881 1327.5,143.5 Z"/></g>
<g><path style="opacity:1" fill="#90b4e2" d="M 267.5,141.5 C 267.5,141.833 267.5,142.167 267.5,142.5C 266.05,141.342 265.05,141.842 264.5,144C 254.481,143.661 245.815,139.994 238.5,133C 244.546,133.341 250.546,134.341 256.5,136C 260.787,136.81 264.454,138.643 267.5,141.5 Z"/></g>
<g><path style="opacity:1" fill="#afcce9" d="M 199.5,138.5 C 204.904,139.345 210.237,140.512 215.5,142C 209.833,145.833 204.167,149.667 198.5,153.5C 197.618,152.24 196.618,151.074 195.5,150C 192.968,149.381 190.635,148.381 188.5,147C 192.597,144.63 196.264,141.797 199.5,138.5 Z"/></g>
<g><path style="opacity:1" fill="#b1cde9" d="M 267.5,142.5 C 267.5,142.167 267.5,141.833 267.5,141.5C 270.423,144.1 270.923,147.1 269,150.5C 264.177,153.785 260.511,158.118 258,163.5C 254.587,168.119 250.754,168.285 246.5,164C 243.355,162.022 240.688,159.522 238.5,156.5C 236.955,155.548 235.288,155.215 233.5,155.5C 233.286,153.856 233.62,152.356 234.5,151C 232.261,147.56 229.928,144.894 227.5,143C 229.81,142.503 232.143,142.337 234.5,142.5C 234.718,148.072 237.384,150.072 242.5,148.5C 238.19,144.121 238.523,143.121 243.5,145.5C 244.167,145.167 244.833,144.833 245.5,144.5C 243.313,142.15 240.813,140.15 238,138.5C 237.251,137.365 237.417,136.365 238.5,135.5C 246.01,142.925 255.01,146.425 265.5,146C 266.823,145.184 267.489,144.017 267.5,142.5 Z"/></g>
<g><path style="opacity:1" fill="#f2ebe6" d="M 1312.5,139.5 C 1312.86,141.371 1313.86,142.871 1315.5,144C 1303.75,174.663 1284.08,198.329 1256.5,215C 1252.6,216.266 1248.6,216.766 1244.5,216.5C 1244.5,214.833 1244.5,213.167 1244.5,211.5C 1246.26,205.309 1249.1,199.642 1253,194.5C 1266.72,179.387 1279.72,163.72 1292,147.5C 1295.88,143.95 1300.05,140.783 1304.5,138C 1307.5,137.109 1310.16,137.609 1312.5,139.5 Z"/></g>
<g><path style="opacity:1" fill="#f2ebe6" d="M 1248.5,139.5 C 1258.4,140.744 1267.4,144.244 1275.5,150C 1268.28,158.965 1260.94,167.799 1253.5,176.5C 1248.08,171.578 1243.58,165.911 1240,159.5C 1238.19,150.785 1241.03,144.119 1248.5,139.5 Z"/></g>
<g><path style="opacity:1" fill="#6b90c8" d="M 384.5,140.5 C 384.5,141.5 384.5,142.5 384.5,143.5C 403.167,143.5 421.833,143.5 440.5,143.5C 510.5,143.5 580.5,143.5 650.5,143.5C 736.843,143.087 823.176,143.087 909.5,143.5C 958.833,143.5 1008.17,143.5 1057.5,143.5C 1115.17,143.5 1172.83,143.5 1230.5,143.5C 1229.85,145.435 1229.52,147.435 1229.5,149.5C 1228.53,151.948 1228.19,154.615 1228.5,157.5C 1182.17,157.5 1135.83,157.5 1089.5,157.5C 1001,157.494 912.499,157.161 824,156.5C 674.501,157.551 525.001,158.217 375.5,158.5C 378.228,154.724 380.728,150.724 383,146.5C 383.191,144.292 383.691,142.292 384.5,140.5 Z"/></g>
<g><path style="opacity:1" fill="#6b8fc8" d="M 1538.5,198.5 C 1543.79,211.415 1548.79,224.415 1553.5,237.5C 1551.06,237.756 1548.73,238.423 1546.5,239.5C 1544.45,238.118 1542.78,236.452 1541.5,234.5C 1522.85,192.343 1490.85,167.177 1445.5,159C 1406.5,158.5 1367.5,158.333 1328.5,158.5C 1328.5,154.167 1328.5,149.833 1328.5,145.5C 1366,144.336 1403.66,144.169 1441.5,145C 1482.18,148.327 1514.51,166.16 1538.5,198.5 Z"/></g>
<g><path style="opacity:1" fill="#f2d8d8" d="M 1312.5,139.5 C 1316.48,142.405 1318.14,146.405 1317.5,151.5C 1317.46,156.444 1316.3,161.111 1314,165.5C 1300.71,184.207 1285.88,201.707 1269.5,218C 1263.8,223.187 1257.13,225.52 1249.5,225C 1244.51,221.514 1242.84,217.014 1244.5,211.5C 1244.5,213.167 1244.5,214.833 1244.5,216.5C 1248.6,216.766 1252.6,216.266 1256.5,215C 1284.08,198.329 1303.75,174.663 1315.5,144C 1313.86,142.871 1312.86,141.371 1312.5,139.5 Z"/></g>
<g><path style="opacity:1" fill="#b0cce9" d="M 223.5,147.5 C 226.855,151.693 229.855,156.193 232.5,161C 230.798,165.773 229.298,170.606 228,175.5C 226.285,173.241 224.452,171.074 222.5,169C 221.207,168.51 219.873,168.343 218.5,168.5C 220.373,161.548 222.04,154.548 223.5,147.5 Z"/></g>
<g><path style="opacity:1" fill="#ecf9f9" d="M 1089.5,157.5 C 1136,158.499 1182.66,158.832 1229.5,158.5C 1232.76,169.085 1238.76,177.752 1247.5,184.5C 1239.17,192.99 1234.17,203.157 1232.5,215C 1238.96,235.114 1251.63,240.447 1270.5,231C 1276.02,226.738 1281.35,222.238 1286.5,217.5C 1294.51,224.839 1303.85,229.506 1314.5,231.5C 1329.27,229.231 1337.94,220.731 1340.5,206C 1338.09,193.098 1331.76,182.598 1321.5,174.5C 1324.25,169.231 1326.58,163.898 1328.5,158.5C 1367.5,158.333 1406.5,158.5 1445.5,159C 1490.85,167.177 1522.85,192.343 1541.5,234.5C 1526.1,216.928 1510.1,199.761 1493.5,183C 1491.93,181.924 1490.27,181.091 1488.5,180.5C 1474.56,184.952 1462.9,192.619 1453.5,203.5C 1453.99,206.485 1455.16,209.152 1457,211.5C 1470.53,225.366 1483.7,239.532 1496.5,254C 1493.17,255.167 1489.83,256.333 1486.5,257.5C 1473.33,248.506 1459.99,239.672 1446.5,231C 1442.5,208.999 1429.5,195.332 1407.5,190C 1392.2,188.496 1376.86,188.163 1361.5,189C 1355.67,189.565 1352.67,192.732 1352.5,198.5C 1353.25,205.572 1354.42,212.572 1356,219.5C 1366.59,259.297 1390.93,271.297 1429,255.5C 1435,260.664 1440.83,265.998 1446.5,271.5C 1437.3,276.268 1427.96,280.768 1418.5,285C 1396.73,301.711 1386.06,323.877 1386.5,351.5C 1387.4,368.958 1389.4,386.291 1392.5,403.5C 1385.69,417.459 1379.69,431.793 1374.5,446.5C 1320.33,445.61 1266.33,445.61 1212.5,446.5C 1020.16,447.032 827.831,447.032 635.5,446.5C 627.893,444.973 620.06,444.307 612,444.5C 597.655,444.749 583.489,445.416 569.5,446.5C 504.167,446.5 438.833,446.5 373.5,446.5C 369.702,436.566 363.702,428.232 355.5,421.5C 361.665,411.517 363.498,400.851 361,389.5C 354.819,375.485 344.652,370.985 330.5,376C 325.322,380.513 320.155,385.013 315,389.5C 306.887,382.444 297.554,377.777 287,375.5C 270.581,378.248 262.581,387.915 263,404.5C 266.244,415.564 272.41,424.564 281.5,431.5C 277.721,435.93 274.388,440.597 271.5,445.5C 237.168,440.178 209.502,423.844 188.5,396.5C 200.723,380.767 213.556,365.433 227,350.5C 275.31,285.528 324.81,221.528 375.5,158.5C 525.001,158.217 674.501,157.551 824,156.5C 912.499,157.161 1001,157.494 1089.5,157.5 Z"/></g>
<g><path style="opacity:1" fill="#9fb7da" d="M 1229.5,149.5 C 1229.5,152.5 1229.5,155.5 1229.5,158.5C 1182.66,158.832 1136,158.499 1089.5,157.5C 1135.83,157.5 1182.17,157.5 1228.5,157.5C 1228.19,154.615 1228.53,151.948 1229.5,149.5 Z"/></g>
<g><path style="opacity:1" fill="#676767" d="M 124.5,164.5 C 127.516,164.841 130.182,166.007 132.5,168C 145.414,165.108 152.747,170.108 154.5,183C 177.332,197.584 200.332,211.917 223.5,226C 225.017,227.685 226.684,229.185 228.5,230.5C 229.704,235.459 227.704,237.292 222.5,236C 198.003,219.917 173.336,204.084 148.5,188.5C 137.241,191.786 130.741,187.453 129,175.5C 126.721,173.711 124.721,171.711 123,169.5C 122.387,167.505 122.887,165.838 124.5,164.5 Z"/></g>
<g><path style="opacity:1" fill="#e4bfcc" d="M 1557.5,183.5 C 1554.4,185.384 1551.06,186.718 1547.5,187.5C 1547.18,184.428 1547.52,181.428 1548.5,178.5C 1551.72,179.941 1554.72,181.608 1557.5,183.5 Z"/></g>
<g><path style="opacity:1" fill="#f7f7f7" d="M 1557.5,183.5 C 1560.76,184.462 1563.76,185.962 1566.5,188C 1568.14,189.129 1569.14,190.629 1569.5,192.5C 1562.7,196.66 1555.36,199.66 1547.5,201.5C 1547.5,196.833 1547.5,192.167 1547.5,187.5C 1551.06,186.718 1554.4,185.384 1557.5,183.5 Z"/></g>
<g><path style="opacity:1" fill="#f2d8d8" d="M 1320.5,189.5 C 1316.89,193.343 1313.72,197.677 1311,202.5C 1307.27,206.398 1303.44,210.065 1299.5,213.5C 1296.21,212.727 1294.71,210.727 1295,207.5C 1302.4,199.941 1309.23,191.941 1315.5,183.5C 1317.19,185.519 1318.86,187.519 1320.5,189.5 Z"/></g>
<g><path style="opacity:1" fill="#efddb3" d="M 1485.5,187.5 C 1486.68,187.281 1487.68,187.614 1488.5,188.5C 1507.65,210.149 1526.98,231.649 1546.5,253C 1536.6,255.965 1526.77,259.132 1517,262.5C 1515.7,261.902 1514.87,260.902 1514.5,259.5C 1515.87,258.059 1517.37,256.726 1519,255.5C 1519.78,253.681 1519.28,252.348 1517.5,251.5C 1513.51,255.567 1510.17,255.234 1507.5,250.5C 1510.47,249.197 1512.8,247.197 1514.5,244.5C 1510.76,243.013 1507.43,243.68 1504.5,246.5C 1503.02,245.52 1501.69,244.353 1500.5,243C 1504.3,240.203 1507.8,237.036 1511,233.5C 1511.61,229.912 1510.11,228.746 1506.5,230C 1502.5,231.663 1498.84,233.829 1495.5,236.5C 1493.68,235.185 1492.02,233.685 1490.5,232C 1493.24,230.114 1494.91,227.614 1495.5,224.5C 1492.09,224.733 1489.59,226.4 1488,229.5C 1487.17,228.338 1486.34,227.171 1485.5,226C 1488.37,224.304 1489.7,221.804 1489.5,218.5C 1486.38,218.642 1483.88,219.976 1482,222.5C 1481.31,221.975 1480.81,221.308 1480.5,220.5C 1482.5,218.167 1484.5,215.833 1486.5,213.5C 1482.13,212.014 1478.79,213.347 1476.5,217.5C 1475.59,216.672 1474.92,215.672 1474.5,214.5C 1476.48,212.016 1478.65,209.683 1481,207.5C 1482.56,205.783 1483.39,203.783 1483.5,201.5C 1477.47,202.686 1472.97,206.02 1470,211.5C 1467.65,209.317 1465.48,206.984 1463.5,204.5C 1471.26,199.297 1478.6,193.631 1485.5,187.5 Z"/></g>
<g><path style="opacity:1" fill="#f2eae6" d="M 1320.5,189.5 C 1334.2,203.559 1332.03,214.559 1314,222.5C 1308.07,221.127 1303.24,218.127 1299.5,213.5C 1303.44,210.065 1307.27,206.398 1311,202.5C 1313.72,197.677 1316.89,193.343 1320.5,189.5 Z"/></g>
<g><path style="opacity:1" fill="#666666" d="M 111.5,191.5 C 115.833,191.5 120.167,191.5 124.5,191.5C 124.579,192.93 124.246,194.264 123.5,195.5C 127.35,196.246 131.017,197.413 134.5,199C 130.789,204.256 126.955,209.422 123,214.5C 120.752,211.672 118.752,208.672 117,205.5C 115.921,207.394 114.587,207.727 113,206.5C 111.205,202.948 109.705,199.282 108.5,195.5C 108.787,193.557 109.787,192.223 111.5,191.5 Z"/></g>
<g><path style="opacity:1" fill="#f0deb4" d="M 1569.5,192.5 C 1578.98,207.963 1587.32,224.129 1594.5,241C 1586.63,243.092 1578.8,245.259 1571,247.5C 1562.91,232.324 1555.08,216.991 1547.5,201.5C 1555.36,199.66 1562.7,196.66 1569.5,192.5 Z"/></g>
<g><path style="opacity:1" fill="#e4bfcc" d="M 1404.5,201.5 C 1403.44,211.967 1399.28,221.3 1392,229.5C 1391.39,236.189 1391.56,242.856 1392.5,249.5C 1385.41,247.25 1379.91,242.917 1376,236.5C 1369.66,224.977 1365.83,212.644 1364.5,199.5C 1374.84,199.334 1385.17,199.5 1395.5,200C 1398.69,200.181 1401.69,200.681 1404.5,201.5 Z"/></g>
<g><path style="opacity:1" fill="#f0f0f1" d="M 1404.5,201.5 C 1419.62,204.784 1430.45,213.451 1437,227.5C 1436.94,233.466 1434.77,238.633 1430.5,243C 1418.54,250.565 1405.87,252.732 1392.5,249.5C 1391.56,242.856 1391.39,236.189 1392,229.5C 1399.28,221.3 1403.44,211.967 1404.5,201.5 Z"/></g>
<g><path style="opacity:1" fill="#686868" d="M 148.5,204.5 C 168.736,205.336 175.902,215.336 170,234.5C 160.987,243.228 151.487,243.728 141.5,236C 133.913,227.231 133.58,218.231 140.5,209C 143.099,207.205 145.766,205.705 148.5,204.5 Z"/></g>
<g><path style="opacity:1" fill="#a6c5e3" d="M 149.5,207.5 C 165.937,208.733 171.77,217.067 167,232.5C 160.459,238.126 153.292,238.96 145.5,235C 138.777,229.495 136.943,222.661 140,214.5C 142.529,211.115 145.696,208.782 149.5,207.5 Z"/></g>
<g><path style="opacity:1" fill="#666667" d="M 153.5,211.5 C 156.845,212.68 159.011,215.013 160,218.5C 161.927,222.064 162.427,225.731 161.5,229.5C 155.498,230.476 149.664,229.81 144,227.5C 143.743,224.983 144.41,222.65 146,220.5C 148.335,217.335 150.835,214.335 153.5,211.5 Z"/></g>
<g><path style="opacity:1" fill="#ececec" d="M 154.5,215.5 C 156.601,218.797 157.935,222.463 158.5,226.5C 154.858,225.92 151.191,225.42 147.5,225C 150.076,221.937 152.409,218.771 154.5,215.5 Z"/></g>
<g><path style="opacity:1" fill="#666666" d="M 183.5,228.5 C 185.017,228.511 186.184,229.177 187,230.5C 187.681,232.895 188.515,235.228 189.5,237.5C 190.415,235.02 191.915,234.353 194,235.5C 196.865,241.969 197.698,248.636 196.5,255.5C 191.73,255.308 187.063,254.475 182.5,253C 181.572,252.612 180.905,251.945 180.5,251C 181.452,249.7 181.452,248.533 180.5,247.5C 177.961,246.885 175.461,246.218 173,245.5C 172.333,244.5 172.333,243.5 173,242.5C 176.332,237.673 179.832,233.007 183.5,228.5 Z"/></g>
<g><path style="opacity:1" fill="#c2d1dd" d="M 1599.5,232.5 C 1605.86,232.093 1611.86,233.259 1617.5,236C 1612.45,237.012 1607.45,238.178 1602.5,239.5C 1600.92,237.423 1599.92,235.09 1599.5,232.5 Z"/></g>
<g><path style="opacity:1" fill="#adb8be" d="M 1478.5,264.5 C 1470.36,264.781 1462.02,264.781 1453.5,264.5C 1447.2,259.532 1441.2,254.198 1435.5,248.5C 1440.05,245.733 1442.89,241.733 1444,236.5C 1454.89,246.68 1466.39,256.014 1478.5,264.5 Z"/></g>
<g><path style="opacity:1" fill="#ecf2f9" d="M 1744.5,427.5 C 1744.79,429.288 1744.45,430.955 1743.5,432.5C 1731.74,440.76 1720.4,449.594 1709.5,459C 1668.33,486.702 1623.33,495.702 1574.5,486C 1566.39,483.631 1558.72,480.298 1551.5,476C 1541.03,468.691 1531.03,460.858 1521.5,452.5C 1500.07,400.131 1477.4,348.298 1453.5,297C 1469.8,289.119 1486.8,282.786 1504.5,278C 1550.64,265.757 1596.81,253.59 1643,241.5C 1644.17,241.833 1645.33,242.167 1646.5,242.5C 1662.41,269.998 1678.58,297.332 1695,324.5C 1712.05,355.942 1728.05,387.942 1743,420.5C 1743.98,422.74 1744.48,425.073 1744.5,427.5 Z"/></g>
<g><path style="opacity:1" fill="#c0cfdb" d="M 1555.5,245.5 C 1557.85,245.458 1559.18,246.625 1559.5,249C 1556.55,252.464 1554.21,251.964 1552.5,247.5C 1553.6,246.824 1554.6,246.158 1555.5,245.5 Z"/></g>
<g><path style="opacity:1" fill="#948e94" d="M 13.5,260.5 C 52.2224,289.043 90.5558,318.209 128.5,348C 140.361,356.694 152.361,365.194 164.5,373.5C 165.664,380.476 165.831,387.476 165,394.5C 153.833,385.333 142.667,376.167 131.5,367C 93.1141,338.28 54.4474,309.947 15.5,282C 13.9451,274.963 13.2784,267.796 13.5,260.5 Z"/></g>
<g><path style="opacity:1" fill="#bfcdd9" d="M 1499.5,262.5 C 1502.16,262.162 1504.49,262.829 1506.5,264.5C 1504.04,266.063 1501.37,267.063 1498.5,267.5C 1496.71,267.304 1495.38,266.471 1494.5,265C 1496.31,264.243 1497.98,263.41 1499.5,262.5 Z"/></g>
<g><path style="opacity:1" fill="#94949a" d="M 1453.5,264.5 C 1462.02,264.781 1470.36,264.781 1478.5,264.5C 1481.47,266.657 1484.47,268.824 1487.5,271C 1481.52,273.072 1475.68,275.572 1470,278.5C 1464.02,274.344 1458.52,269.677 1453.5,264.5 Z"/></g>
<g><path style="opacity:1" fill="#c4d5e1" d="M 1453.5,279.5 C 1456.02,279.128 1458.02,279.961 1459.5,282C 1452.94,283.946 1446.94,286.946 1441.5,291C 1428.82,303.676 1417.65,317.509 1408,332.5C 1407.33,334.833 1407.33,337.167 1408,339.5C 1410.77,349.137 1413.93,358.637 1417.5,368C 1413.01,373.991 1408.34,379.824 1403.5,385.5C 1398.12,364.081 1398.29,342.748 1404,321.5C 1408.65,311.853 1414.49,303.02 1421.5,295C 1432.1,289.53 1442.77,284.363 1453.5,279.5 Z"/></g>
<g><path style="opacity:1" fill="#666666" d="M 104.5,285.5 C 112.14,284.625 116.973,287.958 119,295.5C 119.003,305.163 114.17,309.663 104.5,309C 97.872,305.909 95.372,300.743 97,293.5C 99.0282,290.308 101.528,287.641 104.5,285.5 Z"/></g>
<g><path style="opacity:1" fill="#afb5c0" d="M 105.5,292.5 C 113.914,293.029 115.247,296.196 109.5,302C 105.801,302.823 103.467,301.323 102.5,297.5C 103.26,295.64 104.26,293.973 105.5,292.5 Z"/></g>
<g><path style="opacity:1" fill="#c6d8e5" d="M 1444.5,300.5 C 1471.7,369.827 1499.53,438.827 1528,507.5C 1529.8,510.927 1531.96,514.094 1534.5,517C 1519.36,514.618 1505.19,509.451 1492,501.5C 1481.73,485.97 1472.73,469.637 1465,452.5C 1447.47,415.251 1432.31,377.084 1419.5,338C 1419.63,336.373 1420.13,334.873 1421,333.5C 1429.44,322.899 1437.27,311.899 1444.5,300.5 Z"/></g>
<g><path style="opacity:1" fill="#88aedf" d="M 177.5,409.5 C 200.482,437.83 230.148,454.497 266.5,459.5C 266.639,464.247 267.972,468.581 270.5,472.5C 273.998,479.66 277.664,486.827 281.5,494C 278.518,494.498 275.518,494.665 272.5,494.5C 263.674,493.968 255.007,492.468 246.5,490C 183.028,471.695 139.028,431.862 114.5,370.5C 115.002,369.479 115.668,369.312 116.5,370C 132.5,383 148.5,396 164.5,409C 168.739,412.151 173.073,412.317 177.5,409.5 Z"/></g>
<g><path style="opacity:1" fill="#e6a9bb" d="M 373.5,446.5 C 373.663,451.547 373.329,456.547 372.5,461.5C 362.167,479.217 348.167,482.717 330.5,472C 326.742,470.077 323.409,467.577 320.5,464.5C 315.606,469.564 310.273,474.064 304.5,478C 291.516,486.169 280.182,484.336 270.5,472.5C 267.972,468.581 266.639,464.247 266.5,459.5C 267.602,454.629 269.269,449.962 271.5,445.5C 274.388,440.597 277.721,435.93 281.5,431.5C 272.41,424.564 266.244,415.564 263,404.5C 262.581,387.915 270.581,378.248 287,375.5C 297.554,377.777 306.887,382.444 315,389.5C 320.155,385.013 325.322,380.513 330.5,376C 344.652,370.985 354.819,375.485 361,389.5C 363.498,400.851 361.665,411.517 355.5,421.5C 363.702,428.232 369.702,436.566 373.5,446.5 Z"/></g>
<g><path style="opacity:1" fill="#c3d2df" d="M 1395.5,559.5 C 1395.59,563.908 1397.59,567.741 1401.5,571C 1408.31,575.073 1415.31,578.573 1422.5,581.5C 1397.94,582.112 1382.77,570.445 1377,546.5C 1370.93,500.283 1378.26,456.283 1399,414.5C 1405.49,401.512 1412.49,388.845 1420,376.5C 1421.44,379.05 1422.61,381.716 1423.5,384.5C 1413.28,397.596 1405.12,411.929 1399,427.5C 1392.11,446.407 1386.77,465.74 1383,485.5C 1381.04,501.839 1381.04,518.172 1383,534.5C 1384.53,544.23 1388.7,552.564 1395.5,559.5 Z"/></g>
<g><path style="opacity:1" fill="#f2ebe6" d="M 346.5,386.5 C 346.859,388.371 347.859,389.871 349.5,391C 337.747,421.663 318.08,445.329 290.5,462C 286.605,463.266 282.605,463.766 278.5,463.5C 278.5,461.833 278.5,460.167 278.5,458.5C 280.262,452.309 283.096,446.642 287,441.5C 300.715,426.387 313.715,410.72 326,394.5C 329.883,390.95 334.049,387.783 338.5,385C 341.498,384.109 344.164,384.609 346.5,386.5 Z"/></g>
<g><path style="opacity:1" fill="#f2ebe6" d="M 282.5,386.5 C 292.401,387.744 301.401,391.244 309.5,397C 302.275,405.965 294.942,414.799 287.5,423.5C 282.079,418.578 277.579,412.911 274,406.5C 272.195,397.785 275.028,391.119 282.5,386.5 Z"/></g>
<g><path style="opacity:1" fill="#f2d8d8" d="M 346.5,386.5 C 350.477,389.405 352.143,393.405 351.5,398.5C 351.463,403.444 350.297,408.111 348,412.5C 334.71,431.207 319.876,448.707 303.5,465C 297.801,470.187 291.134,472.52 283.5,472C 278.509,468.514 276.842,464.014 278.5,458.5C 278.5,460.167 278.5,461.833 278.5,463.5C 282.605,463.766 286.605,463.266 290.5,462C 318.08,445.329 337.747,421.663 349.5,391C 347.859,389.871 346.859,388.371 346.5,386.5 Z"/></g>
<g><path style="opacity:1" fill="#c6d8e5" d="M 1425.5,392.5 C 1435.93,416.713 1446.43,441.047 1457,465.5C 1465.07,484.535 1475.9,501.702 1489.5,517C 1494.42,519.196 1499.42,521.196 1504.5,523C 1491.55,528.392 1478.22,529.725 1464.5,527C 1452.86,522.364 1444.03,514.531 1438,503.5C 1425.31,479.252 1416.47,453.586 1411.5,426.5C 1415.61,414.938 1420.28,403.604 1425.5,392.5 Z"/></g>
<g><path style="opacity:1" fill="#6b90c8" d="M 188.5,396.5 C 209.502,423.844 237.168,440.178 271.5,445.5C 269.269,449.962 267.602,454.629 266.5,459.5C 230.148,454.497 200.482,437.83 177.5,409.5C 180.821,404.848 184.487,400.515 188.5,396.5 Z"/></g>
<g><path style="opacity:1" fill="#f2d8d8" d="M 354.5,436.5 C 350.887,440.343 347.72,444.677 345,449.5C 341.271,453.398 337.438,457.065 333.5,460.5C 330.213,459.727 328.713,457.727 329,454.5C 336.395,446.941 343.229,438.941 349.5,430.5C 351.19,432.519 352.856,434.519 354.5,436.5 Z"/></g>
<g><path style="opacity:1" fill="#c7d9e6" d="M 1744.5,427.5 C 1746.83,436.563 1744.66,444.563 1738,451.5C 1727.03,464.142 1714.53,474.976 1700.5,484C 1670.44,503.129 1637.78,515.129 1602.5,520C 1584.42,520.593 1566.42,519.593 1548.5,517C 1539.99,495.296 1530.99,473.796 1521.5,452.5C 1531.03,460.858 1541.03,468.691 1551.5,476C 1558.72,480.298 1566.39,483.631 1574.5,486C 1623.33,495.702 1668.33,486.702 1709.5,459C 1720.4,449.594 1731.74,440.76 1743.5,432.5C 1744.45,430.955 1744.79,429.288 1744.5,427.5 Z"/></g>
<g><path style="opacity:1" fill="#f2eae6" d="M 354.5,436.5 C 368.064,450.316 366.064,461.316 348.5,469.5C 342.362,468.27 337.362,465.27 333.5,460.5C 337.438,457.065 341.271,453.398 345,449.5C 347.72,444.677 350.887,440.343 354.5,436.5 Z"/></g>
<g><path style="opacity:1" fill="#666667" d="M 1668.5,456.5 C 1663.66,465.81 1656,469.643 1645.5,468C 1639.09,463.977 1636.43,458.144 1637.5,450.5C 1641.23,439.299 1648.9,435.466 1660.5,439C 1667.07,442.979 1669.74,448.812 1668.5,456.5 Z"/></g>
<g><path style="opacity:1" fill="#95b9e0" d="M 635.5,446.5 C 613.5,446.5 591.5,446.5 569.5,446.5C 583.489,445.416 597.655,444.749 612,444.5C 620.06,444.307 627.893,444.973 635.5,446.5 Z"/></g>
<g><path style="opacity:1" fill="#8aacd7" d="M 1212.5,446.5 C 1266.33,445.61 1320.33,445.61 1374.5,446.5C 1374.5,447.167 1374.17,447.5 1373.5,447.5C 1319.83,447 1266.17,446.667 1212.5,446.5 Z"/></g>
<g><path style="opacity:1" fill="#e6ebf2" d="M 1651.5,445.5 C 1658.69,445.848 1661.52,449.515 1660,456.5C 1653.44,463.853 1648.61,463.02 1645.5,454C 1645.43,449.608 1647.43,446.774 1651.5,445.5 Z"/></g>
<g><path style="opacity:1" fill="#6c90c8" d="M 373.5,446.5 C 438.833,446.5 504.167,446.5 569.5,446.5C 591.5,446.5 613.5,446.5 635.5,446.5C 827.831,447.032 1020.16,447.032 1212.5,446.5C 1266.17,446.667 1319.83,447 1373.5,447.5C 1372.48,452.267 1371.14,456.934 1369.5,461.5C 1323.5,461.5 1277.5,461.5 1231.5,461.5C 1165.5,461.614 1099.5,461.281 1033.5,460.5C 975.833,459.917 918.167,459.25 860.5,458.5C 850.994,458.5 841.661,458.834 832.5,459.5C 769.839,460.402 707.172,460.736 644.5,460.5C 572.499,460.608 500.499,460.941 428.5,461.5C 409.833,461.5 391.167,461.5 372.5,461.5C 373.329,456.547 373.663,451.547 373.5,446.5 Z"/></g>
<g><path style="opacity:1" fill="#c6d6e2" d="M 1637.5,450.5 C 1636.43,458.144 1639.09,463.977 1645.5,468C 1656,469.643 1663.66,465.81 1668.5,456.5C 1667.54,470.164 1660.2,475.998 1646.5,474C 1642.25,472.802 1639.09,470.302 1637,466.5C 1636.18,460.984 1636.35,455.65 1637.5,450.5 Z"/></g>
<g><path style="opacity:1" fill="#a7c7e6" d="M 832.5,459.5 C 838.206,459.171 843.872,459.505 849.5,460.5C 852.806,464.759 855.973,469.092 859,473.5C 859.441,476.939 861.108,479.606 864,481.5C 864.352,483.247 864.852,484.914 865.5,486.5C 853.988,486.172 842.654,486.505 831.5,487.5C 774.163,487.84 716.829,488.507 659.5,489.5C 654.305,480.279 648.971,471.112 643.5,462C 644.056,461.617 644.389,461.117 644.5,460.5C 707.172,460.736 769.839,460.402 832.5,459.5 Z"/></g>
<g><path style="opacity:1" fill="#88aee0" d="M 832.5,459.5 C 841.661,458.834 850.994,458.5 860.5,458.5C 918.167,459.25 975.833,459.917 1033.5,460.5C 1034.49,463.146 1035.49,465.812 1036.5,468.5C 1040.69,475.088 1044.69,481.755 1048.5,488.5C 1005.16,487.994 961.822,486.994 918.5,485.5C 916.713,482.911 916.379,483.077 917.5,486C 900.17,486.5 882.837,486.667 865.5,486.5C 864.852,484.914 864.352,483.247 864,481.5C 861.108,479.606 859.441,476.939 859,473.5C 855.973,469.092 852.806,464.759 849.5,460.5C 843.872,459.505 838.206,459.171 832.5,459.5 Z"/></g>
<g><path style="opacity:1" fill="#88aedf" d="M 644.5,460.5 C 644.389,461.117 644.056,461.617 643.5,462C 648.971,471.112 654.305,480.279 659.5,489.5C 588.172,490.862 516.839,491.862 445.5,492.5C 440.087,482.006 434.421,471.673 428.5,461.5C 500.499,460.941 572.499,460.608 644.5,460.5 Z"/></g>
<g><path style="opacity:1" fill="#a7c7e6" d="M 1033.5,460.5 C 1099.5,461.281 1165.5,461.614 1231.5,461.5C 1237.1,471.046 1242.44,480.712 1247.5,490.5C 1228.01,491.497 1208.34,491.83 1188.5,491.5C 1142.16,491.294 1095.83,490.627 1049.5,489.5C 1049.5,488.833 1049.17,488.5 1048.5,488.5C 1044.69,481.755 1040.69,475.088 1036.5,468.5C 1035.49,465.812 1034.49,463.146 1033.5,460.5 Z"/></g>
<g><path style="opacity:1" fill="#a6c6e5" d="M 372.5,461.5 C 391.167,461.5 409.833,461.5 428.5,461.5C 434.421,471.673 440.087,482.006 445.5,492.5C 394.536,493.456 343.536,494.456 292.5,495.5C 285.658,495.5 278.991,495.166 272.5,494.5C 275.518,494.665 278.518,494.498 281.5,494C 277.664,486.827 273.998,479.66 270.5,472.5C 280.182,484.336 291.516,486.169 304.5,478C 310.273,474.064 315.606,469.564 320.5,464.5C 323.409,467.577 326.742,470.077 330.5,472C 348.167,482.717 362.167,479.217 372.5,461.5 Z"/></g>
<g><path style="opacity:1" fill="#88aee0" d="M 1231.5,461.5 C 1277.5,461.5 1323.5,461.5 1369.5,461.5C 1369.5,461.833 1369.5,462.167 1369.5,462.5C 1368.5,462.47 1367.84,462.97 1367.5,464C 1365.68,473.181 1364.02,482.681 1362.5,492.5C 1324.65,492.137 1286.31,491.47 1247.5,490.5C 1242.44,480.712 1237.1,471.046 1231.5,461.5 Z"/></g>
<g><path style="opacity:1" fill="#85aada" d="M 1401.5,450.5 C 1405.94,465.479 1411.61,480.146 1418.5,494.5C 1409.85,495.265 1401.19,495.265 1392.5,494.5C 1393.96,479.517 1396.96,464.851 1401.5,450.5 Z"/></g>
<g><path style="opacity:1" fill="#84a6cb" d="M 1048.5,488.5 C 1049.17,488.5 1049.5,488.833 1049.5,489.5C 976.837,488.478 904.17,487.812 831.5,487.5C 842.654,486.505 853.988,486.172 865.5,486.5C 882.837,486.667 900.17,486.5 917.5,486C 916.379,483.077 916.713,482.911 918.5,485.5C 961.822,486.994 1005.16,487.994 1048.5,488.5 Z"/></g>
<g><path style="opacity:1" fill="#83a4c7" d="M 1369.5,462.5 C 1366.56,472.936 1364.89,483.603 1364.5,494.5C 1305.67,493.826 1247,492.826 1188.5,491.5C 1208.34,491.83 1228.01,491.497 1247.5,490.5C 1286.31,491.47 1324.65,492.137 1362.5,492.5C 1364.02,482.681 1365.68,473.181 1367.5,464C 1367.84,462.97 1368.5,462.47 1369.5,462.5 Z"/></g>
<g><path style="opacity:1" fill="#e7ecf2" d="M 1422.5,581.5 C 1415.31,578.573 1408.31,575.073 1401.5,571C 1397.59,567.741 1395.59,563.908 1395.5,559.5C 1402.96,565.873 1411.62,569.54 1421.5,570.5C 1426.83,569.667 1432.16,568.834 1437.5,568C 1451.67,563.387 1466,559.387 1480.5,556C 1499.57,555.46 1518.57,556.127 1537.5,558C 1549.49,555.755 1559.66,550.255 1568,541.5C 1569.77,539.119 1570.93,536.452 1571.5,533.5C 1574.77,532.513 1578.1,532.18 1581.5,532.5C 1579.64,539.704 1575.64,545.538 1569.5,550C 1559.68,556.243 1549.01,560.243 1537.5,562C 1521.47,562.114 1505.47,562.781 1489.5,564C 1473.93,567.856 1458.6,572.523 1443.5,578C 1436.67,580.291 1429.67,581.458 1422.5,581.5 Z"/></g>
</svg>
