<?xml version="1.0" encoding="UTF-8"?>
<!DOCTYPE svg PUBLIC "-//W3C//DTD SVG 1.1//EN" "http://www.w3.org/Graphics/SVG/1.1/DTD/svg11.dtd">
<svg xmlns="http://www.w3.org/2000/svg" version="1.1" width="1745px" height="544px" style="shape-rendering:geometricPrecision; text-rendering:geometricPrecision; image-rendering:optimizeQuality; fill-rule:evenodd; clip-rule:evenodd" xmlns:xlink="http://www.w3.org/1999/xlink">
<g><path style="opacity:1" fill="#7c7d7c" d="M 641.5,-0.5 C 641.833,-0.5 642.167,-0.5 642.5,-0.5C 642.315,0.170143 641.981,0.170143 641.5,-0.5 Z"/></g>
<g><path style="opacity:1" fill="#f9faf9" d="M 1017.5,-0.5 C 1017.83,-0.5 1018.17,-0.5 1018.5,-0.5C 1018.31,0.170143 1017.98,0.170143 1017.5,-0.5 Z"/></g>
<g><path style="opacity:1" fill="#646464" d="M 1744.5,150.5 C 1744.5,153.167 1744.5,155.833 1744.5,158.5C 1741.5,164.017 1737.5,168.851 1732.5,173C 1735.52,174.179 1738.52,175.513 1741.5,177C 1742.17,178.333 1742.83,179.667 1743.5,181C 1736.68,204.108 1727.52,226.275 1716,247.5C 1712.84,251.659 1709.34,255.492 1705.5,259C 1708.78,259.461 1711.11,261.127 1712.5,264C 1701.64,299.487 1680.97,327.487 1650.5,348C 1648.65,349.684 1646.98,351.517 1645.5,353.5C 1662.7,382.42 1666.87,413.086 1658,445.5C 1653.11,456.863 1647.11,467.53 1640,477.5C 1607.83,511.335 1568.99,533.335 1523.5,543.5C 1522.83,543.5 1522.17,543.5 1521.5,543.5C 1521.17,542.167 1520.83,542.167 1520.5,543.5C 1519.17,543.5 1517.83,543.5 1516.5,543.5C 1493.79,541.223 1476.62,530.223 1465,510.5C 1462.15,505.224 1460.98,499.724 1461.5,494C 1468.54,485.29 1476.54,477.623 1485.5,471C 1485,470.833 1484.5,470.667 1484,470.5C 1455.2,483.293 1425.04,490.293 1393.5,491.5C 1350.49,489.309 1307.32,487.975 1264,487.5C 1261.02,487.787 1258.02,488.12 1255,488.5C 1226.53,487.829 1198.03,487.163 1169.5,486.5C 1168.03,486.723 1166.53,487.056 1165,487.5C 980.324,484.409 794.324,484.076 607,486.5C 603.333,486.167 599.667,485.833 596,485.5C 505.937,486.828 415.771,487.995 325.5,489C 279.004,495.102 233.671,490.435 189.5,475C 114.811,441.516 72.3114,384.016 62,302.5C 61.4162,287.134 61.4162,271.801 62,256.5C 48.0671,239.383 40.4005,219.717 39,197.5C 34.3333,194.167 30.3333,190.167 27,185.5C 11.5629,162.349 2.39627,137.016 -0.5,109.5C -0.5,107.167 -0.5,104.833 -0.5,102.5C -0.496867,92.3335 4.1698,85.1668 13.5,81C 25.9784,77.8262 38.6451,76.8262 51.5,78C 63.8462,78.3754 75.8462,80.5421 87.5,84.5C 129.142,51.9557 176.475,37.2891 229.5,40.5C 244.554,25.1351 261.887,12.9684 281.5,4C 288.889,0.867547 296.555,-0.132453 304.5,1C 310.636,4.08525 314.802,8.91858 317,15.5C 324.932,36.6249 327.432,58.2915 324.5,80.5C 327.167,80.8333 329.833,81.1667 332.5,81.5C 465.396,78.9017 598.562,76.235 732,73.5C 797.948,74.628 863.948,74.628 930,73.5C 1060.12,76.1133 1190.78,78.7799 1322,81.5C 1341.56,81.1751 1361.06,80.8417 1380.5,80.5C 1468.82,73.7361 1534.99,108.403 1579,184.5C 1599.46,225.301 1606.96,268.301 1601.5,313.5C 1605.24,315.121 1608.74,317.121 1612,319.5C 1612.33,319.167 1612.67,318.833 1613,318.5C 1614.35,306.451 1616.01,294.451 1618,282.5C 1618.87,279.785 1620.71,278.452 1623.5,278.5C 1623.08,272.916 1624.92,268.249 1629,264.5C 1633.89,249.378 1639.89,234.712 1647,220.5C 1653.48,209.346 1661.48,199.346 1671,190.5C 1672.71,191.944 1674.54,193.277 1676.5,194.5C 1679.7,187.259 1684.04,180.759 1689.5,175C 1703.54,165.312 1718.21,156.645 1733.5,149C 1737.47,148.013 1741.14,148.513 1744.5,150.5 Z"/></g>
<g><path style="opacity:1" fill="#b9b3b9" d="M 298.5,17.5 C 295.568,21.7021 292.902,26.0354 290.5,30.5C 278.464,35.5139 267.131,41.5139 256.5,48.5C 253.347,47.9617 250.347,46.9617 247.5,45.5C 261.688,32.6506 277.855,22.9839 296,16.5C 297.07,16.528 297.903,16.8614 298.5,17.5 Z"/></g>
<g><path style="opacity:1" fill="#eeeeee" d="M 298.5,17.5 C 299.79,18.0577 300.623,19.0577 301,20.5C 307.029,41.7613 310.362,63.428 311,85.5C 302.543,75.8695 293.043,67.5362 282.5,60.5C 282.344,56.4183 282.844,52.4183 284,48.5C 286.459,42.5869 288.626,36.5869 290.5,30.5C 292.902,26.0354 295.568,21.7021 298.5,17.5 Z"/></g>
<g><path style="opacity:1" fill="#d8d2d8" d="M 290.5,30.5 C 288.626,36.5869 286.459,42.5869 284,48.5C 282.844,52.4183 282.344,56.4183 282.5,60.5C 274.104,55.9692 265.437,51.9692 256.5,48.5C 267.131,41.5139 278.464,35.5139 290.5,30.5 Z"/></g>
<g><path style="opacity:1" fill="#d9d3d9" d="M 259.5,64.5 C 269.073,72.5686 278.24,81.2353 287,90.5C 310.319,125.761 312.652,162.428 294,200.5C 281.96,220.54 265.46,235.707 244.5,246C 231.089,251.436 217.422,256.102 203.5,260C 194.058,265.373 189.058,273.54 188.5,284.5C 185.845,297.227 188.179,308.893 195.5,319.5C 184.589,321.807 175.089,319.14 167,311.5C 161.915,303.594 157.582,295.26 154,286.5C 152.59,285.213 151.09,284.046 149.5,283C 124.494,279.823 102.494,270.156 83.5,254C 61.3617,231.327 52.8617,204.16 58,172.5C 67.4076,127.763 92.5743,95.2633 133.5,75C 174.123,54.3285 216.123,50.8285 259.5,64.5 Z"/></g>
<g><path style="opacity:1" fill="#bab4ba" d="M 259.5,64.5 C 311.082,88.6709 330.249,128.671 317,184.5C 305.984,217.181 284.818,240.681 253.5,255C 237.398,260.775 221.065,265.775 204.5,270C 201.167,271.667 197.833,273.333 194.5,275C 192.35,278.147 190.35,281.313 188.5,284.5C 189.058,273.54 194.058,265.373 203.5,260C 217.422,256.102 231.089,251.436 244.5,246C 265.46,235.707 281.96,220.54 294,200.5C 312.652,162.428 310.319,125.761 287,90.5C 278.24,81.2353 269.073,72.5686 259.5,64.5 Z"/></g>
<g><path style="opacity:1" fill="#656565" d="M 172.5,80.5 C 196.931,77.2518 217.431,84.5852 234,102.5C 246.282,123.324 244.948,143.324 230,162.5C 223.265,169.403 216.432,176.069 209.5,182.5C 211.9,188.033 213.9,193.699 215.5,199.5C 215.09,207.414 211.09,212.58 203.5,215C 196.24,218.733 188.573,220.4 180.5,220C 173.495,208.983 167.329,197.483 162,185.5C 161.333,182.167 161.333,178.833 162,175.5C 167.566,168.462 174.399,162.962 182.5,159C 189.917,154.254 195.083,147.754 198,139.5C 198.706,137.029 198.373,134.695 197,132.5C 189.411,125.34 180.578,123.506 170.5,127C 166.941,128.228 163.608,129.894 160.5,132C 154.833,137.667 149.167,143.333 143.5,149C 140.119,151.245 136.452,151.912 132.5,151C 114.319,132.972 115.319,115.972 135.5,100C 146.224,90.3062 158.557,83.8062 172.5,80.5 Z"/></g>
<g><path style="opacity:1" fill="#a7c7e6" d="M 1014.5,89.5 C 1014.39,90.1174 1014.06,90.6174 1013.5,91C 1015.83,94.5091 1018.49,97.6758 1021.5,100.5C 1022.98,105.455 1025.48,109.788 1029,113.5C 1030,116.962 1031.17,120.296 1032.5,123.5C 983.167,123.5 933.833,123.5 884.5,123.5C 861.004,122.668 837.337,122.168 813.5,122C 806.394,110.719 799.06,99.5521 791.5,88.5C 793.969,87.8319 796.302,87.1653 798.5,86.5C 808.161,86.1043 817.828,85.771 827.5,85.5C 889.81,87.9177 952.144,89.251 1014.5,89.5 Z"/></g>
<g><path style="opacity:1" fill="#88aedf" d="M 798.5,86.5 C 796.302,87.1653 793.969,87.8319 791.5,88.5C 799.06,99.5521 806.394,110.719 813.5,122C 837.337,122.168 861.004,122.668 884.5,123.5C 798.176,123.087 711.843,123.087 625.5,123.5C 620.12,111.744 613.454,100.744 605.5,90.5C 669.825,89.1886 734.158,87.8553 798.5,86.5 Z"/></g>
<g><path style="opacity:1" fill="#88aedf" d="M 1014.5,89.5 C 1073,90.0686 1131.34,91.0686 1189.5,92.5C 1196.21,101.541 1202.71,110.874 1209,120.5C 1209.48,121.448 1209.65,122.448 1209.5,123.5C 1150.5,123.5 1091.5,123.5 1032.5,123.5C 1031.17,120.296 1030,116.962 1029,113.5C 1025.48,109.788 1022.98,105.455 1021.5,100.5C 1018.49,97.6758 1015.83,94.5091 1013.5,91C 1014.06,90.6174 1014.39,90.1174 1014.5,89.5 Z"/></g>
<g><path style="opacity:1" fill="#ada6b3" d="M 174.5,91.5 C 192.516,89.1089 208.349,93.7755 222,105.5C 232.921,118.552 234.255,132.552 226,147.5C 222.581,152.923 218.415,157.756 213.5,162C 207.709,166.122 202.209,170.622 197,175.5C 194.826,178.546 194.159,181.88 195,185.5C 196.579,191.238 198.746,196.738 201.5,202C 197.197,205.402 192.364,207.902 187,209.5C 181.521,200.709 176.687,191.543 172.5,182C 173.101,180.395 174.101,179.062 175.5,178C 187.166,172.078 196.999,163.911 205,153.5C 210.029,144.422 210.696,135.089 207,125.5C 196.45,114.181 183.617,110.681 168.5,115C 155.517,119.66 144.85,127.494 136.5,138.5C 133.555,135.108 131.555,131.275 130.5,127C 130.7,123.767 131.867,120.933 134,118.5C 144.514,104.785 158.014,95.7852 174.5,91.5 Z"/></g>
<g><path style="opacity:1" fill="#a6c6e6" d="M 605.5,90.5 C 613.454,100.744 620.12,111.744 625.5,123.5C 555.5,123.5 485.5,123.5 415.5,123.5C 411.542,118.602 407.709,113.602 404,108.5C 402.409,105.648 401.076,102.648 400,99.5C 396.771,98.5894 394.604,96.5894 393.5,93.5C 464.119,91.638 534.785,90.638 605.5,90.5 Z"/></g>
<g><path style="opacity:1" fill="#a7c7e5" d="M 1189.5,92.5 C 1249.5,92.8556 1309.5,93.5223 1369.5,94.5C 1376.13,101.731 1382.29,109.398 1388,117.5C 1389.56,119.217 1390.39,121.217 1390.5,123.5C 1371.66,123.17 1352.99,123.503 1334.5,124.5C 1334.5,124.833 1334.5,125.167 1334.5,125.5C 1333.07,119.041 1330.9,112.708 1328,106.5C 1324.26,101.949 1320.09,101.449 1315.5,105C 1309.13,111.031 1303.13,117.364 1297.5,124C 1288.63,121.869 1279.63,119.869 1270.5,118C 1260.8,115.843 1256.46,119.677 1257.5,129.5C 1256.54,127.735 1256.21,125.735 1256.5,123.5C 1240.83,123.5 1225.17,123.5 1209.5,123.5C 1209.65,122.448 1209.48,121.448 1209,120.5C 1202.71,110.874 1196.21,101.541 1189.5,92.5 Z"/></g>
<g><path style="opacity:1" fill="#b6b1b7" d="M 73.5,100.5 C 71.3587,99.8367 69.0254,99.5034 66.5,99.5C 52.8112,100.293 39.1445,101.293 25.5,102.5C 23.4268,100.42 21.0934,98.7536 18.5,97.5C 21.8044,95.5829 25.4711,94.4162 29.5,94C 45.6691,92.751 61.6691,93.5844 77.5,96.5C 76.4787,98.188 75.1454,99.5213 73.5,100.5 Z"/></g>
<g><path style="opacity:1" fill="#88aedf" d="M 393.5,93.5 C 394.604,96.5894 396.771,98.5894 400,99.5C 401.076,102.648 402.409,105.648 404,108.5C 407.709,113.602 411.542,118.602 415.5,123.5C 387.833,123.5 360.167,123.5 332.5,123.5C 329.516,115.195 325.683,107.195 321,99.5C 320.505,97.5273 320.338,95.5273 320.5,93.5C 344.833,93.5 369.167,93.5 393.5,93.5 Z"/></g>
<g><path style="opacity:1" fill="#88aedf" d="M 1369.5,94.5 C 1386.17,94.7182 1402.84,95.2182 1419.5,96C 1443.17,96.0514 1465.17,102.051 1485.5,114C 1557.95,158.073 1590.79,222.573 1584,307.5C 1570.66,301.806 1558.66,294.14 1548,284.5C 1547.54,283.906 1547.37,283.239 1547.5,282.5C 1547.52,274.149 1547.19,265.816 1546.5,257.5C 1550.17,253.919 1551.33,249.585 1550,244.5C 1547.6,236.953 1543.77,230.286 1538.5,224.5C 1523.36,179.523 1493.69,148.356 1449.5,131C 1438.62,128.357 1427.62,126.357 1416.5,125C 1389.17,124.5 1361.84,124.333 1334.5,124.5C 1352.99,123.503 1371.66,123.17 1390.5,123.5C 1390.39,121.217 1389.56,119.217 1388,117.5C 1382.29,109.398 1376.13,101.731 1369.5,94.5 Z"/></g>
<g><path style="opacity:1" fill="#f1f1f1" d="M 18.5,97.5 C 21.0934,98.7536 23.4268,100.42 25.5,102.5C 35.8383,112.822 44.1716,124.489 50.5,137.5C 45.9141,150.175 42.4141,163.175 40,176.5C 22.8329,152.553 15.6662,126.22 18.5,97.5 Z"/></g>
<g><path style="opacity:1" fill="#d9d3d8" d="M 73.5,100.5 C 64.5411,112.096 56.8744,124.429 50.5,137.5C 44.1716,124.489 35.8383,112.822 25.5,102.5C 39.1445,101.293 52.8112,100.293 66.5,99.5C 69.0254,99.5034 71.3587,99.8367 73.5,100.5 Z"/></g>
<g><path style="opacity:1" fill="#e0bb9d" d="M 1334.5,125.5 C 1335.32,128.764 1335.66,132.098 1335.5,135.5C 1339.87,136.344 1344.21,137.344 1348.5,138.5C 1355.05,141.365 1360.88,145.365 1366,150.5C 1367.42,153.03 1367.75,155.697 1367,158.5C 1364.83,162 1362,164.833 1358.5,167C 1349.67,171.92 1340.33,175.42 1330.5,177.5C 1331.54,185.806 1331.7,194.139 1331,202.5C 1329.25,212.744 1323.75,215.578 1314.5,211C 1306.99,204.82 1299.49,198.653 1292,192.5C 1280.82,196.505 1269.32,198.338 1257.5,198C 1253.11,195.39 1251.28,191.557 1252,186.5C 1253.05,182.735 1254.38,179.068 1256,175.5C 1259.56,169.295 1263.06,163.129 1266.5,157C 1264.24,150.709 1261.91,144.542 1259.5,138.5C 1258.99,135.461 1258.32,132.461 1257.5,129.5C 1256.46,119.677 1260.8,115.843 1270.5,118C 1279.63,119.869 1288.63,121.869 1297.5,124C 1303.13,117.364 1309.13,111.031 1315.5,105C 1320.09,101.449 1324.26,101.949 1328,106.5C 1330.9,112.708 1333.07,119.041 1334.5,125.5 Z"/></g>
<g><path style="opacity:1" fill="#f2e0b5" d="M 1324.5,166.5 C 1322.98,166.511 1321.82,167.177 1321,168.5C 1320.97,173.363 1320.14,178.03 1318.5,182.5C 1316.17,181.229 1315,179.229 1315,176.5C 1314.69,177.308 1314.19,177.975 1313.5,178.5C 1309.17,175.347 1304.84,173.013 1300.5,171.5C 1298.25,172.378 1296.09,172.045 1294,170.5C 1292.53,172.816 1290.7,173.149 1288.5,171.5C 1287.35,171.818 1286.52,172.484 1286,173.5C 1283.47,173.023 1281.14,173.023 1279,173.5C 1278.05,173.905 1277.39,174.572 1277,175.5C 1275.89,174.289 1274.72,174.289 1273.5,175.5C 1272.7,175.043 1272.37,174.376 1272.5,173.5C 1273.28,169.873 1274.78,166.54 1277,163.5C 1277.66,158.442 1277.33,153.442 1276,148.5C 1273.77,143.137 1271.93,137.637 1270.5,132C 1270.83,131.5 1271.17,131 1271.5,130.5C 1281.69,132.986 1292.03,134.153 1302.5,134C 1305.63,131.872 1308.46,129.372 1311,126.5C 1314,122.833 1317,119.167 1320,115.5C 1322.39,123.273 1325.05,130.94 1328,138.5C 1334.45,144.941 1341.95,149.774 1350.5,153C 1351.36,153.689 1352.02,154.522 1352.5,155.5C 1343.55,160.074 1334.21,163.741 1324.5,166.5 Z"/></g>
<g><path style="opacity:1" fill="#6c90c8" d="M 884.5,123.5 C 933.833,123.5 983.167,123.5 1032.5,123.5C 1091.5,123.5 1150.5,123.5 1209.5,123.5C 1225.17,123.5 1240.83,123.5 1256.5,123.5C 1256.21,125.735 1256.54,127.735 1257.5,129.5C 1258.32,132.461 1258.99,135.461 1259.5,138.5C 1106,138.233 952.499,137.566 799,136.5C 644.502,137.609 490.002,138.276 335.5,138.5C 334.291,133.54 333.291,128.54 332.5,123.5C 360.167,123.5 387.833,123.5 415.5,123.5C 485.5,123.5 555.5,123.5 625.5,123.5C 711.843,123.087 798.176,123.087 884.5,123.5 Z"/></g>
<g><path style="opacity:1" fill="#6b90c8" d="M 1334.5,124.5 C 1361.84,124.333 1389.17,124.5 1416.5,125C 1427.62,126.357 1438.62,128.357 1449.5,131C 1493.69,148.356 1523.36,179.523 1538.5,224.5C 1531.58,218.873 1523.91,214.539 1515.5,211.5C 1496.33,170.919 1464.66,146.753 1420.5,139C 1396.5,138.5 1372.5,138.333 1348.5,138.5C 1344.21,137.344 1339.87,136.344 1335.5,135.5C 1335.66,132.098 1335.32,128.764 1334.5,125.5C 1334.5,125.167 1334.5,124.833 1334.5,124.5 Z"/></g>
<g><path style="opacity:1" fill="#ecf9f9" d="M 1259.5,138.5 C 1261.91,144.542 1264.24,150.709 1266.5,157C 1263.06,163.129 1259.56,169.295 1256,175.5C 1254.38,179.068 1253.05,182.735 1252,186.5C 1251.28,191.557 1253.11,195.39 1257.5,198C 1269.32,198.338 1280.82,196.505 1292,192.5C 1299.49,198.653 1306.99,204.82 1314.5,211C 1323.75,215.578 1329.25,212.744 1331,202.5C 1331.7,194.139 1331.54,185.806 1330.5,177.5C 1340.33,175.42 1349.67,171.92 1358.5,167C 1362,164.833 1364.83,162 1367,158.5C 1367.75,155.697 1367.42,153.03 1366,150.5C 1360.88,145.365 1355.05,141.365 1348.5,138.5C 1372.5,138.333 1396.5,138.5 1420.5,139C 1464.66,146.753 1496.33,170.919 1515.5,211.5C 1507.32,209.723 1499.32,210.223 1491.5,213C 1446.88,236.265 1407.38,266.431 1373,303.5C 1358.87,326.351 1359.21,349.017 1374,371.5C 1389.81,393.483 1409.98,410.15 1434.5,421.5C 1422.27,425.408 1409.6,427.408 1396.5,427.5C 1343.01,426.582 1289.51,425.915 1236,425.5C 1027.5,426.931 819,427.264 610.5,426.5C 602.893,424.973 595.06,424.307 587,424.5C 572.655,424.749 558.489,425.416 544.5,426.5C 507.833,426.5 471.167,426.5 434.5,426.5C 427.618,419.383 420.285,412.716 412.5,406.5C 416.978,397.252 419.478,387.586 420,377.5C 416.604,373.797 412.437,372.631 407.5,374C 399.565,375.732 391.899,378.232 384.5,381.5C 379.201,378.848 374.201,375.681 369.5,372C 365,368.572 360,367.238 354.5,368C 353.667,368.833 352.833,369.667 352,370.5C 351.667,380.5 351.333,390.5 351,400.5C 345.615,406.884 340.615,413.55 336,420.5C 334.872,422.345 334.372,424.345 334.5,426.5C 320.5,426.5 306.5,426.5 292.5,426.5C 293.802,417.174 293.802,407.84 292.5,398.5C 305.975,396.178 317.809,390.512 328,381.5C 330,378.167 330,374.833 328,371.5C 319.376,363.438 309.209,358.438 297.5,356.5C 296.41,346.472 293.91,336.805 290,327.5C 286.347,322.808 282.181,322.308 277.5,326C 270.978,332.522 264.478,339.022 258,345.5C 246.909,341.015 235.409,338.848 223.5,339C 222,339.833 220.833,341 220,342.5C 219.333,345.833 219.333,349.167 220,352.5C 222.439,361.15 225.272,369.65 228.5,378C 223.631,386.234 219.131,394.734 215,403.5C 212.862,407.955 213.029,412.289 215.5,416.5C 187.183,404.353 165.683,384.686 151,357.5C 140.175,337.532 134.341,316.199 133.5,293.5C 136.787,294.161 140.12,294.661 143.5,295C 147.375,301.941 150.875,309.107 154,316.5C 161.667,325.825 171.5,331.325 183.5,333C 194.225,334.499 204.558,333.165 214.5,329C 217.207,327.136 218.041,324.636 217,321.5C 209.064,316.241 203.397,309.241 200,300.5C 199.501,295.845 199.334,291.179 199.5,286.5C 229.9,283.312 257.9,273.479 283.5,257C 322.509,227.137 339.843,187.637 335.5,138.5C 490.002,138.276 644.502,137.609 799,136.5C 952.499,137.566 1106,138.233 1259.5,138.5 Z"/></g>
<g><path style="opacity:1" fill="#e1bb9d" d="M 1392.5,146.5 C 1394.86,146.337 1397.19,146.503 1399.5,147C 1407.32,151.338 1414.99,155.838 1422.5,160.5C 1429.9,157.232 1437.57,154.732 1445.5,153C 1455.22,151.054 1459.38,154.888 1458,164.5C 1455.8,171.603 1453.3,178.603 1450.5,185.5C 1457.46,191.285 1464.29,197.285 1471,203.5C 1475.94,212.602 1473.1,217.436 1462.5,218C 1455.83,218.333 1449.17,218.667 1442.5,219C 1440.12,219.511 1437.79,220.178 1435.5,221C 1432.06,228.044 1428.23,234.877 1424,241.5C 1417.55,247.592 1412.55,246.592 1409,238.5C 1406.69,231.231 1404.19,224.064 1401.5,217C 1393.72,215.247 1385.88,213.747 1378,212.5C 1372.55,209.494 1371.22,205.16 1374,199.5C 1378.62,192.55 1383.62,185.884 1389,179.5C 1389.33,169.5 1389.67,159.5 1390,149.5C 1391.04,148.627 1391.88,147.627 1392.5,146.5 Z"/></g>
<g><path style="opacity:1" fill="#f2f2f2" d="M 82.5,155.5 C 85.0444,155.104 87.2111,155.771 89,157.5C 90.0249,170.146 90.6915,182.813 91,195.5C 92.2324,204.995 94.2324,214.328 97,223.5C 99.575,231.088 97.075,233.921 89.5,232C 80.7562,227.027 75.5896,219.527 74,209.5C 72.2216,192.945 73.555,176.611 78,160.5C 79.517,158.76 81.017,157.094 82.5,155.5 Z"/></g>
<g><path style="opacity:1" fill="#f2dfb4" d="M 1446.5,194.5 C 1446.86,196.371 1447.86,197.871 1449.5,199C 1447.15,199.436 1444.82,199.936 1442.5,200.5C 1441.98,199.196 1440.64,198.529 1438.5,198.5C 1435.4,198.497 1435.06,198.997 1437.5,200C 1435.62,200.576 1433.79,200.409 1432,199.5C 1430.19,200.078 1428.36,200.578 1426.5,201C 1422.94,203.9 1419.28,206.733 1415.5,209.5C 1415.04,211.598 1414.04,213.264 1412.5,214.5C 1412.27,209.914 1409.94,206.747 1405.5,205C 1398.46,204.436 1391.46,203.603 1384.5,202.5C 1388.86,196.461 1393.69,190.795 1399,185.5C 1399.81,183.577 1400.31,181.577 1400.5,179.5C 1399.28,172.498 1399.28,165.498 1400.5,158.5C 1407.27,162.609 1414.27,166.276 1421.5,169.5C 1430.63,167.542 1439.63,165.209 1448.5,162.5C 1445.84,169.814 1443.17,177.147 1440.5,184.5C 1442.09,188.089 1444.09,191.422 1446.5,194.5 Z"/></g>
<g><path style="opacity:1" fill="#a6c6e5" d="M 1694.5,282.5 C 1690.18,285.41 1687.01,289.41 1685,294.5C 1673.61,305.722 1661.78,316.388 1649.5,326.5C 1648.35,323.554 1648.18,320.554 1649,317.5C 1652.33,312.833 1655.67,308.167 1659,303.5C 1660.15,300.289 1660.82,296.956 1661,293.5C 1663.68,290.781 1665.85,287.781 1667.5,284.5C 1666.61,282.483 1666.11,280.483 1666,278.5C 1670.93,270.967 1675.6,263.301 1680,255.5C 1682.51,251.583 1682.01,248.25 1678.5,245.5C 1679.74,241.186 1681.41,237.019 1683.5,233C 1683.39,231.72 1682.72,230.887 1681.5,230.5C 1677.47,236.185 1673.47,241.851 1669.5,247.5C 1669.75,243.751 1670.42,240.085 1671.5,236.5C 1669.61,236.297 1668.11,236.963 1667,238.5C 1663.22,244.726 1660.55,251.393 1659,258.5C 1656.67,255.833 1654.33,255.833 1652,258.5C 1648.21,269.126 1644.54,279.793 1641,290.5C 1640.83,288.285 1640.16,286.285 1639,284.5C 1636.52,290.066 1634.19,295.733 1632,301.5C 1630.85,302.458 1629.85,302.125 1629,300.5C 1627.96,301.623 1627.29,302.956 1627,304.5C 1626.5,302.527 1626.34,300.527 1626.5,298.5C 1626.5,294.5 1626.5,290.5 1626.5,286.5C 1627.82,286.67 1628.99,286.337 1630,285.5C 1630.83,279.509 1633.5,274.509 1638,270.5C 1643.4,246.376 1654.06,225.043 1670,206.5C 1670.29,208.952 1670.96,211.285 1672,213.5C 1673.73,214.576 1675.56,214.743 1677.5,214C 1680.85,205.458 1684.35,196.958 1688,188.5C 1700.66,181.67 1713,174.337 1725,166.5C 1724.59,169.295 1723.59,171.962 1722,174.5C 1721.33,176.5 1721.33,178.5 1722,180.5C 1725.34,181.673 1728.51,183.006 1731.5,184.5C 1726.01,203.464 1718.84,221.798 1710,239.5C 1705.04,246.126 1699.71,252.46 1694,258.5C 1692.89,263.889 1695.06,266.889 1700.5,267.5C 1699.86,273.106 1697.86,278.106 1694.5,282.5 Z"/></g>
<g><path style="opacity:1" fill="#ecd3a9" d="M 1324.5,166.5 C 1323.5,167.683 1322.66,169.016 1322,170.5C 1321.22,179.857 1320.22,189.19 1319,198.5C 1313.2,193.7 1307.7,188.533 1302.5,183C 1301.17,182.333 1299.83,181.667 1298.5,181C 1289.19,180.882 1280.02,182.048 1271,184.5C 1269.83,184.167 1268.67,183.833 1267.5,183.5C 1269.18,180.098 1270.85,176.765 1272.5,173.5C 1272.37,174.376 1272.7,175.043 1273.5,175.5C 1274.72,174.289 1275.89,174.289 1277,175.5C 1277.39,174.572 1278.05,173.905 1279,173.5C 1281.14,173.023 1283.47,173.023 1286,173.5C 1286.52,172.484 1287.35,171.818 1288.5,171.5C 1290.7,173.149 1292.53,172.816 1294,170.5C 1296.09,172.045 1298.25,172.378 1300.5,171.5C 1304.84,173.013 1309.17,175.347 1313.5,178.5C 1314.19,177.975 1314.69,177.308 1315,176.5C 1315,179.229 1316.17,181.229 1318.5,182.5C 1320.14,178.03 1320.97,173.363 1321,168.5C 1321.82,167.177 1322.98,166.511 1324.5,166.5 Z"/></g>
<g><path style="opacity:1" fill="#ecd3a8" d="M 1446.5,194.5 C 1451.15,198.479 1455.48,202.812 1459.5,207.5C 1451.16,208.314 1442.83,209.147 1434.5,210C 1430.05,212.114 1426.55,215.281 1424,219.5C 1422.78,223.615 1420.78,227.282 1418,230.5C 1415.48,225.427 1413.64,220.094 1412.5,214.5C 1414.04,213.264 1415.04,211.598 1415.5,209.5C 1419.28,206.733 1422.94,203.9 1426.5,201C 1428.36,200.578 1430.19,200.078 1432,199.5C 1433.79,200.409 1435.62,200.576 1437.5,200C 1435.06,198.997 1435.4,198.497 1438.5,198.5C 1440.64,198.529 1441.98,199.196 1442.5,200.5C 1444.82,199.936 1447.15,199.436 1449.5,199C 1447.86,197.871 1446.86,196.371 1446.5,194.5 Z"/></g>
<g><path style="opacity:1" fill="#666566" d="M 207.5,217.5 C 217.572,215.107 224.072,218.774 227,228.5C 228.422,234.8 227.256,240.466 223.5,245.5C 215.724,253.224 206.39,256.724 195.5,256C 191.686,253.519 189.519,250.019 189,245.5C 186.346,236.157 188.846,228.657 196.5,223C 200.259,221.121 203.925,219.287 207.5,217.5 Z"/></g>
<g><path style="opacity:1" fill="#f8e5df" d="M 1500.5,221.5 C 1517.28,221.302 1529.45,228.635 1537,243.5C 1537.67,245.167 1537.67,246.833 1537,248.5C 1500.41,274.588 1464.24,301.254 1428.5,328.5C 1429.04,318.289 1426.54,308.956 1421,300.5C 1415.4,294.784 1408.56,291.951 1400.5,292C 1430.71,263.941 1464.04,240.441 1500.5,221.5 Z"/></g>
<g><path style="opacity:1" fill="#aca4b2" d="M 211.5,227.5 C 213.288,227.215 214.955,227.548 216.5,228.5C 217.585,231.773 217.752,235.106 217,238.5C 212.221,243.473 206.388,246.139 199.5,246.5C 198.588,242.869 198.421,239.203 199,235.5C 202.977,232.435 207.144,229.768 211.5,227.5 Z"/></g>
<g><path style="opacity:1" fill="#88addc" d="M 1669.5,247.5 C 1661.94,260.278 1654.11,272.945 1646,285.5C 1640.22,296.838 1635.22,308.505 1631,320.5C 1628.25,326.325 1625.25,331.992 1622,337.5C 1622,324.213 1623.5,311.213 1626.5,298.5C 1626.34,300.527 1626.5,302.527 1627,304.5C 1627.29,302.956 1627.96,301.623 1629,300.5C 1629.85,302.125 1630.85,302.458 1632,301.5C 1634.19,295.733 1636.52,290.066 1639,284.5C 1640.16,286.285 1640.83,288.285 1641,290.5C 1644.54,279.793 1648.21,269.126 1652,258.5C 1654.33,255.833 1656.67,255.833 1659,258.5C 1660.55,251.393 1663.22,244.726 1667,238.5C 1668.11,236.963 1669.61,236.297 1671.5,236.5C 1670.42,240.085 1669.75,243.751 1669.5,247.5 Z"/></g>
<g><path style="opacity:1" fill="#f2f2f2" d="M 107.5,241.5 C 119.907,240.408 126.073,246.074 126,258.5C 118.438,266.62 111.105,266.286 104,257.5C 99.8985,250.826 101.065,245.493 107.5,241.5 Z"/></g>
<g><path style="opacity:1" fill="#88addc" d="M 1678.5,245.5 C 1682.01,248.25 1682.51,251.583 1680,255.5C 1675.6,263.301 1670.93,270.967 1666,278.5C 1666.11,280.483 1666.61,282.483 1667.5,284.5C 1665.85,287.781 1663.68,290.781 1661,293.5C 1660.82,296.956 1660.15,300.289 1659,303.5C 1655.67,308.167 1652.33,312.833 1649,317.5C 1648.18,320.554 1648.35,323.554 1649.5,326.5C 1661.78,316.388 1673.61,305.722 1685,294.5C 1687.01,289.41 1690.18,285.41 1694.5,282.5C 1686.93,297.108 1677.26,310.274 1665.5,322C 1654.73,329.964 1644.4,337.797 1634.5,345.5C 1645.94,310.638 1660.6,277.304 1678.5,245.5 Z"/></g>
<g><path style="opacity:1" fill="#6a8ec4" d="M 1546.5,257.5 C 1547.19,265.816 1547.52,274.149 1547.5,282.5C 1541.63,276.387 1539.47,269.054 1541,260.5C 1542.74,259.242 1544.57,258.242 1546.5,257.5 Z"/></g>
<g><path style="opacity:1" fill="#ead2c6" d="M 1531.5,284.5 C 1529.8,284.34 1528.13,284.506 1526.5,285C 1500.55,305.643 1473.88,325.31 1446.5,344C 1440.21,347.945 1433.38,350.445 1426,351.5C 1421.57,350.809 1417.9,348.809 1415,345.5C 1413.87,340.22 1412.87,334.887 1412,329.5C 1405.48,318.324 1395.98,314.491 1383.5,318C 1382.29,319.376 1380.96,320.542 1379.5,321.5C 1386.35,307.479 1396.85,303.479 1411,309.5C 1412,311.167 1413,312.833 1414,314.5C 1414.09,323.575 1414.75,332.575 1416,341.5C 1418.21,344.29 1421.04,345.123 1424.5,344C 1433.5,339.168 1442.17,333.835 1450.5,328C 1476.24,308.378 1502.08,288.878 1528,269.5C 1528.39,274.713 1529.55,279.713 1531.5,284.5 Z"/></g>
<g><path style="opacity:1" fill="#88aedf" d="M 116.5,289.5 C 118.211,338.752 137.544,379.585 174.5,412C 194.886,427.069 217.553,436.569 242.5,440.5C 241.5,440.5 240.5,440.5 239.5,440.5C 244.952,451.567 250.618,462.734 256.5,474C 253.518,474.498 250.518,474.665 247.5,474.5C 181.435,465.238 132.268,431.572 100,373.5C 83.3292,341.148 76.3292,306.815 79,270.5C 90.4039,279.118 102.904,285.452 116.5,289.5 Z"/></g>
<g><path style="opacity:1" fill="#f8e5df" d="M 1531.5,284.5 C 1536.96,293.123 1543.96,300.29 1552.5,306C 1572.32,315.744 1591.99,325.744 1611.5,336C 1612.02,341.895 1613.02,347.728 1614.5,353.5C 1611.76,362.023 1609.6,370.689 1608,379.5C 1607.44,378.978 1606.77,378.645 1606,378.5C 1592.78,384.715 1581.62,393.548 1572.5,405C 1561.75,410.553 1552.75,418.219 1545.5,428C 1536.18,432.322 1528.35,438.489 1522,446.5C 1521.51,447.793 1521.34,449.127 1521.5,450.5C 1523.65,450.628 1525.65,450.128 1527.5,449C 1533.68,441.154 1541.35,435.154 1550.5,431C 1557.25,421.922 1565.58,414.588 1575.5,409C 1584.79,398.208 1595.46,389.041 1607.5,381.5C 1607.98,386.513 1608.98,391.346 1610.5,396C 1612.97,396.706 1615.3,396.373 1617.5,395C 1620.92,387.064 1623.76,378.897 1626,370.5C 1628.27,367.228 1630.93,364.228 1634,361.5C 1641.07,373.197 1645.23,385.864 1646.5,399.5C 1646.67,405.842 1646.5,412.175 1646,418.5C 1629.62,440.879 1609.45,459.046 1585.5,473C 1564.81,484.846 1543.47,495.346 1521.5,504.5C 1520.83,504.167 1520.17,503.833 1519.5,503.5C 1520.31,501.929 1520.64,500.262 1520.5,498.5C 1522.27,483.588 1518.44,470.255 1509,458.5C 1497.95,446.44 1485.45,436.273 1471.5,428C 1447.83,415.504 1425.16,401.504 1403.5,386C 1391.46,374.621 1382.63,361.121 1377,345.5C 1376.33,339.5 1376.33,333.5 1377,327.5C 1377.57,325.359 1378.41,323.359 1379.5,321.5C 1380.96,320.542 1382.29,319.376 1383.5,318C 1395.98,314.491 1405.48,318.324 1412,329.5C 1412.87,334.887 1413.87,340.22 1415,345.5C 1417.9,348.809 1421.57,350.809 1426,351.5C 1433.38,350.445 1440.21,347.945 1446.5,344C 1473.88,325.31 1500.55,305.643 1526.5,285C 1528.13,284.506 1529.8,284.34 1531.5,284.5 Z"/></g>
<g><path style="opacity:1" fill="#6c90c8" d="M 116.5,289.5 C 122.208,290.677 127.874,292.01 133.5,293.5C 134.341,316.199 140.175,337.532 151,357.5C 165.683,384.686 187.183,404.353 215.5,416.5C 217.509,418.065 219.843,419.065 222.5,419.5C 237.529,425.164 253.196,427.831 269.5,427.5C 273.631,430.445 278.131,432.778 283,434.5C 288.092,434.047 291.259,431.38 292.5,426.5C 306.5,426.5 320.5,426.5 334.5,426.5C 335.183,430.02 337.183,432.52 340.5,434C 347.446,435.373 354.446,436.373 361.5,437C 363.426,437.422 364.426,438.589 364.5,440.5C 323.993,441.77 283.326,441.77 242.5,440.5C 217.553,436.569 194.886,427.069 174.5,412C 137.544,379.585 118.211,338.752 116.5,289.5 Z"/></g>
<g><path style="opacity:1" fill="#696868" d="M 1538.5,319.5 C 1540.5,319.5 1542.5,319.5 1544.5,319.5C 1544.65,320.552 1544.48,321.552 1544,322.5C 1533,334.173 1520.84,344.339 1507.5,353C 1493.24,369.441 1476.24,381.941 1456.5,390.5C 1456.97,386.719 1458.64,383.552 1461.5,381C 1477.3,372.76 1491.3,362.093 1503.5,349C 1509.22,344.279 1515.22,339.946 1521.5,336C 1527.06,330.27 1532.73,324.77 1538.5,319.5 Z"/></g>
<g><path style="opacity:1" fill="#e1bb9d" d="M 292.5,426.5 C 291.259,431.38 288.092,434.047 283,434.5C 278.131,432.778 273.631,430.445 269.5,427.5C 265.049,422.027 259.882,417.361 254,413.5C 243.753,416.854 233.253,418.854 222.5,419.5C 219.843,419.065 217.509,418.065 215.5,416.5C 213.029,412.289 212.862,407.955 215,403.5C 219.131,394.734 223.631,386.234 228.5,378C 225.272,369.65 222.439,361.15 220,352.5C 219.333,349.167 219.333,345.833 220,342.5C 220.833,341 222,339.833 223.5,339C 235.409,338.848 246.909,341.015 258,345.5C 264.478,339.022 270.978,332.522 277.5,326C 282.181,322.308 286.347,322.808 290,327.5C 293.91,336.805 296.41,346.472 297.5,356.5C 309.209,358.438 319.376,363.438 328,371.5C 330,374.833 330,378.167 328,381.5C 317.809,390.512 305.975,396.178 292.5,398.5C 293.802,407.84 293.802,417.174 292.5,426.5 Z"/></g>
<g><path style="opacity:1" fill="#696868" d="M 1561.5,332.5 C 1562.83,332.5 1564.17,332.5 1565.5,332.5C 1565.51,334.308 1565.01,335.975 1564,337.5C 1558.17,342 1552.33,346.5 1546.5,351C 1541.2,357.302 1535.53,363.302 1529.5,369C 1523,372.75 1516.66,376.75 1510.5,381C 1502.3,389.335 1493.47,396.835 1484,403.5C 1482.46,402.423 1482.46,401.089 1484,399.5C 1491.5,392 1499,384.5 1506.5,377C 1512.66,372.75 1519,368.75 1525.5,365C 1536.5,352.821 1548.5,341.988 1561.5,332.5 Z"/></g>
<g><path style="opacity:1" fill="#b9c7d9" d="M 1634.5,324.5 C 1635.1,324.735 1635.43,325.235 1635.5,326C 1631.32,339.551 1626.15,352.717 1620,365.5C 1620.21,358.987 1621.54,352.654 1624,346.5C 1628.2,339.475 1631.7,332.141 1634.5,324.5 Z"/></g>
<g><path style="opacity:1" fill="#f2e0b5" d="M 286.5,387.5 C 284.983,387.511 283.816,388.177 283,389.5C 282.971,394.363 282.138,399.03 280.5,403.5C 278.171,402.229 277.005,400.229 277,397.5C 276.692,398.308 276.192,398.975 275.5,399.5C 271.17,396.347 266.837,394.013 262.5,392.5C 260.252,393.378 258.085,393.045 256,391.5C 254.532,393.816 252.699,394.149 250.5,392.5C 249.353,392.818 248.519,393.484 248,394.5C 245.475,394.023 243.141,394.023 241,394.5C 240.055,394.905 239.388,395.572 239,396.5C 237.887,395.289 236.72,395.289 235.5,396.5C 234.702,396.043 234.369,395.376 234.5,394.5C 235.28,390.873 236.78,387.54 239,384.5C 239.661,379.442 239.328,374.442 238,369.5C 235.768,364.137 233.934,358.637 232.5,353C 232.833,352.5 233.167,352 233.5,351.5C 243.694,353.986 254.027,355.153 264.5,355C 267.63,352.872 270.463,350.372 273,347.5C 276,343.833 279,340.167 282,336.5C 284.388,344.273 287.054,351.94 290,359.5C 296.445,365.941 303.945,370.774 312.5,374C 313.357,374.689 314.023,375.522 314.5,376.5C 305.548,381.074 296.215,384.741 286.5,387.5 Z"/></g>
<g><path style="opacity:1" fill="#686767" d="M 1583.5,351.5 C 1585.6,351.201 1587.6,351.534 1589.5,352.5C 1583.6,360.901 1576.27,367.734 1567.5,373C 1562.53,378.969 1557.2,384.635 1551.5,390C 1542.83,395.667 1534.17,401.333 1525.5,407C 1519.14,413.699 1512.47,420.032 1505.5,426C 1504.28,426.563 1503.28,426.23 1502.5,425C 1509.43,416.066 1517.1,407.733 1525.5,400C 1533.17,395 1540.83,390 1548.5,385C 1552.87,380.967 1556.87,376.634 1560.5,372C 1569.45,366.538 1577.12,359.705 1583.5,351.5 Z"/></g>
<g><path style="opacity:1" fill="#e0bb9c" d="M 434.5,426.5 C 436.286,430.506 435.62,434.006 432.5,437C 422.589,438.887 412.589,440.054 402.5,440.5C 400.559,440.869 398.725,441.536 397,442.5C 393.801,449.381 390.134,456.047 386,462.5C 381.884,467.249 377.551,467.582 373,463.5C 369.839,455.839 367.006,448.173 364.5,440.5C 364.426,438.589 363.426,437.422 361.5,437C 354.446,436.373 347.446,435.373 340.5,434C 337.183,432.52 335.183,430.02 334.5,426.5C 334.372,424.345 334.872,422.345 336,420.5C 340.615,413.55 345.615,406.884 351,400.5C 351.333,390.5 351.667,380.5 352,370.5C 352.833,369.667 353.667,368.833 354.5,368C 360,367.238 365,368.572 369.5,372C 374.201,375.681 379.201,378.848 384.5,381.5C 391.899,378.232 399.565,375.732 407.5,374C 412.437,372.631 416.604,373.797 420,377.5C 419.478,387.586 416.978,397.252 412.5,406.5C 420.285,412.716 427.618,419.383 434.5,426.5 Z"/></g>
<g><path style="opacity:1" fill="#f2dfb4" d="M 408.5,415.5 C 408.859,417.371 409.859,418.871 411.5,420C 409.153,420.436 406.819,420.936 404.5,421.5C 403.977,420.196 402.643,419.529 400.5,419.5C 397.398,419.497 397.065,419.997 399.5,421C 397.623,421.576 395.789,421.409 394,420.5C 392.189,421.078 390.355,421.578 388.5,422C 384.944,424.9 381.277,427.733 377.5,430.5C 377.043,432.598 376.043,434.264 374.5,435.5C 374.274,430.914 371.94,427.747 367.5,426C 360.464,425.436 353.464,424.603 346.5,423.5C 350.859,417.461 355.693,411.795 361,406.5C 361.808,404.577 362.308,402.577 362.5,400.5C 361.278,393.498 361.278,386.498 362.5,379.5C 369.274,383.609 376.274,387.276 383.5,390.5C 392.633,388.542 401.633,386.209 410.5,383.5C 407.836,390.814 405.17,398.147 402.5,405.5C 404.092,409.089 406.092,412.422 408.5,415.5 Z"/></g>
<g><path style="opacity:1" fill="#ecd3a9" d="M 286.5,387.5 C 285.496,388.683 284.662,390.016 284,391.5C 283.218,400.857 282.218,410.19 281,419.5C 275.198,414.7 269.698,409.533 264.5,404C 263.167,403.333 261.833,402.667 260.5,402C 251.19,401.882 242.023,403.048 233,405.5C 231.833,405.167 230.667,404.833 229.5,404.5C 231.18,401.098 232.846,397.765 234.5,394.5C 234.369,395.376 234.702,396.043 235.5,396.5C 236.72,395.289 237.887,395.289 239,396.5C 239.388,395.572 240.055,394.905 241,394.5C 243.141,394.023 245.475,394.023 248,394.5C 248.519,393.484 249.353,392.818 250.5,392.5C 252.699,394.149 254.532,393.816 256,391.5C 258.085,393.045 260.252,393.378 262.5,392.5C 266.837,394.013 271.17,396.347 275.5,399.5C 276.192,398.975 276.692,398.308 277,397.5C 277.005,400.229 278.171,402.229 280.5,403.5C 282.138,399.03 282.971,394.363 283,389.5C 283.816,388.177 284.983,387.511 286.5,387.5 Z"/></g>
<g><path style="opacity:1" fill="#ebf6f7" d="M 269.5,427.5 C 253.196,427.831 237.529,425.164 222.5,419.5C 233.253,418.854 243.753,416.854 254,413.5C 259.882,417.361 265.049,422.027 269.5,427.5 Z"/></g>
<g><path style="opacity:1" fill="#696867" d="M 1627.5,419.5 C 1633.46,418.862 1634.46,420.362 1630.5,424C 1620.83,431.667 1611.17,439.333 1601.5,447C 1596.4,449.39 1594.4,447.89 1595.5,442.5C 1605.88,434.321 1616.55,426.655 1627.5,419.5 Z"/></g>
<g><path style="opacity:1" fill="#ebd3c7" d="M 1646.5,399.5 C 1649.03,416.514 1647.2,433.181 1641,449.5C 1618.51,479.665 1590.34,502.832 1556.5,519C 1541.22,526.056 1525.22,528.723 1508.5,527C 1505.22,526.241 1502.22,524.908 1499.5,523C 1510.6,518.267 1517.6,510.101 1520.5,498.5C 1520.64,500.262 1520.31,501.929 1519.5,503.5C 1520.17,503.833 1520.83,504.167 1521.5,504.5C 1543.47,495.346 1564.81,484.846 1585.5,473C 1609.45,459.046 1629.62,440.879 1646,418.5C 1646.5,412.175 1646.67,405.842 1646.5,399.5 Z"/></g>
<g><path style="opacity:1" fill="#ecd3a8" d="M 408.5,415.5 C 413.146,419.479 417.479,423.812 421.5,428.5C 413.164,429.314 404.831,430.147 396.5,431C 392.052,433.114 388.552,436.281 386,440.5C 384.777,444.615 382.777,448.282 380,451.5C 377.475,446.427 375.642,441.094 374.5,435.5C 376.043,434.264 377.043,432.598 377.5,430.5C 381.277,427.733 384.944,424.9 388.5,422C 390.355,421.578 392.189,421.078 394,420.5C 395.789,421.409 397.623,421.576 399.5,421C 397.065,419.997 397.398,419.497 400.5,419.5C 402.643,419.529 403.977,420.196 404.5,421.5C 406.819,420.936 409.153,420.436 411.5,420C 409.859,418.871 408.859,417.371 408.5,415.5 Z"/></g>
<g><path style="opacity:1" fill="#6c91c9" d="M 1434.5,421.5 C 1440.87,424.679 1446.87,428.346 1452.5,432.5C 1440.78,436.43 1428.78,439.097 1416.5,440.5C 1346.51,441.477 1276.51,441.81 1206.5,441.5C 1140.5,441.614 1074.5,441.281 1008.5,440.5C 950.833,439.917 893.167,439.25 835.5,438.5C 825.994,438.5 816.661,438.834 807.5,439.5C 744.839,440.402 682.172,440.736 619.5,440.5C 547.499,440.608 475.499,440.941 403.5,441.5C 402.833,441.5 402.5,441.167 402.5,440.5C 412.589,440.054 422.589,438.887 432.5,437C 435.62,434.006 436.286,430.506 434.5,426.5C 471.167,426.5 507.833,426.5 544.5,426.5C 566.5,426.5 588.5,426.5 610.5,426.5C 819,427.264 1027.5,426.931 1236,425.5C 1289.51,425.915 1343.01,426.582 1396.5,427.5C 1409.6,427.408 1422.27,425.408 1434.5,421.5 Z"/></g>
<g><path style="opacity:1" fill="#95b9e0" d="M 610.5,426.5 C 588.5,426.5 566.5,426.5 544.5,426.5C 558.489,425.416 572.655,424.749 587,424.5C 595.06,424.307 602.893,424.973 610.5,426.5 Z"/></g>
<g><path style="opacity:1" fill="#a6c6e5" d="M 1452.5,432.5 C 1463.44,437.637 1473.77,443.804 1483.5,451C 1484.45,451.718 1484.62,452.551 1484,453.5C 1467.48,462.395 1449.98,468.395 1431.5,471.5C 1431.16,469.146 1430.66,466.813 1430,464.5C 1426.6,457.362 1422.43,450.695 1417.5,444.5C 1416.57,443.311 1416.24,441.978 1416.5,440.5C 1428.78,439.097 1440.78,436.43 1452.5,432.5 Z"/></g>
<g><path style="opacity:1" fill="#a7c7e6" d="M 807.5,439.5 C 813.206,439.171 818.872,439.505 824.5,440.5C 827.806,444.759 830.973,449.092 834,453.5C 834.441,456.939 836.108,459.606 839,461.5C 839.352,463.247 839.852,464.914 840.5,466.5C 828.988,466.172 817.654,466.505 806.5,467.5C 749.163,467.84 691.829,468.507 634.5,469.5C 629.305,460.279 623.971,451.112 618.5,442C 619.056,441.617 619.389,441.117 619.5,440.5C 682.172,440.736 744.839,440.402 807.5,439.5 Z"/></g>
<g><path style="opacity:1" fill="#88aee0" d="M 807.5,439.5 C 816.661,438.834 825.994,438.5 835.5,438.5C 893.167,439.25 950.833,439.917 1008.5,440.5C 1009.49,443.146 1010.49,445.812 1011.5,448.5C 1015.69,455.088 1019.69,461.755 1023.5,468.5C 980.155,467.994 936.822,466.994 893.5,465.5C 891.713,462.911 891.379,463.077 892.5,466C 875.17,466.5 857.837,466.667 840.5,466.5C 839.852,464.914 839.352,463.247 839,461.5C 836.108,459.606 834.441,456.939 834,453.5C 830.973,449.092 827.806,444.759 824.5,440.5C 818.872,439.505 813.206,439.171 807.5,439.5 Z"/></g>
<g><path style="opacity:1" fill="#a6c6e5" d="M 242.5,440.5 C 283.326,441.77 323.993,441.77 364.5,440.5C 367.006,448.173 369.839,455.839 373,463.5C 377.551,467.582 381.884,467.249 386,462.5C 390.134,456.047 393.801,449.381 397,442.5C 398.725,441.536 400.559,440.869 402.5,440.5C 402.5,441.167 402.833,441.5 403.5,441.5C 409.421,451.673 415.087,462.006 420.5,472.5C 369.536,473.456 318.536,474.456 267.5,475.5C 260.658,475.5 253.991,475.166 247.5,474.5C 250.518,474.665 253.518,474.498 256.5,474C 250.618,462.734 244.952,451.567 239.5,440.5C 240.5,440.5 241.5,440.5 242.5,440.5 Z"/></g>
<g><path style="opacity:1" fill="#88aedf" d="M 619.5,440.5 C 619.389,441.117 619.056,441.617 618.5,442C 623.971,451.112 629.305,460.279 634.5,469.5C 563.172,470.862 491.839,471.862 420.5,472.5C 415.087,462.006 409.421,451.673 403.5,441.5C 475.499,440.941 547.499,440.608 619.5,440.5 Z"/></g>
<g><path style="opacity:1" fill="#a7c7e6" d="M 1008.5,440.5 C 1074.5,441.281 1140.5,441.614 1206.5,441.5C 1212.1,451.046 1217.44,460.712 1222.5,470.5C 1203.01,471.497 1183.34,471.83 1163.5,471.5C 1117.16,471.294 1070.83,470.627 1024.5,469.5C 1024.5,468.833 1024.17,468.5 1023.5,468.5C 1019.69,461.755 1015.69,455.088 1011.5,448.5C 1010.49,445.812 1009.49,443.146 1008.5,440.5 Z"/></g>
<g><path style="opacity:1" fill="#88aee0" d="M 1416.5,440.5 C 1416.24,441.978 1416.57,443.311 1417.5,444.5C 1422.43,450.695 1426.6,457.362 1430,464.5C 1430.66,466.813 1431.16,469.146 1431.5,471.5C 1426.39,473.044 1421.06,474.044 1415.5,474.5C 1350.14,472.641 1285.81,471.308 1222.5,470.5C 1217.44,460.712 1212.1,451.046 1206.5,441.5C 1276.51,441.81 1346.51,441.477 1416.5,440.5 Z"/></g>
<g><path style="opacity:1" fill="#84a6cb" d="M 1023.5,468.5 C 1024.17,468.5 1024.5,468.833 1024.5,469.5C 951.837,468.478 879.17,467.812 806.5,467.5C 817.654,466.505 828.988,466.172 840.5,466.5C 857.837,466.667 875.17,466.5 892.5,466C 891.379,463.077 891.713,462.911 893.5,465.5C 936.822,466.994 980.155,467.994 1023.5,468.5 Z"/></g>
<g><path style="opacity:1" fill="#83a4c8" d="M 1222.5,470.5 C 1285.81,471.308 1350.14,472.641 1415.5,474.5C 1409.68,475.166 1403.68,475.5 1397.5,475.5C 1319.33,474.387 1241.33,473.054 1163.5,471.5C 1183.34,471.83 1203.01,471.497 1222.5,470.5 Z"/></g>
<g><path style="opacity:1" fill="#e9d1c5" d="M 1502.5,473.5 C 1503.5,473.414 1504.33,473.748 1505,474.5C 1508.79,482.215 1509.46,490.215 1507,498.5C 1500.01,511.952 1490.68,513.952 1479,504.5C 1476.84,502.189 1475.84,499.522 1476,496.5C 1485.03,488.968 1493.86,481.302 1502.5,473.5 Z"/></g>
</svg>
