<?xml version="1.0" encoding="UTF-8"?>
<!DOCTYPE svg PUBLIC "-//W3C//DTD SVG 1.1//EN" "http://www.w3.org/Graphics/SVG/1.1/DTD/svg11.dtd">
<svg xmlns="http://www.w3.org/2000/svg" version="1.1" width="1705px" height="570px" style="shape-rendering:geometricPrecision; text-rendering:geometricPrecision; image-rendering:optimizeQuality; fill-rule:evenodd; clip-rule:evenodd" xmlns:xlink="http://www.w3.org/1999/xlink">
<g><path style="opacity:1" fill="#646464" d="M 166.5,-0.5 C 167.5,-0.5 168.5,-0.5 169.5,-0.5C 208.017,23.6129 244.684,50.4463 279.5,80C 301.085,80.9329 322.251,81.4329 343,81.5C 472.155,78.719 601.155,76.0523 730,73.5C 795.948,74.628 861.948,74.628 928,73.5C 1058.12,76.1133 1188.78,78.7799 1320,81.5C 1339.56,81.1751 1359.06,80.8417 1378.5,80.5C 1403.29,80.2047 1427.96,81.7047 1452.5,85C 1463.4,88.2229 1474.06,92.0563 1484.5,96.5C 1487.35,87.1259 1490.51,77.7926 1494,68.5C 1496,65.1667 1498,61.8333 1500,58.5C 1503.72,55.7596 1507.89,54.9262 1512.5,56C 1532.95,66.6335 1552.11,79.1335 1570,93.5C 1584.42,109.15 1587.42,126.817 1579,146.5C 1577.21,149.295 1575.04,151.795 1572.5,154C 1589.94,182.041 1605.44,211.207 1619,241.5C 1617.43,214.876 1616.1,188.209 1615,161.5C 1613.96,159.254 1612.79,157.087 1611.5,155C 1598.84,153.667 1591.34,146.833 1589,134.5C 1588.48,124.334 1587.98,114.167 1587.5,104C 1588.2,83.5057 1588.7,63.0057 1589,42.5C 1591.47,37.3863 1595.64,34.553 1601.5,34C 1619.5,32.5471 1637.5,31.5471 1655.5,31C 1659.98,31.1541 1663.48,32.9874 1666,36.5C 1667.05,62.3632 1669.71,88.0298 1674,113.5C 1675.68,124.412 1674.01,134.745 1669,144.5C 1662.62,152.107 1654.45,156.107 1644.5,156.5C 1648.68,205.792 1652.34,255.126 1655.5,304.5C 1666.74,307.633 1678.07,310.467 1689.5,313C 1691.71,314.873 1693.54,317.04 1695,319.5C 1698.8,328.408 1701.97,337.408 1704.5,346.5C 1704.5,349.5 1704.5,352.5 1704.5,355.5C 1699.62,362.56 1694.12,369.226 1688,375.5C 1669.3,394.531 1650.97,413.864 1633,433.5C 1595.84,472.664 1558,511.164 1519.5,549C 1512.03,556.558 1503.7,562.891 1494.5,568C 1491.96,568.186 1489.63,568.686 1487.5,569.5C 1485.17,569.5 1482.83,569.5 1480.5,569.5C 1420.81,551.88 1362.48,530.38 1305.5,505C 1295.49,500.224 1285.82,494.891 1276.5,489C 1271.58,488.805 1266.75,488.305 1262,487.5C 1259.02,487.787 1256.02,488.12 1253,488.5C 1190.43,487.448 1127.43,486.448 1064,485.5C 1061.26,486.066 1058.59,486.399 1056,486.5C 869.011,484.071 683.011,484.404 498,487.5C 494.978,487.12 491.978,486.787 489,486.5C 462,487.167 435,487.833 408,488.5C 405,488.167 402,487.833 399,487.5C 373.906,488.328 348.739,488.828 323.5,489C 287.217,493.368 251.217,491.702 215.5,484C 136.901,461.734 86.7344,411.234 65,332.5C 59.1797,306.018 58.013,279.351 61.5,252.5C 48.0062,240.509 34.3396,228.676 20.5,217C 13.2701,209.938 6.27006,202.771 -0.5,195.5C -0.5,193.833 -0.5,192.167 -0.5,190.5C 4.96708,180.651 12.1337,171.984 21,164.5C 38.9162,141.913 57.5829,119.913 77,98.5C 73.7313,87.2552 70.398,75.9218 67,64.5C 61.906,54.681 58.906,44.3476 58,33.5C 60.2632,27.7553 64.4298,23.9219 70.5,22C 80.9531,17.7722 89.4531,20.2722 96,29.5C 100.071,39.7987 104.738,49.7987 110,59.5C 124.96,41.5378 140.293,23.8712 156,6.5C 158.998,3.26226 162.498,0.928927 166.5,-0.5 Z"/></g>
<g><path style="opacity:1" fill="#ecf1f9" d="M 99.5,150.5 C 101.003,167.189 102.836,183.855 105,200.5C 105.369,205.901 106.536,211.068 108.5,216C 144.069,227.885 179.736,228.218 215.5,217C 244.884,205.702 258.051,184.536 255,153.5C 248.98,137.488 237.48,127.988 220.5,125C 212.402,124.173 204.402,124.673 196.5,126.5C 200.673,106.178 194.673,89.6781 178.5,77C 159.086,66.6344 141.253,68.8011 125,83.5C 124.388,86.1146 122.888,87.7813 120.5,88.5C 118.328,83.1843 116.495,77.851 115,72.5C 132.51,51.4602 150.01,30.4602 167.5,9.5C 220.788,48.2811 272.788,88.7811 323.5,131C 325.333,132.833 327.167,134.667 329,136.5C 329.667,137.5 329.667,138.5 329,139.5C 292.127,185.38 254.127,230.38 215,274.5C 198.913,291.925 181.413,307.592 162.5,321.5C 112.313,278.253 61.9792,235.253 11.5,192.5C 36.9424,165.895 61.109,138.228 84,109.5C 89.668,123.008 94.8347,136.674 99.5,150.5 Z"/></g>
<g><path style="opacity:1" fill="#e7a8bb" d="M 168.5,27.5 C 177.466,27.7991 182.133,32.4658 182.5,41.5C 187.918,39.6947 192.418,41.028 196,45.5C 196.009,53.8423 191.842,59.009 183.5,61C 178.558,62.3279 173.558,62.6612 168.5,62C 162.335,53.5011 160.169,44.0011 162,33.5C 164.063,31.2659 166.229,29.2659 168.5,27.5 Z"/></g>
<g><path style="opacity:1" fill="#dea4b5" d="M 76.5,30.5 C 81.8981,29.3667 85.8981,31.2001 88.5,36C 81.7065,37.0674 75.5398,39.5674 70,43.5C 68.4868,40.9761 67.8201,38.3094 68,35.5C 70.9788,33.933 73.8121,32.2663 76.5,30.5 Z"/></g>
<g><path style="opacity:1" fill="#a39edd" d="M 1628.5,61.5 C 1626.5,61.5 1624.5,61.5 1622.5,61.5C 1622.5,55.5 1622.5,49.5 1622.5,43.5C 1624.83,43.5 1627.17,43.5 1629.5,43.5C 1628.76,49.4707 1628.43,55.4707 1628.5,61.5 Z"/></g>
<g><path style="opacity:1" fill="#a39ede" d="M 1642.5,60.5 C 1639.94,60.8016 1637.61,60.4682 1635.5,59.5C 1636.59,53.8123 1636.59,48.1456 1635.5,42.5C 1638.17,42.5 1640.83,42.5 1643.5,42.5C 1642.69,48.4638 1642.36,54.4638 1642.5,60.5 Z"/></g>
<g><path style="opacity:1" fill="#a59fe2" d="M 1656.5,60.5 C 1653.5,60.5 1650.5,60.5 1647.5,60.5C 1647.91,54.8387 1648.24,49.172 1648.5,43.5C 1651.48,43.9629 1654.48,44.2962 1657.5,44.5C 1657.82,50.0262 1657.49,55.3595 1656.5,60.5 Z"/></g>
<g><path style="opacity:1" fill="#a7a1e4" d="M 1616.5,61.5 C 1614.83,61.5 1613.17,61.5 1611.5,61.5C 1611.5,55.8333 1611.5,50.1667 1611.5,44.5C 1612.83,44.5 1614.17,44.5 1615.5,44.5C 1615.76,50.172 1616.09,55.8387 1616.5,61.5 Z"/></g>
<g><path style="opacity:1" fill="#f0deb4" d="M 145.5,176.5 C 138.705,179.293 132.705,183.293 127.5,188.5C 115.354,158.918 103.854,128.918 93,98.5C 87.8845,84.9354 82.2179,71.602 76,58.5C 75.231,55.9009 75.3977,53.4009 76.5,51C 81.5628,48.3109 86.7295,45.8109 92,43.5C 109.947,87.8511 127.78,132.184 145.5,176.5 Z"/></g>
<g><path style="opacity:1" fill="#a49ee0" d="M 1607.5,61.5 C 1604.83,61.5 1602.17,61.5 1599.5,61.5C 1599.33,56.8215 1599.5,52.1548 1600,47.5C 1601.9,45.9837 1604.06,45.317 1606.5,45.5C 1606.27,50.8947 1606.6,56.228 1607.5,61.5 Z"/></g>
<g><path style="opacity:1" fill="#ececed" d="M 1635.5,59.5 C 1637.61,60.4682 1639.94,60.8016 1642.5,60.5C 1643.5,73.8212 1645.16,73.8212 1647.5,60.5C 1650.5,60.5 1653.5,60.5 1656.5,60.5C 1656.78,65.5649 1656.45,70.5649 1655.5,75.5C 1644.54,75.7935 1633.54,75.7935 1622.5,75.5C 1622.5,70.8333 1622.5,66.1667 1622.5,61.5C 1624.5,61.5 1626.5,61.5 1628.5,61.5C 1628.34,64.1873 1628.5,66.854 1629,69.5C 1631.09,70.7908 1632.42,70.1242 1633,67.5C 1633.55,64.6209 1634.38,61.9542 1635.5,59.5 Z"/></g>
<g><path style="opacity:1" fill="#e9e9ea" d="M 1599.5,61.5 C 1602.17,61.5 1604.83,61.5 1607.5,61.5C 1607.13,64.3965 1607.63,67.0632 1609,69.5C 1610.06,66.834 1610.89,64.1673 1611.5,61.5C 1613.17,61.5 1614.83,61.5 1616.5,61.5C 1617.57,66.4049 1618.24,71.4049 1618.5,76.5C 1612.08,76.4419 1605.75,77.1085 1599.5,78.5C 1599.5,72.8333 1599.5,67.1667 1599.5,61.5 Z"/></g>
<g><path style="opacity:1" fill="#a1e5ba" d="M 1542.5,90.5 C 1542.33,98.6126 1539.33,105.446 1533.5,111C 1527.5,113.667 1521.5,116.333 1515.5,119C 1513.62,120.543 1512.12,122.376 1511,124.5C 1510.47,127.947 1509.64,131.281 1508.5,134.5C 1506.53,132.572 1505.03,130.239 1504,127.5C 1496.81,107.095 1498.48,87.4283 1509,68.5C 1520.49,75.4841 1531.66,82.8175 1542.5,90.5 Z"/></g>
<g><path style="opacity:1" fill="#e6a8ba" d="M 99.5,150.5 C 105.095,164.266 111.095,177.932 117.5,191.5C 124.99,197.414 132.99,202.581 141.5,207C 145.781,208.458 148.947,207.292 151,203.5C 155.398,192.466 156.731,181.132 155,169.5C 143.98,142.266 132.48,115.266 120.5,88.5C 122.888,87.7813 124.388,86.1146 125,83.5C 141.253,68.8011 159.086,66.6344 178.5,77C 194.673,89.6781 200.673,106.178 196.5,126.5C 204.402,124.673 212.402,124.173 220.5,125C 237.48,127.988 248.98,137.488 255,153.5C 258.051,184.536 244.884,205.702 215.5,217C 179.736,228.218 144.069,227.885 108.5,216C 106.536,211.068 105.369,205.901 105,200.5C 102.836,183.855 101.003,167.189 99.5,150.5 Z"/></g>
<g><path style="opacity:1" fill="#7c7d7c" d="M 640.5,72.5 C 641.833,73.1667 641.833,73.1667 640.5,72.5 Z"/></g>
<g><path style="opacity:1" fill="#f9faf9" d="M 1016.5,72.5 C 1017.83,73.1667 1017.83,73.1667 1016.5,72.5 Z"/></g>
<g><path style="opacity:1" fill="#a7c7e6" d="M 1012.5,89.5 C 1012.39,90.1174 1012.06,90.6174 1011.5,91C 1013.83,94.5091 1016.49,97.6758 1019.5,100.5C 1020.98,105.455 1023.48,109.788 1027,113.5C 1028,116.962 1029.17,120.296 1030.5,123.5C 981.167,123.5 931.833,123.5 882.5,123.5C 859.004,122.668 835.337,122.168 811.5,122C 804.394,110.719 797.06,99.5521 789.5,88.5C 791.969,87.8319 794.302,87.1653 796.5,86.5C 806.161,86.1043 815.828,85.771 825.5,85.5C 887.81,87.9177 950.144,89.251 1012.5,89.5 Z"/></g>
<g><path style="opacity:1" fill="#88aedf" d="M 796.5,86.5 C 794.302,87.1653 791.969,87.8319 789.5,88.5C 797.06,99.5521 804.394,110.719 811.5,122C 835.337,122.168 859.004,122.668 882.5,123.5C 796.176,123.087 709.843,123.087 623.5,123.5C 618.254,111.851 611.587,101.018 603.5,91C 601.19,90.5034 598.857,90.3367 596.5,90.5C 663.007,89.2671 729.674,87.9337 796.5,86.5 Z"/></g>
<g><path style="opacity:1" fill="#aeb9bf" d="M 1610.5,88.5 C 1626.57,88.5366 1642.57,89.5366 1658.5,91.5C 1659.33,98.1534 1660.16,104.82 1661,111.5C 1661.67,117.833 1661.67,124.167 1661,130.5C 1659.97,134.722 1657.81,138.222 1654.5,141C 1648.03,143.709 1641.53,146.209 1635,148.5C 1634.5,156.827 1634.33,165.16 1634.5,173.5C 1631.5,173.5 1628.5,173.5 1625.5,173.5C 1625.64,164.797 1625.14,156.13 1624,147.5C 1621.44,143.25 1617.61,141.417 1612.5,142C 1605,136.874 1600.83,129.707 1600,120.5C 1599.12,111.438 1599.45,102.438 1601,93.5C 1601.31,92.2341 1601.81,91.0674 1602.5,90C 1605.36,89.8171 1608.03,89.3171 1610.5,88.5 Z"/></g>
<g><path style="opacity:1" fill="#88aedf" d="M 1012.5,89.5 C 1071,90.0686 1129.34,91.0686 1187.5,92.5C 1194.21,101.541 1200.71,110.874 1207,120.5C 1207.48,121.448 1207.65,122.448 1207.5,123.5C 1148.5,123.5 1089.5,123.5 1030.5,123.5C 1029.17,120.296 1028,116.962 1027,113.5C 1023.48,109.788 1020.98,105.455 1019.5,100.5C 1016.49,97.6758 1013.83,94.5091 1011.5,91C 1012.06,90.6174 1012.39,90.1174 1012.5,89.5 Z"/></g>
<g><path style="opacity:1" fill="#a6c6e6" d="M 596.5,90.5 C 598.857,90.3367 601.19,90.5034 603.5,91C 611.587,101.018 618.254,111.851 623.5,123.5C 553.5,123.5 483.5,123.5 413.5,123.5C 409.542,118.602 405.709,113.602 402,108.5C 400.409,105.648 399.076,102.648 398,99.5C 394.771,98.5894 392.604,96.5894 391.5,93.5C 459.786,91.7066 528.119,90.7066 596.5,90.5 Z"/></g>
<g><path style="opacity:1" fill="#f1f1f1" d="M 1542.5,90.5 C 1555.99,97.1554 1565.49,107.489 1571,121.5C 1572.02,130.055 1570.36,138.055 1566,145.5C 1561.8,149.367 1557.97,153.533 1554.5,158C 1537.57,158.954 1523.4,153.121 1512,140.5C 1510.58,138.595 1509.41,136.595 1508.5,134.5C 1509.64,131.281 1510.47,127.947 1511,124.5C 1512.12,122.376 1513.62,120.543 1515.5,119C 1521.5,116.333 1527.5,113.667 1533.5,111C 1539.33,105.446 1542.33,98.6126 1542.5,90.5 Z"/></g>
<g><path style="opacity:1" fill="#a7c7e6" d="M 1187.5,92.5 C 1247.5,92.8556 1307.5,93.5223 1367.5,94.5C 1374.13,101.731 1380.29,109.398 1386,117.5C 1387.56,119.217 1388.39,121.217 1388.5,123.5C 1377.83,123.5 1367.17,123.5 1356.5,123.5C 1306.83,123.5 1257.17,123.5 1207.5,123.5C 1207.65,122.448 1207.48,121.448 1207,120.5C 1200.71,110.874 1194.21,101.541 1187.5,92.5 Z"/></g>
<g><path style="opacity:1" fill="#88aedf" d="M 391.5,93.5 C 392.604,96.5894 394.771,98.5894 398,99.5C 399.076,102.648 400.409,105.648 402,108.5C 405.709,113.602 409.542,118.602 413.5,123.5C 386.167,123.5 358.833,123.5 331.5,123.5C 319.663,113.833 307.663,104.333 295.5,95C 327.482,93.6335 359.482,93.1335 391.5,93.5 Z"/></g>
<g><path style="opacity:1" fill="#88aede" d="M 1367.5,94.5 C 1392.94,94.3884 1418.27,95.8884 1443.5,99C 1458.9,101.913 1473.24,107.58 1486.5,116C 1494.52,147.36 1514.52,165.36 1546.5,170C 1548.33,172.5 1550.17,175 1552,177.5C 1561.88,213.704 1572.38,249.704 1583.5,285.5C 1575.13,283.765 1566.8,281.932 1558.5,280C 1553.59,273.938 1548.93,267.771 1544.5,261.5C 1540.41,219.498 1522.41,183.998 1490.5,155C 1481.5,147.831 1471.83,141.665 1461.5,136.5C 1463.68,132.532 1465.01,128.365 1465.5,124C 1465.87,117.722 1463.2,113.389 1457.5,111C 1448.91,109.532 1441.57,111.865 1435.5,118C 1433.28,120.965 1430.94,123.798 1428.5,126.5C 1426.58,122.577 1424.74,118.577 1423,114.5C 1414.52,104.854 1405.52,104.187 1396,112.5C 1393.87,116.208 1393.03,120.208 1393.5,124.5C 1380.99,124.829 1368.66,124.495 1356.5,123.5C 1367.17,123.5 1377.83,123.5 1388.5,123.5C 1388.39,121.217 1387.56,119.217 1386,117.5C 1380.29,109.398 1374.13,101.731 1367.5,94.5 Z"/></g>
<g><path style="opacity:1" fill="#6c90c8" d="M 1544.5,261.5 C 1536.48,252.146 1528.82,242.479 1521.5,232.5C 1513.16,204.665 1497.82,181.498 1475.5,163C 1474.83,162.333 1474.17,162.333 1473.5,163C 1467.48,172.517 1458.81,176.35 1447.5,174.5C 1448.28,194.238 1439.61,200.404 1421.5,193C 1417.11,189.047 1414.11,184.214 1412.5,178.5C 1403.78,184.34 1394.78,184.84 1385.5,180C 1376.22,170.405 1376.22,160.739 1385.5,151C 1390.06,147.555 1395.06,144.888 1400.5,143C 1399.74,141.488 1398.74,140.154 1397.5,139C 1197.33,138.638 997.165,137.805 797,136.5C 645.502,137.574 494.002,138.241 342.5,138.5C 342.657,137.127 342.49,135.793 342,134.5C 338.97,130.305 335.47,126.639 331.5,123.5C 358.833,123.5 386.167,123.5 413.5,123.5C 483.5,123.5 553.5,123.5 623.5,123.5C 709.843,123.087 796.176,123.087 882.5,123.5C 931.833,123.5 981.167,123.5 1030.5,123.5C 1089.5,123.5 1148.5,123.5 1207.5,123.5C 1257.17,123.5 1306.83,123.5 1356.5,123.5C 1368.66,124.495 1380.99,124.829 1393.5,124.5C 1393.03,120.208 1393.87,116.208 1396,112.5C 1405.52,104.187 1414.52,104.854 1423,114.5C 1424.74,118.577 1426.58,122.577 1428.5,126.5C 1430.94,123.798 1433.28,120.965 1435.5,118C 1441.57,111.865 1448.91,109.532 1457.5,111C 1463.2,113.389 1465.87,117.722 1465.5,124C 1465.01,128.365 1463.68,132.532 1461.5,136.5C 1471.83,141.665 1481.5,147.831 1490.5,155C 1522.41,183.998 1540.41,219.498 1544.5,261.5 Z"/></g>
<g><path style="opacity:1" fill="#a5c5e6" d="M 1405.5,115.5 C 1412.7,116.863 1417.2,121.197 1419,128.5C 1419.99,131.126 1420.33,133.793 1420,136.5C 1417.66,138.181 1415.32,139.848 1413,141.5C 1404.58,136.572 1400.91,129.238 1402,119.5C 1402.69,117.65 1403.86,116.316 1405.5,115.5 Z"/></g>
<g><path style="opacity:1" fill="#a6c6e6" d="M 1449.5,118.5 C 1457.52,118.329 1459.69,121.996 1456,129.5C 1451.68,136.051 1445.85,140.218 1438.5,142C 1436.69,139.356 1434.69,136.856 1432.5,134.5C 1436.95,127.71 1442.62,122.376 1449.5,118.5 Z"/></g>
<g><path style="opacity:1" fill="#ecf9f9" d="M 1521.5,232.5 C 1512.36,219.76 1502.36,207.593 1491.5,196C 1488.77,193.608 1485.77,191.608 1482.5,190C 1479.5,189.333 1476.5,189.333 1473.5,190C 1386.66,237.218 1304.99,291.885 1228.5,354C 1214.88,365.406 1207.21,379.906 1205.5,397.5C 1206.61,408.375 1210.94,417.708 1218.5,425.5C 1015.17,426.963 811.835,427.296 608.5,426.5C 600.893,424.973 593.06,424.307 585,424.5C 570.655,424.749 556.489,425.416 542.5,426.5C 492.832,426.667 443.166,426.5 393.5,426C 403.189,425.902 411.355,422.402 418,415.5C 424.511,403.365 421.344,394.865 408.5,390C 400.632,388.181 393.799,390.014 388,395.5C 387.058,386.108 382.891,378.608 375.5,373C 367.145,369.594 361.312,372.094 358,380.5C 356.641,385.775 356.308,391.109 357,396.5C 357.516,399.034 358.683,401.2 360.5,403C 347.929,400.703 338.762,405.203 333,416.5C 332.366,419.555 332.532,422.555 333.5,425.5C 312.833,426.167 292.167,426.833 271.5,427.5C 229.395,428.525 194.228,413.525 166,382.5C 163.946,379.953 162.113,377.286 160.5,374.5C 226.796,330.23 289.629,281.23 349,227.5C 350.983,223.041 350.65,218.708 348,214.5C 340.008,198.514 331.508,182.847 322.5,167.5C 329.225,157.792 335.891,148.126 342.5,138.5C 494.002,138.241 645.502,137.574 797,136.5C 997.165,137.805 1197.33,138.638 1397.5,139C 1398.74,140.154 1399.74,141.488 1400.5,143C 1395.06,144.888 1390.06,147.555 1385.5,151C 1376.22,160.739 1376.22,170.405 1385.5,180C 1394.78,184.84 1403.78,184.34 1412.5,178.5C 1414.11,184.214 1417.11,189.047 1421.5,193C 1439.61,200.404 1448.28,194.238 1447.5,174.5C 1458.81,176.35 1467.48,172.517 1473.5,163C 1474.17,162.333 1474.83,162.333 1475.5,163C 1497.82,181.498 1513.16,204.665 1521.5,232.5 Z"/></g>
<g><path style="opacity:1" fill="#e9dab7" d="M 1424.5,143.5 C 1429.81,143.644 1431.98,146.31 1431,151.5C 1426.92,157.12 1422.26,157.787 1417,153.5C 1415.7,151.635 1415.37,149.635 1416,147.5C 1418.88,146.052 1421.71,144.719 1424.5,143.5 Z"/></g>
<g><path style="opacity:1" fill="#6d91c9" d="M 1313.5,145.5 C 1321.15,144.243 1326.32,147.243 1329,154.5C 1330.36,159.775 1330.69,165.109 1330,170.5C 1329.48,173.034 1328.32,175.2 1326.5,177C 1334.5,175.55 1341.83,177.217 1348.5,182C 1354.87,187.958 1356.04,194.792 1352,202.5C 1347.49,207.549 1341.82,209.882 1335,209.5C 1330.87,209.624 1327.04,208.624 1323.5,206.5C 1322.53,216.614 1317.53,223.781 1308.5,228C 1294,229.5 1287.5,223 1289,208.5C 1289.85,205.302 1291.35,202.469 1293.5,200C 1281.88,200.803 1273.04,196.303 1267,186.5C 1264.1,169.724 1271.27,162.224 1288.5,164C 1292.28,165.058 1295.62,166.891 1298.5,169.5C 1300,159.13 1305,151.13 1313.5,145.5 Z"/></g>
<g><path style="opacity:1" fill="#a6c6e6" d="M 1439.5,150.5 C 1446.92,150.109 1454.25,150.609 1461.5,152C 1466.11,153.124 1467.61,155.957 1466,160.5C 1461.47,166.058 1455.63,167.891 1448.5,166C 1443.88,163.698 1439.55,161.032 1435.5,158C 1437.5,155.838 1438.83,153.338 1439.5,150.5 Z"/></g>
<g><path style="opacity:1" fill="#a6c6e6" d="M 1404.5,150.5 C 1406.17,150.5 1407.83,150.5 1409.5,150.5C 1409.77,156.199 1412.43,160.365 1417.5,163C 1413.83,166 1410.17,169 1406.5,172C 1400.11,175.356 1393.94,175.189 1388,171.5C 1385.1,165.032 1386.6,159.865 1392.5,156C 1396.48,153.854 1400.48,152.02 1404.5,150.5 Z"/></g>
<g><path style="opacity:1" fill="#a5c6e6" d="M 1314.5,154.5 C 1318.18,153.725 1320.68,155.059 1322,158.5C 1322.67,162.167 1322.67,165.833 1322,169.5C 1321.96,171.941 1321.13,173.941 1319.5,175.5C 1316.17,174.167 1312.83,174.167 1309.5,175.5C 1307.87,167.676 1309.54,160.676 1314.5,154.5 Z"/></g>
<g><path style="opacity:1" fill="#a5c5e6" d="M 1430.5,161.5 C 1435.85,166.173 1439.18,172.173 1440.5,179.5C 1439.48,186.684 1435.48,189.184 1428.5,187C 1424.03,183.395 1422.03,178.728 1422.5,173C 1422.66,169.8 1422.99,166.633 1423.5,163.5C 1426.07,163.279 1428.4,162.612 1430.5,161.5 Z"/></g>
<g><path style="opacity:1" fill="#adb8be" d="M 1565.5,160.5 C 1573.38,171.071 1579.38,182.738 1583.5,195.5C 1578.13,196.235 1573.29,198.235 1569,201.5C 1564.29,190.025 1560.79,178.191 1558.5,166C 1560.71,164.081 1563.04,162.248 1565.5,160.5 Z"/></g>
<g><path style="opacity:1" fill="#a6c6e6" d="M 1278.5,170.5 C 1286.06,169.864 1292.56,172.197 1298,177.5C 1296.96,182.368 1296.46,187.368 1296.5,192.5C 1288.63,192.265 1281.46,189.932 1275,185.5C 1270.94,179.194 1272.11,174.194 1278.5,170.5 Z"/></g>
<g><path style="opacity:1" fill="#f7f6f6" d="M 145.5,176.5 C 146.097,176.735 146.43,177.235 146.5,178C 145.639,181.137 144.973,184.303 144.5,187.5C 140.97,188.369 137.636,189.703 134.5,191.5C 132.046,190.773 129.713,189.773 127.5,188.5C 132.705,183.293 138.705,179.293 145.5,176.5 Z"/></g>
<g><path style="opacity:1" fill="#d7dff0" d="M 322.5,187.5 C 314.011,200.817 305.178,214.151 296,227.5C 289.185,235.136 282.852,243.136 277,251.5C 269.465,260.547 261.465,269.213 253,277.5C 251.053,281.78 248.053,285.113 244,287.5C 243,289.167 242,290.833 241,292.5C 231.561,302.36 221.895,312.027 212,321.5C 211.215,323.286 210.049,324.786 208.5,326C 208.728,326.399 209.062,326.565 209.5,326.5C 193.33,338.513 176.83,350.18 160,361.5C 143.956,338.579 127.79,315.746 111.5,293C 112.167,292.333 112.833,292.333 113.5,293C 128.833,306.333 144.167,319.667 159.5,333C 162.03,334.422 164.697,334.755 167.5,334C 178.062,327.439 188.062,320.106 197.5,312C 240.354,269.498 279.854,224.332 316,176.5C 318.682,179.865 320.849,183.531 322.5,187.5 Z"/></g>
<g><path style="opacity:1" fill="#ebdbb6" d="M 1313.5,181.5 C 1318.74,181.99 1319.9,184.657 1317,189.5C 1313.19,192.952 1309.19,193.285 1305,190.5C 1304.33,188.833 1304.33,187.167 1305,185.5C 1307.56,183.376 1310.4,182.042 1313.5,181.5 Z"/></g>
<g><path style="opacity:1" fill="#a5c5e6" d="M 1325.5,182.5 C 1333.23,182.38 1339.73,185.047 1345,190.5C 1346.82,197.841 1343.99,201.508 1336.5,201.5C 1330.79,201.041 1325.46,199.374 1320.5,196.5C 1324.42,192.65 1326.09,187.983 1325.5,182.5 Z"/></g>
<g><path style="opacity:1" fill="#e0cd9f" d="M 1642.5,272.5 C 1642.66,274.199 1642.49,275.866 1642,277.5C 1639.17,271.178 1635.84,265.178 1632,259.5C 1631.82,254.981 1631.32,250.647 1630.5,246.5C 1629.11,225.192 1628.11,203.858 1627.5,182.5C 1629.92,182.708 1632.25,182.374 1634.5,181.5C 1634.83,182.5 1635.17,183.5 1635.5,184.5C 1637.46,213.866 1639.8,243.2 1642.5,272.5 Z"/></g>
<g><path style="opacity:1" fill="#dda6b6" d="M 144.5,187.5 C 143.962,190.653 142.962,193.653 141.5,196.5C 138.923,195.057 136.59,193.39 134.5,191.5C 137.636,189.703 140.97,188.369 144.5,187.5 Z"/></g>
<g><path style="opacity:1" fill="#eaf0f8" d="M 322.5,187.5 C 329.248,199.002 335.415,210.669 341,222.5C 309.741,247.88 278.575,273.38 247.5,299C 234.937,308.41 222.27,317.577 209.5,326.5C 209.062,326.565 208.728,326.399 208.5,326C 210.049,324.786 211.215,323.286 212,321.5C 221.895,312.027 231.561,302.36 241,292.5C 242,290.833 243,289.167 244,287.5C 248.053,285.113 251.053,281.78 253,277.5C 261.465,269.213 269.465,260.547 277,251.5C 282.852,243.136 289.185,235.136 296,227.5C 305.178,214.151 314.011,200.817 322.5,187.5 Z"/></g>
<g><path style="opacity:1" fill="#a5c5e6" d="M 1300.5,198.5 C 1304.9,200.563 1309.4,200.897 1314,199.5C 1314.62,204.223 1314.29,208.89 1313,213.5C 1310.52,218.991 1306.35,221.157 1300.5,220C 1295.93,217.459 1294.43,213.625 1296,208.5C 1297.24,205.022 1298.74,201.689 1300.5,198.5 Z"/></g>
<g><path style="opacity:1" fill="#e4d1a0" d="M 1622.5,281.5 C 1611.12,272.117 1599.45,263.117 1587.5,254.5C 1581.69,238.975 1576.03,223.308 1570.5,207.5C 1576.09,205.916 1581.42,204.083 1586.5,202C 1599.17,228.179 1611.17,254.679 1622.5,281.5 Z"/></g>
<g><path style="opacity:1" fill="#f2ecec" d="M 1473.5,203.5 C 1475.37,203.859 1476.87,204.859 1478,206.5C 1500.61,234.136 1521.94,262.469 1542,291.5C 1500.88,322.283 1460.05,353.45 1419.5,385C 1406.28,392.885 1393.62,401.552 1381.5,411C 1360.46,429.044 1339.12,446.711 1317.5,464C 1316.5,464.667 1315.5,464.667 1314.5,464C 1290.75,439.914 1266.58,416.081 1242,392.5C 1236.65,386.647 1231.48,380.647 1226.5,374.5C 1263.75,346.42 1301.41,318.92 1339.5,292C 1384.4,262.725 1429.07,233.225 1473.5,203.5 Z"/></g>
<g><path style="opacity:1" fill="#e7a8bb" d="M 161.5,236.5 C 172.583,235.434 179.25,240.267 181.5,251C 181.057,252.825 180.723,254.658 180.5,256.5C 192.383,256.213 197.216,261.88 195,273.5C 191.935,280.227 186.769,284.394 179.5,286C 172.882,287.378 166.215,287.711 159.5,287C 156.966,286.484 154.8,285.317 153,283.5C 146.444,270.225 146.111,256.892 152,243.5C 154.79,240.535 157.957,238.202 161.5,236.5 Z"/></g>
<g><path style="opacity:1" fill="#e3b8a0" d="M 1587.5,254.5 C 1599.45,263.117 1611.12,272.117 1622.5,281.5C 1625.96,286.746 1628.62,292.413 1630.5,298.5C 1619.8,296.533 1609.3,293.867 1599,290.5C 1595.26,278.451 1591.43,266.451 1587.5,254.5 Z"/></g>
<g><path style="opacity:1" fill="#dbb39c" d="M 1630.5,246.5 C 1631.32,250.647 1631.82,254.981 1632,259.5C 1635.84,265.178 1639.17,271.178 1642,277.5C 1642.49,275.866 1642.66,274.199 1642.5,272.5C 1643.68,281.885 1645.01,291.385 1646.5,301C 1645.99,302.826 1645.16,302.993 1644,301.5C 1640.78,291.058 1636.45,281.058 1631,271.5C 1630.5,263.173 1630.33,254.84 1630.5,246.5 Z"/></g>
<g><path style="opacity:1" fill="#88aedf" d="M 119.5,323.5 C 122.036,338.001 127.036,352.001 134.5,365.5C 157.609,407.726 192.942,432.726 240.5,440.5C 239.5,440.5 238.5,440.5 237.5,440.5C 242.952,451.567 248.618,462.734 254.5,474C 251.518,474.498 248.518,474.665 245.5,474.5C 172.892,463.795 121.392,425.129 91,358.5C 78.0693,328.058 73.5693,296.391 77.5,263.5C 91.9145,283.241 105.915,303.241 119.5,323.5 Z"/></g>
<g><path style="opacity:1" fill="#f2ebeb" d="M 1549.5,296.5 C 1589.46,309.54 1630.13,320.04 1671.5,328C 1661.36,337.136 1651.53,346.636 1642,356.5C 1606.67,395.833 1571.33,435.167 1536,474.5C 1520.86,490.638 1505.36,506.471 1489.5,522C 1434.12,504.21 1378.46,487.21 1322.5,471C 1393.58,414.301 1465.91,359.301 1539.5,306C 1543.33,303.332 1546.67,300.165 1549.5,296.5 Z"/></g>
<g><path style="opacity:1" fill="#e7a3c8" d="M 1554.5,308.5 C 1568.86,307.69 1575.69,314.357 1575,328.5C 1570.32,338.284 1562.82,341.45 1552.5,338C 1545.02,333.585 1542.19,327.085 1544,318.5C 1546.41,313.922 1549.91,310.588 1554.5,308.5 Z"/></g>
<g><path style="opacity:1" fill="#e7e7a2" d="M 1597.5,326.5 C 1615.72,325.546 1622.89,333.879 1619,351.5C 1617.1,356.4 1613.6,359.567 1608.5,361C 1590.68,363.847 1582.52,356.347 1584,338.5C 1586.9,332.501 1591.4,328.501 1597.5,326.5 Z"/></g>
<g><path style="opacity:1" fill="#6c90c8" d="M 119.5,323.5 C 130.969,340.925 143.302,357.759 156.5,374C 157.793,374.49 159.127,374.657 160.5,374.5C 162.113,377.286 163.946,379.953 166,382.5C 194.228,413.525 229.395,428.525 271.5,427.5C 292.511,427.833 313.511,427.5 334.5,426.5C 334.376,425.893 334.043,425.56 333.5,425.5C 332.532,422.555 332.366,419.555 333,416.5C 338.762,405.203 347.929,400.703 360.5,403C 358.683,401.2 357.516,399.034 357,396.5C 356.308,391.109 356.641,385.775 358,380.5C 361.312,372.094 367.145,369.594 375.5,373C 382.891,378.608 387.058,386.108 388,395.5C 393.799,390.014 400.632,388.181 408.5,390C 421.344,394.865 424.511,403.365 418,415.5C 411.355,422.402 403.189,425.902 393.5,426C 443.166,426.5 492.832,426.667 542.5,426.5C 564.5,426.5 586.5,426.5 608.5,426.5C 811.835,427.296 1015.17,426.963 1218.5,425.5C 1222.83,430.833 1227.17,436.167 1231.5,441.5C 1222.5,441.5 1213.5,441.5 1204.5,441.5C 1138.5,441.614 1072.5,441.281 1006.5,440.5C 948.833,439.917 891.167,439.25 833.5,438.5C 823.994,438.5 814.661,438.834 805.5,439.5C 742.839,440.402 680.172,440.736 617.5,440.5C 545.499,440.608 473.499,440.941 401.5,441.5C 400.178,441.33 399.011,441.663 398,442.5C 395.845,450.591 390.511,454.591 382,454.5C 374.4,453.743 369.233,449.743 366.5,442.5C 324.495,441.77 282.495,441.103 240.5,440.5C 192.942,432.726 157.609,407.726 134.5,365.5C 127.036,352.001 122.036,338.001 119.5,323.5 Z"/></g>
<g><path style="opacity:1" fill="#f0e9e9" d="M 1679.5,330.5 C 1680.12,330.611 1680.62,330.944 1681,331.5C 1682.01,335.877 1683.18,340.21 1684.5,344.5C 1649.05,386.791 1611.55,427.457 1572,466.5C 1547,493.5 1522,520.5 1497,547.5C 1495.27,543.047 1493.27,538.714 1491,534.5C 1490.33,533.167 1490.33,531.833 1491,530.5C 1504.3,518.196 1517.3,505.53 1530,492.5C 1561.04,458.464 1591.7,424.131 1622,389.5C 1641.06,369.607 1660.23,349.94 1679.5,330.5 Z"/></g>
<g><path style="opacity:1" fill="#6c91c8" d="M 275.5,332.5 C 290.761,333.295 296.594,341.295 293,356.5C 291.486,361.029 289.319,365.195 286.5,369C 292.914,371.62 298.747,375.12 304,379.5C 309.114,386.419 309.78,393.752 306,401.5C 299.943,408.119 292.443,410.619 283.5,409C 280.179,408.187 277.179,406.687 274.5,404.5C 271.006,418.077 262.339,423.91 248.5,422C 240.304,416.76 237.137,409.26 239,399.5C 227.473,402.9 219.14,399.234 214,388.5C 212.06,379.879 215.227,374.045 223.5,371C 226.167,370.333 228.833,369.667 231.5,369C 221.872,361.32 219.372,351.82 224,340.5C 229.533,336.092 235.7,335.259 242.5,338C 249.903,341.614 255.403,347.114 259,354.5C 260.432,343.913 265.932,336.579 275.5,332.5 Z"/></g>
<g><path style="opacity:1" fill="#e7a9a3" d="M 1520.5,337.5 C 1536.05,338.525 1542.21,346.525 1539,361.5C 1533.49,371.261 1525.33,374.428 1514.5,371C 1503.84,364.389 1501.68,355.556 1508,344.5C 1511.46,340.69 1515.63,338.356 1520.5,337.5 Z"/></g>
<g><path style="opacity:1" fill="#a4c5e5" d="M 277.5,341.5 C 282.915,341.082 285.581,343.582 285.5,349C 284.582,357.007 280.749,363.173 274,367.5C 270.35,366.349 267.85,364.015 266.5,360.5C 267.403,352.335 271.07,346.001 277.5,341.5 Z"/></g>
<g><path style="opacity:1" fill="#a6c6e6" d="M 231.5,344.5 C 235.911,344.203 239.911,345.369 243.5,348C 247.725,351.722 251.392,355.888 254.5,360.5C 251.785,363.214 249.451,366.214 247.5,369.5C 241.52,366.589 236.354,362.589 232,357.5C 229.142,353.119 228.975,348.786 231.5,344.5 Z"/></g>
<g><path style="opacity:1" fill="#a3e7bb" d="M 1559.5,363.5 C 1574.32,363.318 1581.99,370.651 1582.5,385.5C 1579.56,403.136 1569.56,409.302 1552.5,404C 1537.97,391.569 1537.97,378.902 1552.5,366C 1554.93,365.098 1557.26,364.264 1559.5,363.5 Z"/></g>
<g><path style="opacity:1" fill="#ebdbb7" d="M 258.5,369.5 C 262.553,370.35 266.553,371.516 270.5,373C 272.002,378.697 269.668,381.864 263.5,382.5C 255.271,380.358 253.604,376.025 258.5,369.5 Z"/></g>
<g><path style="opacity:1" fill="#a6c6e6" d="M 228.5,376.5 C 234.842,376.334 241.175,376.5 247.5,377C 248.314,379.627 249.647,381.96 251.5,384C 247.367,386.904 243.033,389.571 238.5,392C 232.361,393.451 226.861,392.284 222,388.5C 220.336,385.711 220.17,382.877 221.5,380C 223.713,378.384 226.047,377.217 228.5,376.5 Z"/></g>
<g><path style="opacity:1" fill="#a6c6e6" d="M 277.5,376.5 C 285.895,377.24 293.062,380.574 299,386.5C 302.034,394.77 299.2,399.437 290.5,400.5C 281.887,399.359 274.887,395.359 269.5,388.5C 274.662,386.178 277.329,382.178 277.5,376.5 Z"/></g>
<g><path style="opacity:1" fill="#a5c5e5" d="M 369.5,379.5 C 372.428,380.591 374.594,382.591 376,385.5C 377.962,390.656 378.795,395.989 378.5,401.5C 374.172,400.595 370.005,400.262 366,400.5C 364.641,395.225 364.308,389.891 365,384.5C 366.025,382.313 367.525,380.646 369.5,379.5 Z"/></g>
<g><path style="opacity:1" fill="#e7bba3" d="M 1462.5,380.5 C 1472.22,378.684 1480.38,381.351 1487,388.5C 1491.69,401.947 1487.19,410.781 1473.5,415C 1457.14,415.63 1450.3,407.797 1453,391.5C 1455.31,387.025 1458.48,383.358 1462.5,380.5 Z"/></g>
<g><path style="opacity:1" fill="#efdddd" d="M 1224.5,383.5 C 1232.09,392.935 1239.93,402.269 1248,411.5C 1269.19,431.693 1290.03,452.193 1310.5,473C 1307.21,477.077 1304.05,481.244 1301,485.5C 1273.72,460.226 1247.06,434.226 1221,407.5C 1221.19,399.386 1222.35,391.386 1224.5,383.5 Z"/></g>
<g><path style="opacity:1" fill="#a6c6e6" d="M 254.5,387.5 C 257.542,388.681 260.542,390.015 263.5,391.5C 265.164,397.706 264.664,403.706 262,409.5C 258.003,413.857 253.503,414.523 248.5,411.5C 246.147,403.393 247.981,396.393 254,390.5C 254.483,389.552 254.649,388.552 254.5,387.5 Z"/></g>
<g><path style="opacity:1" fill="#a6c6e6" d="M 399.5,396.5 C 406.686,394.892 411.686,397.392 414.5,404C 413.32,410.184 409.653,414.184 403.5,416C 399.297,417.569 394.964,418.402 390.5,418.5C 390.54,413.368 390.04,408.368 389,403.5C 392.154,400.488 395.654,398.155 399.5,396.5 Z"/></g>
<g><path style="opacity:1" fill="#eddcb6" d="M 369.5,407.5 C 373.994,407.995 378.16,409.328 382,411.5C 383.394,416.279 381.56,418.613 376.5,418.5C 369.844,417.514 367.511,413.848 369.5,407.5 Z"/></g>
<g><path style="opacity:1" fill="#a5c5e6" d="M 356.5,408.5 C 358.167,408.5 359.833,408.5 361.5,408.5C 361.188,413.9 362.855,418.567 366.5,422.5C 361.289,425.546 355.622,427.213 349.5,427.5C 342.586,427.035 340.086,423.368 342,416.5C 342.93,414.448 344.43,412.948 346.5,412C 349.942,410.816 353.275,409.65 356.5,408.5 Z"/></g>
<g><path style="opacity:1" fill="#a2c8e7" d="M 1508.5,409.5 C 1518.65,408.075 1526.82,411.408 1533,419.5C 1536.62,431.32 1533.45,440.82 1523.5,448C 1511.79,452.058 1502.63,448.891 1496,438.5C 1492.01,425.168 1496.17,415.502 1508.5,409.5 Z"/></g>
<g><path style="opacity:1" fill="#a5c5e6" d="M 384.5,424.5 C 385.496,424.414 386.329,424.748 387,425.5C 391.201,431.062 392.201,437.062 390,443.5C 384.417,447.849 379.417,447.183 375,441.5C 372.873,436.355 372.206,431.022 373,425.5C 374.569,426.122 376.236,426.456 378,426.5C 380.544,426.664 382.71,425.997 384.5,424.5 Z"/></g>
<g><path style="opacity:1" fill="#e7d4a2" d="M 1417.5,424.5 C 1434.07,423.579 1442.24,431.245 1442,447.5C 1435.82,460.174 1425.66,466.007 1411.5,465C 1398.42,458.376 1394.92,448.543 1401,435.5C 1405.67,430.284 1411.17,426.618 1417.5,424.5 Z"/></g>
<g><path style="opacity:1" fill="#95b9e0" d="M 608.5,426.5 C 586.5,426.5 564.5,426.5 542.5,426.5C 556.489,425.416 570.655,424.749 585,424.5C 593.06,424.307 600.893,424.973 608.5,426.5 Z"/></g>
<g><path style="opacity:1" fill="#a0badd" d="M 333.5,425.5 C 334.043,425.56 334.376,425.893 334.5,426.5C 313.511,427.5 292.511,427.833 271.5,427.5C 292.167,426.833 312.833,426.167 333.5,425.5 Z"/></g>
<g><path style="opacity:1" fill="#a7c7e6" d="M 805.5,439.5 C 811.206,439.171 816.872,439.505 822.5,440.5C 823.541,442.585 825.041,444.252 827,445.5C 827.441,448.939 829.108,451.606 832,453.5C 832.441,456.939 834.108,459.606 837,461.5C 837.236,463.811 838.069,465.811 839.5,467.5C 770.492,467.445 701.492,468.111 632.5,469.5C 627.305,460.279 621.971,451.112 616.5,442C 617.056,441.617 617.389,441.117 617.5,440.5C 680.172,440.736 742.839,440.402 805.5,439.5 Z"/></g>
<g><path style="opacity:1" fill="#88aedf" d="M 805.5,439.5 C 814.661,438.834 823.994,438.5 833.5,438.5C 891.167,439.25 948.833,439.917 1006.5,440.5C 1007.49,443.146 1008.49,445.812 1009.5,448.5C 1013.65,455.616 1017.98,462.616 1022.5,469.5C 961.501,468.781 900.501,468.115 839.5,467.5C 838.069,465.811 837.236,463.811 837,461.5C 834.108,459.606 832.441,456.939 832,453.5C 829.108,451.606 827.441,448.939 827,445.5C 825.041,444.252 823.541,442.585 822.5,440.5C 816.872,439.505 811.206,439.171 805.5,439.5 Z"/></g>
<g><path style="opacity:1" fill="#a6c6e5" d="M 240.5,440.5 C 282.495,441.103 324.495,441.77 366.5,442.5C 369.233,449.743 374.4,453.743 382,454.5C 390.511,454.591 395.845,450.591 398,442.5C 399.011,441.663 400.178,441.33 401.5,441.5C 407.421,451.673 413.087,462.006 418.5,472.5C 367.536,473.456 316.536,474.456 265.5,475.5C 258.658,475.5 251.991,475.166 245.5,474.5C 248.518,474.665 251.518,474.498 254.5,474C 248.618,462.734 242.952,451.567 237.5,440.5C 238.5,440.5 239.5,440.5 240.5,440.5 Z"/></g>
<g><path style="opacity:1" fill="#88aedf" d="M 617.5,440.5 C 617.389,441.117 617.056,441.617 616.5,442C 621.971,451.112 627.305,460.279 632.5,469.5C 561.172,470.862 489.839,471.862 418.5,472.5C 413.087,462.006 407.421,451.673 401.5,441.5C 473.499,440.941 545.499,440.608 617.5,440.5 Z"/></g>
<g><path style="opacity:1" fill="#a7c7e6" d="M 1006.5,440.5 C 1072.5,441.281 1138.5,441.614 1204.5,441.5C 1204.33,442.492 1204.66,443.158 1205.5,443.5C 1210.77,452.379 1215.77,461.379 1220.5,470.5C 1201.01,471.497 1181.34,471.83 1161.5,471.5C 1115.16,471.294 1068.83,470.627 1022.5,469.5C 1017.98,462.616 1013.65,455.616 1009.5,448.5C 1008.49,445.812 1007.49,443.146 1006.5,440.5 Z"/></g>
<g><path style="opacity:1" fill="#89afe1" d="M 1220.5,470.5 C 1215.77,461.379 1210.77,452.379 1205.5,443.5C 1213.99,442.343 1222.66,442.176 1231.5,443C 1240.14,452.637 1249.14,461.97 1258.5,471C 1245.99,470.849 1233.32,470.682 1220.5,470.5 Z"/></g>
<g><path style="opacity:1" fill="#a8a2e7" d="M 1467.5,448.5 C 1475.52,448.896 1482.69,451.563 1489,456.5C 1496.71,472.695 1492.21,484.195 1475.5,491C 1451.87,491.571 1444.04,480.738 1452,458.5C 1456.26,453.473 1461.42,450.14 1467.5,448.5 Z"/></g>
<g><path style="opacity:1" fill="#87a9cd" d="M 1204.5,441.5 C 1213.5,441.5 1222.5,441.5 1231.5,441.5C 1241.12,451.453 1250.78,461.453 1260.5,471.5C 1227.34,472.83 1194.34,472.83 1161.5,471.5C 1181.34,471.83 1201.01,471.497 1220.5,470.5C 1233.32,470.682 1245.99,470.849 1258.5,471C 1249.14,461.97 1240.14,452.637 1231.5,443C 1222.66,442.176 1213.99,442.343 1205.5,443.5C 1204.66,443.158 1204.33,442.492 1204.5,441.5 Z"/></g>
<g><path style="opacity:1" fill="#efdddd" d="M 1318.5,475.5 C 1332.28,481.151 1346.28,486.318 1360.5,491C 1400.34,503.058 1440.01,515.724 1479.5,529C 1482.45,537.234 1486.45,544.9 1491.5,552C 1488.03,550.934 1484.7,549.267 1481.5,547C 1423.6,530.921 1366.6,512.254 1310.5,491C 1309.55,490.282 1309.38,489.449 1310,488.5C 1313.35,484.451 1316.19,480.118 1318.5,475.5 Z"/></g>
</svg>
