<?xml version="1.0" encoding="UTF-8"?>
<!DOCTYPE svg PUBLIC "-//W3C//DTD SVG 1.1//EN" "http://www.w3.org/Graphics/SVG/1.1/DTD/svg11.dtd">
<svg xmlns="http://www.w3.org/2000/svg" version="1.1" width="1633px" height="559px" style="shape-rendering:geometricPrecision; text-rendering:geometricPrecision; image-rendering:optimizeQuality; fill-rule:evenodd; clip-rule:evenodd" xmlns:xlink="http://www.w3.org/1999/xlink">
<g><path style="opacity:1" fill="#514b4b" d="M 61.5,-0.5 C 67.1667,-0.5 72.8333,-0.5 78.5,-0.5C 93.7995,5.26914 107.8,13.4358 120.5,24C 135.746,35.9116 148.913,49.7449 160,65.5C 162.401,64.3977 164.901,64.231 167.5,65C 179.04,68.5198 189.54,74.0198 199,81.5C 203.232,79.8584 207.565,78.5251 212,77.5C 217.164,78.4506 221.831,80.4506 226,83.5C 261.49,72.2735 297.657,69.1068 334.5,74C 342.634,75.7408 350.301,78.5741 357.5,82.5C 357.389,83.1174 357.056,83.6174 356.5,84C 360.866,87.5119 364.199,91.6786 366.5,96.5C 367.953,99.3531 369.119,102.353 370,105.5C 370.5,111.825 370.666,118.158 370.5,124.5C 369.508,129.712 368.508,135.046 367.5,140.5C 359.868,168.103 349.702,194.77 337,220.5C 331.982,230.094 324.149,235.928 313.5,238C 298.697,240.216 285.03,237.216 272.5,229C 244.89,211.69 218.89,192.19 194.5,170.5C 188.61,175.027 182.277,175.694 175.5,172.5C 170.076,166.611 163.743,165.277 156.5,168.5C 151.12,169.995 145.787,169.828 140.5,168C 136.833,165.833 133.167,163.667 129.5,161.5C 125.229,163.637 120.895,165.304 116.5,166.5C 108.356,166.015 100.356,166.682 92.5,168.5C 68.4058,168.358 44.7391,165.191 21.5,159C 7.83805,154.194 0.504714,144.694 -0.5,130.5C -0.5,128.167 -0.5,125.833 -0.5,123.5C 2.03749,83.05 15.5375,46.7167 40,14.5C 45.818,7.35937 52.9846,2.35937 61.5,-0.5 Z"/></g>
<g><path style="opacity:1" fill="#6f696e" d="M 81.5,13.5 C 79.5491,14.7158 78.0491,16.3825 77,18.5C 73.4018,24.4846 69.9018,30.4846 66.5,36.5C 59.3824,33.5527 52.0491,31.2193 44.5,29.5C 49.0735,22.1735 55.0735,16.3402 62.5,12C 65.6262,11.2414 68.7928,10.7414 72,10.5C 75.6104,10.427 78.777,11.427 81.5,13.5 Z"/></g>
<g><path style="opacity:1" fill="#5d575d" d="M 81.5,13.5 C 83.5529,13.4021 85.2196,14.0687 86.5,15.5C 83.3232,23.8504 79.9899,32.1837 76.5,40.5C 74.4443,44.3328 72.7776,48.3328 71.5,52.5C 67.6092,59.4738 64.2759,66.8071 61.5,74.5C 59.9651,78.4379 58.6318,82.4379 57.5,86.5C 53.2086,95.3661 49.8753,104.699 47.5,114.5C 46.1906,118.404 45.1906,122.404 44.5,126.5C 43.1473,134.574 41.1473,142.574 38.5,150.5C 33.7535,150.161 29.4202,148.828 25.5,146.5C 27.139,139.944 28.8057,133.277 30.5,126.5C 31.371,122.818 32.371,119.152 33.5,115.5C 37.3653,104.17 41.3653,93.1703 45.5,82.5C 46.2824,78.9368 47.6157,75.6035 49.5,72.5C 53.7389,64.3533 57.7389,56.0199 61.5,47.5C 62.8951,43.7099 64.5617,40.0432 66.5,36.5C 69.9018,30.4846 73.4018,24.4846 77,18.5C 78.0491,16.3825 79.5491,14.7158 81.5,13.5 Z"/></g>
<g><path style="opacity:1" fill="#706a6f" d="M 86.5,15.5 C 93.5443,19.3489 100.211,23.6822 106.5,28.5C 103.702,29.7063 101.535,31.7063 100,34.5C 97.4731,38.8961 94.9731,43.2295 92.5,47.5C 87.1667,45.1667 81.8333,42.8333 76.5,40.5C 79.9899,32.1837 83.3232,23.8504 86.5,15.5 Z"/></g>
<g><path style="opacity:1" fill="#a7a1a7" d="M 106.5,28.5 C 108.525,30.1964 110.525,31.863 112.5,33.5C 109.243,39.6814 106.243,46.0148 103.5,52.5C 101.452,56.9262 99.1184,61.2595 96.5,65.5C 94.1667,70.8333 91.8333,76.1667 89.5,81.5C 86.9884,85.8662 84.9884,90.5329 83.5,95.5C 80.3978,101.802 78.0644,108.469 76.5,115.5C 74.9253,120.345 73.592,125.345 72.5,130.5C 70.3385,137.446 68.0052,144.446 65.5,151.5C 62.5719,152.484 59.5719,152.817 56.5,152.5C 56.1667,152.5 55.8333,152.5 55.5,152.5C 55.2102,145.62 56.2102,138.954 58.5,132.5C 60.1312,126.591 61.7978,120.591 63.5,114.5C 65.6357,107.426 67.969,100.426 70.5,93.5C 72.4328,88.0502 74.7662,82.7169 77.5,77.5C 80.1511,72.1978 82.8178,66.8644 85.5,61.5C 87.2681,56.6303 89.6015,51.9637 92.5,47.5C 94.9731,43.2295 97.4731,38.8961 100,34.5C 101.535,31.7063 103.702,29.7063 106.5,28.5 Z"/></g>
<g><path style="opacity:1" fill="#948d94" d="M 44.5,29.5 C 52.0491,31.2193 59.3824,33.5527 66.5,36.5C 64.5617,40.0432 62.8951,43.7099 61.5,47.5C 53.1204,46.3076 45.7871,42.9743 39.5,37.5C 41.1667,34.8333 42.8333,32.1667 44.5,29.5 Z"/></g>
<g><path style="opacity:1" fill="#706a70" d="M 112.5,33.5 C 118.155,37.823 123.488,42.4897 128.5,47.5C 125.876,53.719 122.876,59.719 119.5,65.5C 119.719,64.325 119.386,63.325 118.5,62.5C 113.262,59.3914 108.262,56.058 103.5,52.5C 106.243,46.0148 109.243,39.6814 112.5,33.5 Z"/></g>
<g><path style="opacity:1" fill="#6f6a6f" d="M 39.5,37.5 C 45.7871,42.9743 53.1204,46.3076 61.5,47.5C 57.7389,56.0199 53.7389,64.3533 49.5,72.5C 49.3893,71.8826 49.056,71.3826 48.5,71C 40.5355,69.5051 32.5355,68.3384 24.5,67.5C 28.4627,56.908 33.4627,46.908 39.5,37.5 Z"/></g>
<g><path style="opacity:1" fill="#948d94" d="M 76.5,40.5 C 81.8333,42.8333 87.1667,45.1667 92.5,47.5C 89.6015,51.9637 87.2681,56.6303 85.5,61.5C 85.719,60.325 85.3857,59.325 84.5,58.5C 80.0991,56.4853 75.7657,54.4853 71.5,52.5C 72.7776,48.3328 74.4443,44.3328 76.5,40.5 Z"/></g>
<g><path style="opacity:1" fill="#5d575d" d="M 128.5,47.5 C 131.764,49.0941 134.431,51.4275 136.5,54.5C 133.4,60.1204 131.067,66.1204 129.5,72.5C 128.216,75.4018 127.216,78.4018 126.5,81.5C 124.416,84.8013 123.082,88.468 122.5,92.5C 120.572,96.2847 119.238,100.285 118.5,104.5C 116.043,111.446 113.709,118.446 111.5,125.5C 110.525,128.067 109.858,130.733 109.5,133.5C 107.547,139.98 105.88,146.646 104.5,153.5C 95.0088,154.626 85.6755,154.626 76.5,153.5C 81.5,153.5 86.5,153.5 91.5,153.5C 92.8541,145.783 94.5207,138.116 96.5,130.5C 96.7556,127.402 97.4222,124.402 98.5,121.5C 101.128,115.017 103.461,108.35 105.5,101.5C 106.27,97.2974 107.604,93.2974 109.5,89.5C 112.652,84.7756 114.652,79.7756 115.5,74.5C 116.559,71.3821 117.892,68.3821 119.5,65.5C 122.876,59.719 125.876,53.719 128.5,47.5 Z"/></g>
<g><path style="opacity:1" fill="#706b70" d="M 71.5,52.5 C 75.7657,54.4853 80.0991,56.4853 84.5,58.5C 85.3857,59.325 85.719,60.325 85.5,61.5C 82.8178,66.8644 80.1511,72.1978 77.5,77.5C 72.2266,76.1817 66.8933,75.1817 61.5,74.5C 64.2759,66.8071 67.6092,59.4738 71.5,52.5 Z"/></g>
<g><path style="opacity:1" fill="#958e95" d="M 103.5,52.5 C 108.262,56.058 113.262,59.3914 118.5,62.5C 119.386,63.325 119.719,64.325 119.5,65.5C 117.892,68.3821 116.559,71.3821 115.5,74.5C 109.056,71.7787 102.723,68.7787 96.5,65.5C 99.1184,61.2595 101.452,56.9262 103.5,52.5 Z"/></g>
<g><path style="opacity:1" fill="#6f696e" d="M 136.5,54.5 C 142.849,59.849 148.515,65.849 153.5,72.5C 150.869,76.7675 148.536,81.1008 146.5,85.5C 142.383,80.5522 137.717,76.0522 132.5,72C 131.423,71.5304 130.423,71.6971 129.5,72.5C 131.067,66.1204 133.4,60.1204 136.5,54.5 Z"/></g>
<g><path style="opacity:1" fill="#716b70" d="M 96.5,65.5 C 102.723,68.7787 109.056,71.7787 115.5,74.5C 114.652,79.7756 112.652,84.7756 109.5,89.5C 109.423,88.2502 108.756,87.4169 107.5,87C 101.557,84.8514 95.5571,83.018 89.5,81.5C 91.8333,76.1667 94.1667,70.8333 96.5,65.5 Z"/></g>
<g><path style="opacity:1" fill="#938d93" d="M 24.5,67.5 C 32.5355,68.3384 40.5355,69.5051 48.5,71C 49.056,71.3826 49.3893,71.8826 49.5,72.5C 47.6157,75.6035 46.2824,78.9368 45.5,82.5C 37.5363,80.6847 29.8696,78.018 22.5,74.5C 22.767,72.0347 23.4336,69.7014 24.5,67.5 Z"/></g>
<g><path style="opacity:1" fill="#938d93" d="M 146.5,85.5 C 145.677,87.9872 144.677,90.3206 143.5,92.5C 137.655,89.0794 131.988,85.4128 126.5,81.5C 127.216,78.4018 128.216,75.4018 129.5,72.5C 130.423,71.6971 131.423,71.5304 132.5,72C 137.717,76.0522 142.383,80.5522 146.5,85.5 Z"/></g>
<g><path style="opacity:1" fill="#948d94" d="M 61.5,74.5 C 66.8933,75.1817 72.2266,76.1817 77.5,77.5C 74.7662,82.7169 72.4328,88.0502 70.5,93.5C 70.5,92.5 70.5,91.5 70.5,90.5C 65.8354,89.9431 61.5021,88.6098 57.5,86.5C 58.6318,82.4379 59.9651,78.4379 61.5,74.5 Z"/></g>
<g><path style="opacity:1" fill="#6f6a6f" d="M 22.5,74.5 C 29.8696,78.018 37.5363,80.6847 45.5,82.5C 41.3653,93.1703 37.3653,104.17 33.5,115.5C 26.9131,113.539 19.9131,112.872 12.5,113.5C 14.5815,100.062 17.9148,87.0617 22.5,74.5 Z"/></g>
<g><path style="opacity:1" fill="#938c93" d="M 205.5,130.5 C 204.824,122.628 203.991,114.628 203,106.5C 201.939,103.438 200.106,100.938 197.5,99C 190.907,99.9634 184.241,100.297 177.5,100C 175.65,97.9824 173.65,96.1491 171.5,94.5C 163.45,98.7142 156.783,104.548 151.5,112C 150.251,112.74 149.251,112.573 148.5,111.5C 151.651,98.5405 156.651,86.3738 163.5,75C 166.244,75.0192 168.911,75.6859 171.5,77C 177.167,80.5 182.833,84 188.5,87.5C 187.167,89.1667 185.833,90.8333 184.5,92.5C 184.709,93.086 185.043,93.586 185.5,94C 188.5,94.6667 191.5,94.6667 194.5,94C 201.062,91.2189 207.729,88.7189 214.5,86.5C 215.647,86.8178 216.481,87.4844 217,88.5C 217.667,92.1667 217.667,95.8333 217,99.5C 213.453,109.978 209.62,120.311 205.5,130.5 Z"/></g>
<g><path style="opacity:1" fill="#636364" d="M 1593.5,336.5 C 1588.84,331.845 1583.84,327.512 1578.5,323.5C 1591.44,243.145 1565.77,177.979 1501.5,128C 1487.55,118.189 1472.55,110.189 1456.5,104C 1443.31,101.127 1429.98,99.1267 1416.5,98C 1399.84,97.2182 1383.17,96.7182 1366.5,96.5C 1306.5,95.5975 1246.5,94.9308 1186.5,94.5C 1128.34,93.0398 1070,92.0398 1011.5,91.5C 949.317,90.9737 887.151,89.6404 825,87.5C 817.154,87.6724 809.321,88.0057 801.5,88.5C 735.157,89.7779 668.824,91.1112 602.5,92.5C 531.788,92.8183 461.121,93.8183 390.5,95.5C 382.316,95.1743 374.316,95.5076 366.5,96.5C 364.199,91.6786 360.866,87.5119 356.5,84C 357.056,83.6174 357.389,83.1174 357.5,82.5C 481.562,80.5017 605.395,78.1684 729,75.5C 794.948,76.628 860.948,76.628 927,75.5C 1057.12,78.1133 1187.78,80.7799 1319,83.5C 1347.01,82.7374 1375.51,82.5707 1404.5,83C 1451.58,81.8035 1492.92,96.4701 1528.5,127C 1589.66,184.324 1611.33,254.157 1593.5,336.5 Z"/></g>
<g><path style="opacity:1" fill="#948e94" d="M 89.5,81.5 C 95.5571,83.018 101.557,84.8514 107.5,87C 108.756,87.4169 109.423,88.2502 109.5,89.5C 107.604,93.2974 106.27,97.2974 105.5,101.5C 98.0102,100.115 90.6769,98.1151 83.5,95.5C 84.9884,90.5329 86.9884,85.8662 89.5,81.5 Z"/></g>
<g><path style="opacity:1" fill="#6f6a6f" d="M 294.5,82.5 C 293.349,86.7723 292.349,91.1057 291.5,95.5C 283.586,96.4672 275.586,96.8005 267.5,96.5C 267.833,92.5 268.167,88.5 268.5,84.5C 277.085,82.9216 285.751,82.2549 294.5,82.5 Z"/></g>
<g><path style="opacity:1" fill="#a6a0a7" d="M 294.5,82.5 C 297.167,82.5 299.833,82.5 302.5,82.5C 303.644,87.4461 303.644,92.4461 302.5,97.5C 302.038,103.273 301.038,108.939 299.5,114.5C 298.039,121.14 296.705,127.806 295.5,134.5C 294.125,140.613 292.125,146.613 289.5,152.5C 287.5,158.833 285.5,165.167 283.5,171.5C 281.332,177.098 278.998,182.764 276.5,188.5C 274.545,194.411 272.045,200.077 269,205.5C 267.223,207.79 265.056,209.457 262.5,210.5C 259.833,208.833 257.167,207.167 254.5,205.5C 254.838,203.146 255.338,200.813 256,198.5C 259.041,193.752 261.541,188.752 263.5,183.5C 265.246,177.595 267.58,171.928 270.5,166.5C 272.496,160.178 274.496,153.845 276.5,147.5C 277.937,142.522 279.604,137.522 281.5,132.5C 283.457,126.25 285.124,119.917 286.5,113.5C 288.349,107.58 290.016,101.58 291.5,95.5C 292.349,91.1057 293.349,86.7723 294.5,82.5 Z"/></g>
<g><path style="opacity:1" fill="#6f6a6f" d="M 302.5,82.5 C 310.918,82.2832 319.251,82.9499 327.5,84.5C 325.69,89.6961 324.19,95.0294 323,100.5C 322.617,101.056 322.117,101.389 321.5,101.5C 321.5,100.5 321.5,99.5 321.5,98.5C 315.171,98.1005 308.838,97.7671 302.5,97.5C 303.644,92.4461 303.644,87.4461 302.5,82.5 Z"/></g>
<g><path style="opacity:1" fill="#706b70" d="M 126.5,81.5 C 131.988,85.4128 137.655,89.0794 143.5,92.5C 142.68,96.7755 141.347,100.776 139.5,104.5C 138.797,102.284 137.464,100.451 135.5,99C 131.303,96.5464 126.97,94.3798 122.5,92.5C 123.082,88.468 124.416,84.8013 126.5,81.5 Z"/></g>
<g><path style="opacity:1" fill="#5d575d" d="M 268.5,84.5 C 268.167,88.5 267.833,92.5 267.5,96.5C 266.249,100.418 265.249,104.418 264.5,108.5C 263.486,115.222 261.819,121.889 259.5,128.5C 258.812,132.584 257.812,136.584 256.5,140.5C 253.804,146.238 251.47,152.238 249.5,158.5C 247.833,163.167 246.167,167.833 244.5,172.5C 241.731,176.597 239.231,180.93 237,185.5C 235.961,186.71 234.794,187.71 233.5,188.5C 229.94,185.982 226.274,183.649 222.5,181.5C 225.413,175.884 228.413,170.218 231.5,164.5C 232.282,160.937 233.616,157.603 235.5,154.5C 238.593,148.904 240.926,142.904 242.5,136.5C 243.658,133.011 244.991,129.678 246.5,126.5C 248.036,121.536 249.703,116.202 251.5,110.5C 252.636,106.426 253.969,102.426 255.5,98.5C 256.636,94.7004 257.969,90.8671 259.5,87C 258.906,86.5357 258.239,86.369 257.5,86.5C 261.021,85.6931 264.688,85.0264 268.5,84.5 Z"/></g>
<g><path style="opacity:1" fill="#5d575d" d="M 327.5,84.5 C 330.428,84.5651 333.095,85.2318 335.5,86.5C 334.479,90.9804 333.813,95.647 333.5,100.5C 332.704,105.147 332.037,109.814 331.5,114.5C 328.93,125.07 326.264,135.736 323.5,146.5C 323.007,151.299 322.007,155.965 320.5,160.5C 319.869,162.448 318.869,164.281 317.5,166C 318.458,167.147 318.125,168.147 316.5,169C 316.833,169.333 317.167,169.667 317.5,170C 315.357,176.955 313.024,183.455 310.5,189.5C 308.547,193.737 306.88,198.07 305.5,202.5C 300.658,210.182 296.324,218.182 292.5,226.5C 288.749,225.027 285.083,223.36 281.5,221.5C 285.063,212.744 288.73,204.411 292.5,196.5C 293.774,191.677 295.441,187.01 297.5,182.5C 298.131,180.552 299.131,178.719 300.5,177C 299.542,175.853 299.875,174.853 301.5,174C 301.167,173.667 300.833,173.333 300.5,173C 302.828,167.285 304.828,161.785 306.5,156.5C 307.427,151.387 308.76,146.387 310.5,141.5C 311.851,138.977 313.017,136.311 314,133.5C 315.71,127.254 317.21,120.92 318.5,114.5C 319.707,110.213 320.707,105.88 321.5,101.5C 322.117,101.389 322.617,101.056 323,100.5C 324.19,95.0294 325.69,89.6961 327.5,84.5 Z"/></g>
<g><path style="opacity:1" fill="#6f6a6f" d="M 257.5,86.5 C 258.239,86.369 258.906,86.5357 259.5,87C 257.969,90.8671 256.636,94.7004 255.5,98.5C 252.854,97.8356 250.021,97.5022 247,97.5C 240.127,97.8393 233.294,98.5059 226.5,99.5C 227.299,96.5701 227.632,93.5701 227.5,90.5C 237.567,89.6333 247.567,88.2999 257.5,86.5 Z"/></g>
<g><path style="opacity:1" fill="#6f6a6f" d="M 335.5,86.5 C 345.769,88.0422 353.269,93.3755 358,102.5C 358.813,104.436 359.313,106.436 359.5,108.5C 351.559,103.678 342.892,101.012 333.5,100.5C 333.813,95.647 334.479,90.9804 335.5,86.5 Z"/></g>
<g><path style="opacity:1" fill="#706a70" d="M 57.5,86.5 C 61.5021,88.6098 65.8354,89.9431 70.5,90.5C 70.5,91.5 70.5,92.5 70.5,93.5C 67.969,100.426 65.6357,107.426 63.5,114.5C 58.1667,114.5 52.8333,114.5 47.5,114.5C 49.8753,104.699 53.2086,95.3661 57.5,86.5 Z"/></g>
<g><path style="opacity:1" fill="#a7c7e6" d="M 1011.5,91.5 C 1011.39,92.1174 1011.06,92.6174 1010.5,93C 1012.83,96.5091 1015.49,99.6758 1018.5,102.5C 1019.98,107.455 1022.48,111.788 1026,115.5C 1027,118.962 1028.17,122.296 1029.5,125.5C 980.833,125.5 932.167,125.5 883.5,125.5C 859.337,124.668 835.003,124.168 810.5,124C 803.394,112.719 796.06,101.552 788.5,90.5C 792.982,89.8331 797.316,89.1664 801.5,88.5C 809.321,88.0057 817.154,87.6724 825,87.5C 887.151,89.6404 949.317,90.9737 1011.5,91.5 Z"/></g>
<g><path style="opacity:1" fill="#88aedf" d="M 801.5,88.5 C 797.316,89.1664 792.982,89.8331 788.5,90.5C 796.06,101.552 803.394,112.719 810.5,124C 835.003,124.168 859.337,124.668 883.5,125.5C 796.5,125.5 709.5,125.5 622.5,125.5C 617.12,113.744 610.454,102.744 602.5,92.5C 668.824,91.1112 735.157,89.7779 801.5,88.5 Z"/></g>
<g><path style="opacity:1" fill="#88aedf" d="M 1011.5,91.5 C 1070,92.0398 1128.34,93.0398 1186.5,94.5C 1193.21,103.541 1199.71,112.874 1206,122.5C 1206.48,123.448 1206.65,124.448 1206.5,125.5C 1147.5,125.5 1088.5,125.5 1029.5,125.5C 1028.17,122.296 1027,118.962 1026,115.5C 1022.48,111.788 1019.98,107.455 1018.5,102.5C 1015.49,99.6758 1012.83,96.5091 1010.5,93C 1011.06,92.6174 1011.39,92.1174 1011.5,91.5 Z"/></g>
<g><path style="opacity:1" fill="#948d94" d="M 122.5,92.5 C 126.97,94.3798 131.303,96.5464 135.5,99C 137.464,100.451 138.797,102.284 139.5,104.5C 138.488,107.252 137.488,109.919 136.5,112.5C 130.669,111.725 125.002,110.225 119.5,108C 118.663,106.989 118.33,105.822 118.5,104.5C 119.238,100.285 120.572,96.2847 122.5,92.5 Z"/></g>
<g><path style="opacity:1" fill="#a7c6e6" d="M 602.5,92.5 C 610.454,102.744 617.12,113.744 622.5,125.5C 552.5,125.5 482.5,125.5 412.5,125.5C 405.328,115.052 397.995,105.052 390.5,95.5C 461.121,93.8183 531.788,92.8183 602.5,92.5 Z"/></g>
<g><path style="opacity:1" fill="#a7c7e6" d="M 1186.5,94.5 C 1246.5,94.9308 1306.5,95.5975 1366.5,96.5C 1373.13,103.731 1379.29,111.398 1385,119.5C 1386.56,121.217 1387.39,123.217 1387.5,125.5C 1376.83,125.5 1366.17,125.5 1355.5,125.5C 1305.83,125.5 1256.17,125.5 1206.5,125.5C 1206.65,124.448 1206.48,123.448 1206,122.5C 1199.71,112.874 1193.21,103.541 1186.5,94.5 Z"/></g>
<g><path style="opacity:1" fill="#706b70" d="M 83.5,95.5 C 90.6769,98.1151 98.0102,100.115 105.5,101.5C 103.461,108.35 101.128,115.017 98.5,121.5C 98.5,120.5 98.5,119.5 98.5,118.5C 90.9444,118.14 83.611,117.14 76.5,115.5C 78.0644,108.469 80.3978,101.802 83.5,95.5 Z"/></g>
<g><path style="opacity:1" fill="#706a70" d="M 205.5,130.5 C 204.271,134.387 202.604,138.053 200.5,141.5C 195.302,143.133 189.969,143.633 184.5,143C 179.353,139.011 173.52,136.844 167,136.5C 161.44,137.876 155.94,139.543 150.5,141.5C 148.701,141.423 147.034,140.923 145.5,140C 144.672,138.008 143.339,136.508 141.5,135.5C 143.231,127.227 145.565,119.227 148.5,111.5C 149.251,112.573 150.251,112.74 151.5,112C 156.783,104.548 163.45,98.7142 171.5,94.5C 173.65,96.1491 175.65,97.9824 177.5,100C 184.241,100.297 190.907,99.9634 197.5,99C 200.106,100.938 201.939,103.438 203,106.5C 203.991,114.628 204.824,122.628 205.5,130.5 Z"/></g>
<g><path style="opacity:1" fill="#88aedf" d="M 390.5,95.5 C 397.995,105.052 405.328,115.052 412.5,125.5C 398.323,125.829 384.323,125.496 370.5,124.5C 370.666,118.158 370.5,111.825 370,105.5C 369.119,102.353 367.953,99.3531 366.5,96.5C 374.316,95.5076 382.316,95.1743 390.5,95.5 Z"/></g>
<g><path style="opacity:1" fill="#948d94" d="M 255.5,98.5 C 253.969,102.426 252.636,106.426 251.5,110.5C 243.16,110.666 234.827,110.5 226.5,110C 225.244,109.583 224.577,108.75 224.5,107.5C 225.043,104.782 225.709,102.115 226.5,99.5C 233.294,98.5059 240.127,97.8393 247,97.5C 250.021,97.5022 252.854,97.8356 255.5,98.5 Z"/></g>
<g><path style="opacity:1" fill="#948d94" d="M 291.5,95.5 C 290.016,101.58 288.349,107.58 286.5,113.5C 279.576,111.537 272.243,110.87 264.5,111.5C 264.5,110.5 264.5,109.5 264.5,108.5C 265.249,104.418 266.249,100.418 267.5,96.5C 275.586,96.8005 283.586,96.4672 291.5,95.5 Z"/></g>
<g><path style="opacity:1" fill="#958e95" d="M 302.5,97.5 C 308.838,97.7671 315.171,98.1005 321.5,98.5C 321.5,99.5 321.5,100.5 321.5,101.5C 320.707,105.88 319.707,110.213 318.5,114.5C 312.11,113.363 305.777,113.363 299.5,114.5C 301.038,108.939 302.038,103.273 302.5,97.5 Z"/></g>
<g><path style="opacity:1" fill="#88aedf" d="M 1366.5,96.5 C 1383.17,96.7182 1399.84,97.2182 1416.5,98C 1429.98,99.1267 1443.31,101.127 1456.5,104C 1472.55,110.189 1487.55,118.189 1501.5,128C 1565.77,177.979 1591.44,243.145 1578.5,323.5C 1565.7,317.937 1553.04,318.27 1540.5,324.5C 1550.73,274.884 1542.57,228.884 1516,186.5C 1507.65,174.312 1497.48,163.979 1485.5,155.5C 1488.81,151.521 1492.48,147.854 1496.5,144.5C 1498.04,141.709 1497.71,139.209 1495.5,137C 1470.75,139.563 1448.41,133.563 1428.5,119C 1423.83,113.667 1419.17,108.333 1414.5,103C 1412.17,102.333 1409.83,102.333 1407.5,103C 1406.98,103.561 1406.64,104.228 1406.5,105C 1409.41,111.887 1410.74,119.053 1410.5,126.5C 1391.99,126.83 1373.66,126.497 1355.5,125.5C 1366.17,125.5 1376.83,125.5 1387.5,125.5C 1387.39,123.217 1386.56,121.217 1385,119.5C 1379.29,111.398 1373.13,103.731 1366.5,96.5 Z"/></g>
<g><path style="opacity:1" fill="#948d94" d="M 333.5,100.5 C 342.892,101.012 351.559,103.678 359.5,108.5C 360.479,111.625 360.813,114.958 360.5,118.5C 350.793,119.906 341.126,119.572 331.5,117.5C 331.5,116.5 331.5,115.5 331.5,114.5C 332.037,109.814 332.704,105.147 333.5,100.5 Z"/></g>
<g><path style="opacity:1" fill="#e6a9bb" d="M 1485.5,155.5 C 1481.43,158.563 1478.1,162.229 1475.5,166.5C 1469.64,172.889 1465.14,180.222 1462,188.5C 1460.18,198.442 1458.85,208.442 1458,218.5C 1454.68,224.818 1450.68,225.151 1446,219.5C 1442.08,214.004 1438.42,208.337 1435,202.5C 1427.28,193.785 1417.78,187.952 1406.5,185C 1395.86,183.971 1385.19,183.304 1374.5,183C 1371.51,180.859 1370.34,178.025 1371,174.5C 1378.41,169.21 1385.91,164.043 1393.5,159C 1399.22,154.467 1403.55,148.967 1406.5,142.5C 1407.34,142.158 1407.67,141.492 1407.5,140.5C 1410.09,136.307 1411.09,131.64 1410.5,126.5C 1410.74,119.053 1409.41,111.887 1406.5,105C 1406.64,104.228 1406.98,103.561 1407.5,103C 1409.83,102.333 1412.17,102.333 1414.5,103C 1419.17,108.333 1423.83,113.667 1428.5,119C 1448.41,133.563 1470.75,139.563 1495.5,137C 1497.71,139.209 1498.04,141.709 1496.5,144.5C 1492.48,147.854 1488.81,151.521 1485.5,155.5 Z"/></g>
<g><path style="opacity:1" fill="#706b70" d="M 118.5,104.5 C 118.33,105.822 118.663,106.989 119.5,108C 125.002,110.225 130.669,111.725 136.5,112.5C 134.669,118.659 132.669,124.659 130.5,130.5C 130.426,128.589 129.426,127.422 127.5,127C 122.554,125.184 117.554,123.684 112.5,122.5C 112.737,123.791 112.404,124.791 111.5,125.5C 113.709,118.446 116.043,111.446 118.5,104.5 Z"/></g>
<g><path style="opacity:1" fill="#948d94" d="M 174.5,106.5 C 179.705,106.134 184.705,106.967 189.5,109C 191.734,114.781 189.734,118.114 183.5,119C 178.743,119.81 174.076,119.476 169.5,118C 165.831,111.858 167.497,108.025 174.5,106.5 Z"/></g>
<g><path style="opacity:1" fill="#706b70" d="M 224.5,107.5 C 224.577,108.75 225.244,109.583 226.5,110C 234.827,110.5 243.16,110.666 251.5,110.5C 249.703,116.202 248.036,121.536 246.5,126.5C 246.389,125.883 246.056,125.383 245.5,125C 236.925,123.18 228.259,122.346 219.5,122.5C 220.595,117.216 222.261,112.216 224.5,107.5 Z"/></g>
<g><path style="opacity:1" fill="#706b70" d="M 264.5,108.5 C 264.5,109.5 264.5,110.5 264.5,111.5C 272.243,110.87 279.576,111.537 286.5,113.5C 285.124,119.917 283.457,126.25 281.5,132.5C 274.171,131.168 266.837,129.835 259.5,128.5C 261.819,121.889 263.486,115.222 264.5,108.5 Z"/></g>
<g><path style="opacity:1" fill="#948d94" d="M 12.5,113.5 C 19.9131,112.872 26.9131,113.539 33.5,115.5C 32.371,119.152 31.371,122.818 30.5,126.5C 24.4707,126.575 18.4707,126.241 12.5,125.5C 12.5,122.833 12.5,120.167 12.5,117.5C 12.5,116.167 12.5,114.833 12.5,113.5 Z"/></g>
<g><path style="opacity:1" fill="#706b70" d="M 318.5,114.5 C 317.21,120.92 315.71,127.254 314,133.5C 313.017,136.311 311.851,138.977 310.5,141.5C 305.5,140.167 300.5,138.833 295.5,137.5C 295.5,136.5 295.5,135.5 295.5,134.5C 296.705,127.806 298.039,121.14 299.5,114.5C 305.777,113.363 312.11,113.363 318.5,114.5 Z"/></g>
<g><path style="opacity:1" fill="#948e94" d="M 47.5,114.5 C 52.8333,114.5 58.1667,114.5 63.5,114.5C 61.7978,120.591 60.1312,126.591 58.5,132.5C 58.5,131.167 58.5,129.833 58.5,128.5C 54.1539,128.666 49.8206,128.499 45.5,128C 44.944,127.617 44.6107,127.117 44.5,126.5C 45.1906,122.404 46.1906,118.404 47.5,114.5 Z"/></g>
<g><path style="opacity:1" fill="#948e95" d="M 76.5,115.5 C 83.611,117.14 90.9444,118.14 98.5,118.5C 98.5,119.5 98.5,120.5 98.5,121.5C 97.4222,124.402 96.7556,127.402 96.5,130.5C 88.577,131.181 80.577,131.181 72.5,130.5C 73.592,125.345 74.9253,120.345 76.5,115.5 Z"/></g>
<g><path style="opacity:1" fill="#706a6f" d="M 331.5,114.5 C 331.5,115.5 331.5,116.5 331.5,117.5C 341.126,119.572 350.793,119.906 360.5,118.5C 359.864,132.708 356.864,146.375 351.5,159.5C 343.203,153.019 333.87,148.686 323.5,146.5C 326.264,135.736 328.93,125.07 331.5,114.5 Z"/></g>
<g><path style="opacity:1" fill="#948d94" d="M 219.5,122.5 C 228.259,122.346 236.925,123.18 245.5,125C 246.056,125.383 246.389,125.883 246.5,126.5C 244.991,129.678 243.658,133.011 242.5,136.5C 236.044,135.182 229.711,133.349 223.5,131C 220.823,130.186 218.823,128.686 217.5,126.5C 217.66,124.847 218.326,123.514 219.5,122.5 Z"/></g>
<g><path style="opacity:1" fill="#948d94" d="M 130.5,130.5 C 130.371,132.216 130.038,133.883 129.5,135.5C 122.595,135.793 115.928,135.126 109.5,133.5C 109.858,130.733 110.525,128.067 111.5,125.5C 112.404,124.791 112.737,123.791 112.5,122.5C 117.554,123.684 122.554,125.184 127.5,127C 129.426,127.422 130.426,128.589 130.5,130.5 Z"/></g>
<g><path style="opacity:1" fill="#6f696e" d="M 12.5,117.5 C 12.5,120.167 12.5,122.833 12.5,125.5C 18.4707,126.241 24.4707,126.575 30.5,126.5C 28.8057,133.277 27.139,139.944 25.5,146.5C 15.1777,142.716 10.511,135.216 11.5,124C 11.5039,121.639 11.8373,119.473 12.5,117.5 Z"/></g>
<g><path style="opacity:1" fill="#6c90c8" d="M 370.5,124.5 C 384.323,125.496 398.323,125.829 412.5,125.5C 482.5,125.5 552.5,125.5 622.5,125.5C 709.5,125.5 796.5,125.5 883.5,125.5C 932.167,125.5 980.833,125.5 1029.5,125.5C 1088.5,125.5 1147.5,125.5 1206.5,125.5C 1256.17,125.5 1305.83,125.5 1355.5,125.5C 1373.66,126.497 1391.99,126.83 1410.5,126.5C 1411.09,131.64 1410.09,136.307 1407.5,140.5C 1360.17,140.5 1312.83,140.5 1265.5,140.5C 1109,140.267 952.498,139.6 796,138.5C 653.168,139.473 510.334,140.139 367.5,140.5C 368.508,135.046 369.508,129.712 370.5,124.5 Z"/></g>
<g><path style="opacity:1" fill="#706a6f" d="M 44.5,126.5 C 44.6107,127.117 44.944,127.617 45.5,128C 49.8206,128.499 54.1539,128.666 58.5,128.5C 58.5,129.833 58.5,131.167 58.5,132.5C 56.2102,138.954 55.2102,145.62 55.5,152.5C 49.8219,151.915 44.1553,151.249 38.5,150.5C 41.1473,142.574 43.1473,134.574 44.5,126.5 Z"/></g>
<g><path style="opacity:1" fill="#706a6f" d="M 217.5,126.5 C 218.823,128.686 220.823,130.186 223.5,131C 229.711,133.349 236.044,135.182 242.5,136.5C 240.926,142.904 238.593,148.904 235.5,154.5C 235.5,153.5 235.5,152.5 235.5,151.5C 227.359,148.675 219.026,146.675 210.5,145.5C 212.591,139.001 214.925,132.668 217.5,126.5 Z"/></g>
<g><path style="opacity:1" fill="#948e94" d="M 259.5,128.5 C 266.837,129.835 274.171,131.168 281.5,132.5C 279.604,137.522 277.937,142.522 276.5,147.5C 269.424,145.921 262.757,143.588 256.5,140.5C 257.812,136.584 258.812,132.584 259.5,128.5 Z"/></g>
<g><path style="opacity:1" fill="#706a70" d="M 72.5,130.5 C 80.577,131.181 88.577,131.181 96.5,130.5C 94.5207,138.116 92.8541,145.783 91.5,153.5C 86.5,153.5 81.5,153.5 76.5,153.5C 69.6457,153.824 62.979,153.491 56.5,152.5C 59.5719,152.817 62.5719,152.484 65.5,151.5C 68.0052,144.446 70.3385,137.446 72.5,130.5 Z"/></g>
<g><path style="opacity:1" fill="#f2d9d9" d="M 1450.5,186.5 C 1444.27,181.696 1437.93,176.862 1431.5,172C 1423.47,169.063 1415.8,165.896 1408.5,162.5C 1417.56,152.317 1422.06,140.317 1422,126.5C 1432.35,137.157 1444.85,143.991 1459.5,147C 1464.52,147.919 1469.52,148.919 1474.5,150C 1463.59,160.338 1455.59,172.505 1450.5,186.5 Z"/></g>
<g><path style="opacity:1" fill="#6f6a6f" d="M 109.5,133.5 C 115.928,135.126 122.595,135.793 129.5,135.5C 127.386,140.958 126.386,146.624 126.5,152.5C 119.124,152.274 111.791,152.608 104.5,153.5C 105.88,146.646 107.547,139.98 109.5,133.5 Z"/></g>
<g><path style="opacity:1" fill="#5c565c" d="M 141.5,135.5 C 143.339,136.508 144.672,138.008 145.5,140C 147.034,140.923 148.701,141.423 150.5,141.5C 155.94,139.543 161.44,137.876 167,136.5C 173.52,136.844 179.353,139.011 184.5,143C 189.969,143.633 195.302,143.133 200.5,141.5C 197.423,147.186 194.423,153.519 191.5,160.5C 187.737,162.304 183.737,162.804 179.5,162C 174.528,159.565 169.361,157.732 164,156.5C 158.639,157.372 153.305,158.372 148,159.5C 141.853,159.516 138.353,156.516 137.5,150.5C 137.885,145.113 139.219,140.113 141.5,135.5 Z"/></g>
<g><path style="opacity:1" fill="#948e95" d="M 295.5,134.5 C 295.5,135.5 295.5,136.5 295.5,137.5C 300.5,138.833 305.5,140.167 310.5,141.5C 308.76,146.387 307.427,151.387 306.5,156.5C 300.833,155.167 295.167,153.833 289.5,152.5C 292.125,146.613 294.125,140.613 295.5,134.5 Z"/></g>
<g><path style="opacity:1" fill="#ecf9f9" d="M 1265.5,140.5 C 1312.5,141.167 1359.5,141.833 1406.5,142.5C 1403.55,148.967 1399.22,154.467 1393.5,159C 1385.91,164.043 1378.41,169.21 1371,174.5C 1370.34,178.025 1371.51,180.859 1374.5,183C 1385.19,183.304 1395.86,183.971 1406.5,185C 1417.78,187.952 1427.28,193.785 1435,202.5C 1438.42,208.337 1442.08,214.004 1446,219.5C 1450.68,225.151 1454.68,224.818 1458,218.5C 1458.85,208.442 1460.18,198.442 1462,188.5C 1465.14,180.222 1469.64,172.889 1475.5,166.5C 1497.98,185.416 1513.48,209.083 1522,237.5C 1531.05,271.421 1530.22,305.088 1519.5,338.5C 1507.6,348.227 1496.1,358.56 1485,369.5C 1480.56,374.221 1476.72,379.388 1473.5,385C 1458.74,385.532 1445.74,390.865 1434.5,401C 1429.69,400.405 1424.85,399.571 1420,398.5C 1414.68,398.492 1410.01,400.159 1406,403.5C 1376.48,394.479 1346.31,390.646 1315.5,392C 1300.59,392.107 1286.92,396.107 1274.5,404C 1267.38,410.411 1263.05,418.244 1261.5,427.5C 1043.5,428.867 825.5,429.2 607.5,428.5C 600.395,426.988 593.062,426.321 585.5,426.5C 570.659,426.826 555.992,427.493 541.5,428.5C 536.833,428.5 532.167,428.5 527.5,428.5C 451.5,428.5 375.5,428.5 299.5,428.5C 297.93,420.509 298.597,412.675 301.5,405C 301.667,402.5 300.5,401.333 298,401.5C 291.136,406.18 283.636,409.68 275.5,412C 271.167,412.667 266.833,412.667 262.5,412C 257.666,409.539 252.666,408.705 247.5,409.5C 246.353,411.765 246.186,414.098 247,416.5C 250.869,420.194 253.702,424.527 255.5,429.5C 241.254,428.406 227.588,425.073 214.5,419.5C 222.939,402.604 236.605,393.104 255.5,391C 263.167,390.667 270.833,390.333 278.5,390C 282.983,388.866 284.816,386.033 284,381.5C 272.583,374.951 262.249,366.951 253,357.5C 243.408,343.261 241.908,328.094 248.5,312C 248.355,311.228 248.022,310.561 247.5,310C 245.167,309.333 242.833,309.333 240.5,310C 220.43,336.351 193.764,347.351 160.5,343C 157.165,345.679 156.665,348.845 159,352.5C 164.333,357.167 169.667,361.833 175,366.5C 183.388,375.902 189.722,386.568 194,398.5C 194.936,402.114 195.436,405.78 195.5,409.5C 178.611,399.447 164.778,386.113 154,369.5C 128.769,327.973 122.769,283.64 136,236.5C 143.864,211.749 157.03,190.416 175.5,172.5C 182.277,175.694 188.61,175.027 194.5,170.5C 218.89,192.19 244.89,211.69 272.5,229C 285.03,237.216 298.697,240.216 313.5,238C 324.149,235.928 331.982,230.094 337,220.5C 349.702,194.77 359.868,168.103 367.5,140.5C 510.334,140.139 653.168,139.473 796,138.5C 952.498,139.6 1109,140.267 1265.5,140.5 Z"/></g>
<g><path style="opacity:1" fill="#d3e3ef" d="M 1265.5,140.5 C 1312.83,140.5 1360.17,140.5 1407.5,140.5C 1407.67,141.492 1407.34,142.158 1406.5,142.5C 1359.5,141.833 1312.5,141.167 1265.5,140.5 Z"/></g>
<g><path style="opacity:1" fill="#706b70" d="M 256.5,140.5 C 262.757,143.588 269.424,145.921 276.5,147.5C 274.496,153.845 272.496,160.178 270.5,166.5C 263.466,163.824 256.466,161.157 249.5,158.5C 251.47,152.238 253.804,146.238 256.5,140.5 Z"/></g>
<g><path style="opacity:1" fill="#948d94" d="M 210.5,145.5 C 219.026,146.675 227.359,148.675 235.5,151.5C 235.5,152.5 235.5,153.5 235.5,154.5C 233.616,157.603 232.282,160.937 231.5,164.5C 222.577,161.708 214.577,157.374 207.5,151.5C 207.992,149.181 208.992,147.181 210.5,145.5 Z"/></g>
<g><path style="opacity:1" fill="#948d94" d="M 323.5,146.5 C 333.87,148.686 343.203,153.019 351.5,159.5C 350.204,163.739 348.538,167.739 346.5,171.5C 339.317,169.578 332.317,167.078 325.5,164C 323.24,163.451 321.574,162.284 320.5,160.5C 322.007,155.965 323.007,151.299 323.5,146.5 Z"/></g>
<g><path style="opacity:1" fill="#6f696e" d="M 207.5,151.5 C 214.577,157.374 222.577,161.708 231.5,164.5C 228.413,170.218 225.413,175.884 222.5,181.5C 215.519,175.347 208.186,169.68 200.5,164.5C 203.131,160.233 205.464,155.899 207.5,151.5 Z"/></g>
<g><path style="opacity:1" fill="#706b70" d="M 289.5,152.5 C 295.167,153.833 300.833,155.167 306.5,156.5C 304.828,161.785 302.828,167.285 300.5,173C 300.833,173.333 301.167,173.667 301.5,174C 299.875,174.853 299.542,175.853 300.5,177C 299.131,178.719 298.131,180.552 297.5,182.5C 297.719,181.325 297.386,180.325 296.5,179.5C 291.536,177.535 287.202,174.868 283.5,171.5C 285.5,165.167 287.5,158.833 289.5,152.5 Z"/></g>
<g><path style="opacity:1" fill="#6b90c8" d="M 1485.5,155.5 C 1497.48,163.979 1507.65,174.312 1516,186.5C 1542.57,228.884 1550.73,274.884 1540.5,324.5C 1533.52,329.133 1526.52,333.8 1519.5,338.5C 1530.22,305.088 1531.05,271.421 1522,237.5C 1513.48,209.083 1497.98,185.416 1475.5,166.5C 1478.1,162.229 1481.43,158.563 1485.5,155.5 Z"/></g>
<g><path style="opacity:1" fill="#948e94" d="M 249.5,158.5 C 256.466,161.157 263.466,163.824 270.5,166.5C 267.58,171.928 265.246,177.595 263.5,183.5C 263.586,182.504 263.252,181.671 262.5,181C 256.599,177.882 250.599,175.049 244.5,172.5C 246.167,167.833 247.833,163.167 249.5,158.5 Z"/></g>
<g><path style="opacity:1" fill="#a6c6e5" d="M 156.5,168.5 C 141.751,184.583 130.751,202.916 123.5,223.5C 122.5,223.5 121.5,223.5 120.5,223.5C 115.321,212.139 109.821,200.806 104,189.5C 103.23,188.402 102.397,188.402 101.5,189.5C 105.743,181.35 110.743,173.683 116.5,166.5C 120.895,165.304 125.229,163.637 129.5,161.5C 133.167,163.667 136.833,165.833 140.5,168C 145.787,169.828 151.12,169.995 156.5,168.5 Z"/></g>
<g><path style="opacity:1" fill="#706a6f" d="M 320.5,160.5 C 321.574,162.284 323.24,163.451 325.5,164C 332.317,167.078 339.317,169.578 346.5,171.5C 342.352,183.119 337.685,194.452 332.5,205.5C 332.649,204.448 332.483,203.448 332,202.5C 325.941,197.22 319.441,192.554 312.5,188.5C 311.817,188.863 311.15,189.196 310.5,189.5C 313.024,183.455 315.357,176.955 317.5,170C 317.167,169.667 316.833,169.333 316.5,169C 318.125,168.147 318.458,167.147 317.5,166C 318.869,164.281 319.869,162.448 320.5,160.5 Z"/></g>
<g><path style="opacity:1" fill="#edc6c1" d="M 1408.5,162.5 C 1415.8,165.896 1423.47,169.063 1431.5,172C 1437.93,176.862 1444.27,181.696 1450.5,186.5C 1448.21,191.553 1447.05,196.886 1447,202.5C 1434.72,184.134 1417.89,174.301 1396.5,173C 1400.67,169.664 1404.67,166.164 1408.5,162.5 Z"/></g>
<g><path style="opacity:1" fill="#636364" d="M 116.5,166.5 C 110.743,173.683 105.743,181.35 101.5,189.5C 77.5758,230.092 69.7424,273.759 78,320.5C 96.6529,401.487 146.153,452.653 226.5,474C 232.448,475.255 238.448,476.088 244.5,476.5C 250.991,477.166 257.658,477.5 264.5,477.5C 315.498,476.35 366.498,475.35 417.5,474.5C 488.839,473.862 560.172,472.862 631.5,471.5C 688.831,470.656 746.164,469.989 803.5,469.5C 869.838,469.742 936.171,470.408 1002.5,471.5C 1008.83,471.5 1015.17,471.5 1021.5,471.5C 1073.16,472.608 1124.83,473.275 1176.5,473.5C 1207,474.414 1237.67,475.081 1268.5,475.5C 1270.65,480.273 1271.98,485.273 1272.5,490.5C 1202.8,489.505 1132.96,488.505 1063,487.5C 1060.26,488.066 1057.59,488.399 1055,488.5C 868.011,486.071 682.011,486.404 497,489.5C 493.978,489.12 490.978,488.787 488,488.5C 461,489.167 434,489.833 407,490.5C 404,490.167 401,489.833 398,489.5C 372.906,490.328 347.739,490.828 322.5,491C 282.307,495.898 242.641,493.232 203.5,483C 122.508,454.668 74.6749,398.168 60,313.5C 53.5626,261.174 64.3959,212.84 92.5,168.5C 100.356,166.682 108.356,166.015 116.5,166.5 Z"/></g>
<g><path style="opacity:1" fill="#6b90c8" d="M 175.5,172.5 C 157.03,190.416 143.864,211.749 136,236.5C 122.769,283.64 128.769,327.973 154,369.5C 164.778,386.113 178.611,399.447 195.5,409.5C 194.358,417.095 196.025,423.928 200.5,430C 202.635,430.635 204.635,430.301 206.5,429C 209.78,426.225 212.446,423.058 214.5,419.5C 227.588,425.073 241.254,428.406 255.5,429.5C 256.268,430.263 256.768,431.263 257,432.5C 257.499,436.152 257.665,439.818 257.5,443.5C 251.516,442.926 245.516,442.593 239.5,442.5C 184.917,433.085 147.083,402.752 126,351.5C 114.259,320.849 110.593,288.849 115,255.5C 117.216,244.635 120.049,233.969 123.5,223.5C 130.751,202.916 141.751,184.583 156.5,168.5C 163.743,165.277 170.076,166.611 175.5,172.5 Z"/></g>
<g><path style="opacity:1" fill="#958e95" d="M 283.5,171.5 C 287.202,174.868 291.536,177.535 296.5,179.5C 297.386,180.325 297.719,181.325 297.5,182.5C 295.441,187.01 293.774,191.677 292.5,196.5C 287.136,193.818 281.802,191.151 276.5,188.5C 278.998,182.764 281.332,177.098 283.5,171.5 Z"/></g>
<g><path style="opacity:1" fill="#706a6f" d="M 244.5,172.5 C 250.599,175.049 256.599,177.882 262.5,181C 263.252,181.671 263.586,182.504 263.5,183.5C 261.541,188.752 259.041,193.752 256,198.5C 255.338,200.813 254.838,203.146 254.5,205.5C 247.991,200.498 241.325,195.665 234.5,191C 233.748,190.329 233.414,189.496 233.5,188.5C 234.794,187.71 235.961,186.71 237,185.5C 239.231,180.93 241.731,176.597 244.5,172.5 Z"/></g>
<g><path style="opacity:1" fill="#88aedf" d="M 123.5,223.5 C 120.049,233.969 117.216,244.635 115,255.5C 110.593,288.849 114.259,320.849 126,351.5C 147.083,402.752 184.917,433.085 239.5,442.5C 238.5,442.5 237.5,442.5 236.5,442.5C 241.952,453.567 247.618,464.734 253.5,476C 250.518,476.498 247.518,476.665 244.5,476.5C 238.448,476.088 232.448,475.255 226.5,474C 146.153,452.653 96.6529,401.487 78,320.5C 69.7424,273.759 77.5758,230.092 101.5,189.5C 102.397,188.402 103.23,188.402 104,189.5C 109.821,200.806 115.321,212.139 120.5,223.5C 121.5,223.5 122.5,223.5 123.5,223.5 Z"/></g>
<g><path style="opacity:1" fill="#948d94" d="M 332.5,205.5 C 330.738,209.362 328.738,213.028 326.5,216.5C 319.578,214.039 313.244,210.539 307.5,206C 306.177,205.184 305.511,204.017 305.5,202.5C 306.88,198.07 308.547,193.737 310.5,189.5C 311.15,189.196 311.817,188.863 312.5,188.5C 319.441,192.554 325.941,197.22 332,202.5C 332.483,203.448 332.649,204.448 332.5,205.5 Z"/></g>
<g><path style="opacity:1" fill="#6f6a6f" d="M 276.5,188.5 C 281.802,191.151 287.136,193.818 292.5,196.5C 288.73,204.411 285.063,212.744 281.5,221.5C 274.886,218.197 268.553,214.53 262.5,210.5C 265.056,209.457 267.223,207.79 269,205.5C 272.045,200.077 274.545,194.411 276.5,188.5 Z"/></g>
<g><path style="opacity:1" fill="#e7a9bb" d="M 1354.5,194.5 C 1359.32,195.442 1363.66,197.608 1367.5,201C 1379.55,206.769 1391.72,206.935 1404,201.5C 1408.31,201.466 1409.98,203.466 1409,207.5C 1404.32,212.865 1400.65,218.865 1398,225.5C 1397.13,234.65 1397.96,243.65 1400.5,252.5C 1399.8,257.857 1396.8,259.69 1391.5,258C 1385.31,252.401 1378.31,248.067 1370.5,245C 1362.46,243.967 1354.63,244.8 1347,247.5C 1343.26,247.095 1341.93,245.095 1343,241.5C 1348.87,235.091 1353.21,227.758 1356,219.5C 1357.05,212.108 1356.21,204.941 1353.5,198C 1353.65,196.744 1353.98,195.577 1354.5,194.5 Z"/></g>
<g><path style="opacity:1" fill="#6f696f" d="M 305.5,202.5 C 305.511,204.017 306.177,205.184 307.5,206C 313.244,210.539 319.578,214.039 326.5,216.5C 319.909,226.619 310.576,230.452 298.5,228C 296.482,227.495 294.482,226.995 292.5,226.5C 296.324,218.182 300.658,210.182 305.5,202.5 Z"/></g>
<g><path style="opacity:1" fill="#f2e1e1" d="M 1369.5,211.5 C 1377.09,212.872 1384.75,213.872 1392.5,214.5C 1391.24,217.125 1390.07,219.792 1389,222.5C 1388.83,228.859 1388.33,235.193 1387.5,241.5C 1380.21,236.675 1372.21,233.675 1363.5,232.5C 1367.93,226.208 1369.93,219.208 1369.5,211.5 Z"/></g>
<g><path style="opacity:1" fill="#e6a9bb" d="M 214.5,419.5 C 212.446,423.058 209.78,426.225 206.5,429C 204.635,430.301 202.635,430.635 200.5,430C 196.025,423.928 194.358,417.095 195.5,409.5C 195.436,405.78 194.936,402.114 194,398.5C 189.722,386.568 183.388,375.902 175,366.5C 169.667,361.833 164.333,357.167 159,352.5C 156.665,348.845 157.165,345.679 160.5,343C 193.764,347.351 220.43,336.351 240.5,310C 242.833,309.333 245.167,309.333 247.5,310C 248.022,310.561 248.355,311.228 248.5,312C 241.908,328.094 243.408,343.261 253,357.5C 262.249,366.951 272.583,374.951 284,381.5C 284.816,386.033 282.983,388.866 278.5,390C 270.833,390.333 263.167,390.667 255.5,391C 236.605,393.104 222.939,402.604 214.5,419.5 Z"/></g>
<g><path style="opacity:1" fill="#514b4b" d="M 1578.5,323.5 C 1583.84,327.512 1588.84,331.845 1593.5,336.5C 1610.86,358.571 1622.36,383.571 1628,411.5C 1629.85,421.262 1631.35,430.928 1632.5,440.5C 1632.5,443.833 1632.5,447.167 1632.5,450.5C 1631.58,459.509 1627.58,467.009 1620.5,473C 1606.38,480.16 1591.38,484.16 1575.5,485C 1554.86,487.666 1534.2,487.999 1513.5,486C 1509.36,485.838 1505.52,484.671 1502,482.5C 1497.41,484.546 1492.91,486.713 1488.5,489C 1481.59,490.036 1474.92,489.202 1468.5,486.5C 1463.52,487.974 1458.85,490.141 1454.5,493C 1448.42,495.608 1442.92,494.775 1438,490.5C 1411.24,516.262 1381.4,537.762 1348.5,555C 1344.75,556.309 1341.08,557.475 1337.5,558.5C 1330.5,558.5 1323.5,558.5 1316.5,558.5C 1306.54,555.72 1299.04,549.72 1294,540.5C 1285.99,524.156 1278.83,507.489 1272.5,490.5C 1271.98,485.273 1270.65,480.273 1268.5,475.5C 1266.18,466.882 1264.18,458.216 1262.5,449.5C 1261.88,442.183 1261.55,434.849 1261.5,427.5C 1263.05,418.244 1267.38,410.411 1274.5,404C 1286.92,396.107 1300.59,392.107 1315.5,392C 1346.31,390.646 1376.48,394.479 1406,403.5C 1410.01,400.159 1414.68,398.492 1420,398.5C 1424.85,399.571 1429.69,400.405 1434.5,401C 1445.74,390.865 1458.74,385.532 1473.5,385C 1476.72,379.388 1480.56,374.221 1485,369.5C 1496.1,358.56 1507.6,348.227 1519.5,338.5C 1526.52,333.8 1533.52,329.133 1540.5,324.5C 1553.04,318.27 1565.7,317.937 1578.5,323.5 Z"/></g>
<g><path style="opacity:1" fill="#6f696e" d="M 1587.5,348.5 C 1582.78,349.351 1578.11,350.518 1573.5,352C 1570.69,353.054 1568.35,354.554 1566.5,356.5C 1561.76,348.032 1556.76,339.699 1551.5,331.5C 1560.45,328.16 1568.78,329.327 1576.5,335C 1580.38,339.374 1584.05,343.874 1587.5,348.5 Z"/></g>
<g><path style="opacity:1" fill="#5d575d" d="M 1551.5,331.5 C 1556.76,339.699 1561.76,348.032 1566.5,356.5C 1568.09,359.352 1569.42,362.352 1570.5,365.5C 1574.56,373.611 1578.56,381.611 1582.5,389.5C 1583.83,393.49 1585.16,397.49 1586.5,401.5C 1591.3,412.246 1595.3,423.246 1598.5,434.5C 1599.37,438.194 1600.37,441.861 1601.5,445.5C 1603.15,451.237 1604.48,457.071 1605.5,463C 1605.68,464.376 1606.35,465.209 1607.5,465.5C 1603.08,467.312 1598.75,468.645 1594.5,469.5C 1591.34,461.331 1589.01,452.998 1587.5,444.5C 1586.63,440.802 1585.63,437.135 1584.5,433.5C 1581.73,423.187 1578.4,413.187 1574.5,403.5C 1572.97,400.246 1571.64,396.913 1570.5,393.5C 1568.01,385.383 1564.68,377.716 1560.5,370.5C 1559.11,366.714 1557.44,363.048 1555.5,359.5C 1552.43,351.035 1549.1,342.701 1545.5,334.5C 1547.25,333.13 1549.25,332.13 1551.5,331.5 Z"/></g>
<g><path style="opacity:1" fill="#706a6f" d="M 1545.5,334.5 C 1549.1,342.701 1552.43,351.035 1555.5,359.5C 1549.97,361.453 1544.63,363.786 1539.5,366.5C 1536.68,361.527 1533.85,356.527 1531,351.5C 1529.63,349.959 1528.13,348.625 1526.5,347.5C 1532.28,342.438 1538.61,338.105 1545.5,334.5 Z"/></g>
<g><path style="opacity:1" fill="#f2d9d9" d="M 246.5,369.5 C 238.879,372.189 231.212,375.356 223.5,379C 217.002,384.001 210.669,389.167 204.5,394.5C 200.169,379.676 192.169,367.176 180.5,357C 192.938,354.743 204.938,351.076 216.5,346C 222.449,342.44 227.949,338.274 233,333.5C 232.763,347.346 237.263,359.346 246.5,369.5 Z"/></g>
<g><path style="opacity:1" fill="#a7a1a7" d="M 1526.5,347.5 C 1528.13,348.625 1529.63,349.959 1531,351.5C 1533.85,356.527 1536.68,361.527 1539.5,366.5C 1542.03,370.782 1544.36,375.116 1546.5,379.5C 1548.91,385.323 1551.58,390.989 1554.5,396.5C 1556.96,400.961 1558.96,405.628 1560.5,410.5C 1563.56,418.012 1566.23,425.678 1568.5,433.5C 1570.18,438.917 1571.85,444.25 1573.5,449.5C 1574.02,452.89 1574.86,456.223 1576,459.5C 1576.5,463.486 1576.67,467.486 1576.5,471.5C 1576.17,471.5 1575.83,471.5 1575.5,471.5C 1572.43,471.817 1569.43,471.484 1566.5,470.5C 1564.03,463.43 1561.7,456.43 1559.5,449.5C 1558.67,443.909 1557.34,438.575 1555.5,433.5C 1553.73,426.861 1551.4,420.527 1548.5,414.5C 1547.01,409.533 1545.01,404.866 1542.5,400.5C 1540.17,395.162 1537.83,389.828 1535.5,384.5C 1533.61,379.882 1531.27,375.548 1528.5,371.5C 1525.77,365.041 1522.77,358.708 1519.5,352.5C 1521.57,350.42 1523.91,348.754 1526.5,347.5 Z"/></g>
<g><path style="opacity:1" fill="#948d94" d="M 1587.5,348.5 C 1589.17,351.167 1590.83,353.833 1592.5,356.5C 1590.49,359.027 1587.82,360.861 1584.5,362C 1580.67,363.5 1576.83,365 1573,366.5C 1572.1,366.257 1571.26,365.923 1570.5,365.5C 1569.42,362.352 1568.09,359.352 1566.5,356.5C 1568.35,354.554 1570.69,353.054 1573.5,352C 1578.11,350.518 1582.78,349.351 1587.5,348.5 Z"/></g>
<g><path style="opacity:1" fill="#706b70" d="M 1519.5,352.5 C 1522.77,358.708 1525.77,365.041 1528.5,371.5C 1524.28,375.195 1519.62,378.361 1514.5,381C 1513.18,381.816 1512.51,382.983 1512.5,384.5C 1510.92,377.891 1507.58,372.224 1502.5,367.5C 1507.84,362.157 1513.51,357.157 1519.5,352.5 Z"/></g>
<g><path style="opacity:1" fill="#6f6a6f" d="M 1592.5,356.5 C 1598.55,365.935 1603.55,375.935 1607.5,386.5C 1599.14,387.169 1590.81,388.169 1582.5,389.5C 1578.56,381.611 1574.56,373.611 1570.5,365.5C 1571.26,365.923 1572.1,366.257 1573,366.5C 1576.83,365 1580.67,363.5 1584.5,362C 1587.82,360.861 1590.49,359.027 1592.5,356.5 Z"/></g>
<g><path style="opacity:1" fill="#948e94" d="M 1555.5,359.5 C 1557.44,363.048 1559.11,366.714 1560.5,370.5C 1556.68,373.582 1552.34,375.915 1547.5,377.5C 1546.7,377.957 1546.37,378.624 1546.5,379.5C 1544.36,375.116 1542.03,370.782 1539.5,366.5C 1544.63,363.786 1549.97,361.453 1555.5,359.5 Z"/></g>
<g><path style="opacity:1" fill="#5d575d" d="M 1502.5,367.5 C 1507.58,372.224 1510.92,377.891 1512.5,384.5C 1514.39,387.614 1515.72,390.948 1516.5,394.5C 1518.32,399.32 1520.32,403.987 1522.5,408.5C 1524.18,412.571 1525.85,416.571 1527.5,420.5C 1529.13,427.394 1531.13,434.061 1533.5,440.5C 1534.37,443.112 1535.04,445.779 1535.5,448.5C 1537.79,456.481 1539.79,464.314 1541.5,472C 1548.16,472.5 1554.83,472.666 1561.5,472.5C 1554.68,473.655 1547.68,473.821 1540.5,473C 1540,472.5 1539.5,472 1539,471.5C 1532.95,472.575 1526.45,472.575 1519.5,471.5C 1521.83,471.5 1524.17,471.5 1526.5,471.5C 1525.4,464.33 1524.07,457.33 1522.5,450.5C 1521.67,447.341 1520.67,444.341 1519.5,441.5C 1518.45,436.189 1516.78,431.189 1514.5,426.5C 1513.41,421.216 1511.74,416.216 1509.5,411.5C 1509.38,406.95 1508.05,402.617 1505.5,398.5C 1504.11,395.993 1503.11,393.327 1502.5,390.5C 1500.31,384.57 1497.98,378.903 1495.5,373.5C 1497.81,371.529 1500.14,369.529 1502.5,367.5 Z"/></g>
<g><path style="opacity:1" fill="#edc6c1" d="M 246.5,369.5 C 250.332,373.164 254.332,376.664 258.5,380C 236.712,381.473 219.879,391.307 208,409.5C 206.417,404.57 205.25,399.57 204.5,394.5C 210.669,389.167 217.002,384.001 223.5,379C 231.212,375.356 238.879,372.189 246.5,369.5 Z"/></g>
<g><path style="opacity:1" fill="#958e95" d="M 1528.5,371.5 C 1531.27,375.548 1533.61,379.882 1535.5,384.5C 1529.01,387.578 1522.68,390.912 1516.5,394.5C 1515.72,390.948 1514.39,387.614 1512.5,384.5C 1512.51,382.983 1513.18,381.816 1514.5,381C 1519.62,378.361 1524.28,375.195 1528.5,371.5 Z"/></g>
<g><path style="opacity:1" fill="#706b6f" d="M 1560.5,370.5 C 1564.68,377.716 1568.01,385.383 1570.5,393.5C 1565.1,394.183 1559.77,395.183 1554.5,396.5C 1551.58,390.989 1548.91,385.323 1546.5,379.5C 1546.37,378.624 1546.7,377.957 1547.5,377.5C 1552.34,375.915 1556.68,373.582 1560.5,370.5 Z"/></g>
<g><path style="opacity:1" fill="#6f6a6f" d="M 1495.5,373.5 C 1497.98,378.903 1500.31,384.57 1502.5,390.5C 1495.66,393.662 1490,398.329 1485.5,404.5C 1483.7,399.994 1481.37,395.66 1478.5,391.5C 1483.72,385.044 1489.39,379.044 1495.5,373.5 Z"/></g>
<g><path style="opacity:1" fill="#716b70" d="M 1535.5,384.5 C 1537.83,389.828 1540.17,395.162 1542.5,400.5C 1537.1,401.685 1531.76,403.185 1526.5,405C 1524.46,405.498 1523.12,406.665 1522.5,408.5C 1520.32,403.987 1518.32,399.32 1516.5,394.5C 1522.68,390.912 1529.01,387.578 1535.5,384.5 Z"/></g>
<g><path style="opacity:1" fill="#938d93" d="M 1607.5,386.5 C 1608.57,388.701 1609.23,391.035 1609.5,393.5C 1602.12,396.959 1594.46,399.626 1586.5,401.5C 1585.16,397.49 1583.83,393.49 1582.5,389.5C 1590.81,388.169 1599.14,387.169 1607.5,386.5 Z"/></g>
<g><path style="opacity:1" fill="#948d94" d="M 1502.5,390.5 C 1503.11,393.327 1504.11,395.993 1505.5,398.5C 1505.67,399.822 1505.34,400.989 1504.5,402C 1498.97,404.926 1493.64,408.093 1488.5,411.5C 1487.31,409.249 1486.31,406.915 1485.5,404.5C 1490,398.329 1495.66,393.662 1502.5,390.5 Z"/></g>
<g><path style="opacity:1" fill="#948d94" d="M 1570.5,393.5 C 1571.64,396.913 1572.97,400.246 1574.5,403.5C 1574.5,404.5 1574.5,405.5 1574.5,406.5C 1569.64,407.231 1564.98,408.564 1560.5,410.5C 1558.96,405.628 1556.96,400.961 1554.5,396.5C 1559.77,395.183 1565.1,394.183 1570.5,393.5 Z"/></g>
<g><path style="opacity:1" fill="#938d93" d="M 1483.5,430.5 C 1482.75,431.573 1481.75,431.74 1480.5,431C 1475.22,423.548 1468.55,417.714 1460.5,413.5C 1459,415.829 1457,417.663 1454.5,419C 1447.74,419.444 1441.08,419.111 1434.5,418C 1431.53,420.1 1429.7,422.934 1429,426.5C 1428.07,434.304 1427.23,441.971 1426.5,449.5C 1422.38,439.306 1418.55,428.973 1415,418.5C 1414.23,414.442 1414.4,410.442 1415.5,406.5C 1417.77,405.794 1420.1,405.961 1422.5,407C 1430.24,411.527 1438.58,413.694 1447.5,413.5C 1447.22,410.713 1445.89,408.547 1443.5,407C 1449.57,402.605 1455.9,398.605 1462.5,395C 1464.45,394.009 1466.45,393.675 1468.5,394C 1475.35,405.386 1480.35,417.553 1483.5,430.5 Z"/></g>
<g><path style="opacity:1" fill="#706a6f" d="M 1609.5,393.5 C 1614.69,406.257 1618.02,419.59 1619.5,433.5C 1615.92,432.869 1612.25,432.535 1608.5,432.5C 1604.76,432.514 1601.43,433.18 1598.5,434.5C 1595.3,423.246 1591.3,412.246 1586.5,401.5C 1594.46,399.626 1602.12,396.959 1609.5,393.5 Z"/></g>
<g><path style="opacity:1" fill="#958e95" d="M 1542.5,400.5 C 1545.01,404.866 1547.01,409.533 1548.5,414.5C 1541.37,416.099 1534.37,418.099 1527.5,420.5C 1525.85,416.571 1524.18,412.571 1522.5,408.5C 1523.12,406.665 1524.46,405.498 1526.5,405C 1531.76,403.185 1537.1,401.685 1542.5,400.5 Z"/></g>
<g><path style="opacity:1" fill="#e6a9bb" d="M 299.5,428.5 C 299.328,429.492 299.662,430.158 300.5,430.5C 302.382,435.368 305.048,439.701 308.5,443.5C 309.843,445.84 311.177,448.173 312.5,450.5C 312.471,452.029 311.804,453.196 310.5,454C 306.404,454.198 302.404,453.531 298.5,452C 290.266,450.388 282.6,451.721 275.5,456C 271.217,458.615 267.217,461.615 263.5,465C 258.542,466.69 255.542,465.023 254.5,460C 255.953,454.571 256.953,449.071 257.5,443.5C 257.665,439.818 257.499,436.152 257,432.5C 256.768,431.263 256.268,430.263 255.5,429.5C 253.702,424.527 250.869,420.194 247,416.5C 246.186,414.098 246.353,411.765 247.5,409.5C 252.666,408.705 257.666,409.539 262.5,412C 266.833,412.667 271.167,412.667 275.5,412C 283.636,409.68 291.136,406.18 298,401.5C 300.5,401.333 301.667,402.5 301.5,405C 298.597,412.675 297.93,420.509 299.5,428.5 Z"/></g>
<g><path style="opacity:1" fill="#6f6a6f" d="M 1329.5,401.5 C 1329.5,401.833 1329.5,402.167 1329.5,402.5C 1328.52,406.634 1328.18,410.968 1328.5,415.5C 1322.58,416.817 1316.58,417.483 1310.5,417.5C 1310.5,418.5 1310.5,419.5 1310.5,420.5C 1308.21,415.056 1306.54,409.39 1305.5,403.5C 1313.37,401.908 1321.37,401.241 1329.5,401.5 Z"/></g>
<g><path style="opacity:1" fill="#a7a0a7" d="M 1329.5,401.5 C 1332.17,401.5 1334.83,401.5 1337.5,401.5C 1338.97,406.219 1340.3,410.886 1341.5,415.5C 1342.39,421.386 1343.72,427.053 1345.5,432.5C 1346.79,438.936 1348.45,445.27 1350.5,451.5C 1352.36,456.41 1354.03,461.41 1355.5,466.5C 1357.7,472.426 1359.7,478.426 1361.5,484.5C 1364.15,490.487 1366.48,496.487 1368.5,502.5C 1372.08,509.652 1375.08,516.986 1377.5,524.5C 1374.83,526.167 1372.17,527.833 1369.5,529.5C 1367.28,528.797 1365.45,527.464 1364,525.5C 1360.88,519.599 1358.05,513.599 1355.5,507.5C 1352.96,501.877 1350.63,496.21 1348.5,490.5C 1346.5,484.167 1344.5,477.833 1342.5,471.5C 1340.46,466.632 1338.79,461.632 1337.5,456.5C 1335.86,447.958 1333.86,439.625 1331.5,431.5C 1329.76,421.942 1329.09,412.275 1329.5,402.5C 1329.5,402.167 1329.5,401.833 1329.5,401.5 Z"/></g>
<g><path style="opacity:1" fill="#706a6f" d="M 1337.5,401.5 C 1346.24,401.327 1354.91,401.994 1363.5,403.5C 1364.02,407.481 1364.35,411.481 1364.5,415.5C 1356.83,415.5 1349.17,415.5 1341.5,415.5C 1340.3,410.886 1338.97,406.219 1337.5,401.5 Z"/></g>
<g><path style="opacity:1" fill="#706b70" d="M 1505.5,398.5 C 1508.05,402.617 1509.38,406.95 1509.5,411.5C 1504.41,413.209 1499.75,415.709 1495.5,419C 1493.86,420.129 1492.86,421.629 1492.5,423.5C 1491,419.659 1489.66,415.659 1488.5,411.5C 1493.64,408.093 1498.97,404.926 1504.5,402C 1505.34,400.989 1505.67,399.822 1505.5,398.5 Z"/></g>
<g><path style="opacity:1" fill="#5d575d" d="M 1305.5,403.5 C 1306.54,409.39 1308.21,415.056 1310.5,420.5C 1311.66,424.793 1312.66,429.126 1313.5,433.5C 1316.34,444.01 1319.34,454.343 1322.5,464.5C 1323.88,468.045 1324.88,471.712 1325.5,475.5C 1328.53,484.247 1331.53,492.914 1334.5,501.5C 1336.32,505.812 1337.99,510.145 1339.5,514.5C 1342.69,522.56 1346.19,530.56 1350,538.5C 1350.67,539.252 1351.5,539.586 1352.5,539.5C 1348.24,541.361 1343.91,543.361 1339.5,545.5C 1336,537.828 1332,530.495 1327.5,523.5C 1324.94,518.376 1322.94,513.043 1321.5,507.5C 1318.12,497.812 1314.79,488.145 1311.5,478.5C 1309.89,474.323 1308.89,469.989 1308.5,465.5C 1305.74,454.71 1303.07,444.043 1300.5,433.5C 1300.22,428.773 1299.55,424.107 1298.5,419.5C 1298.31,414.63 1297.64,409.964 1296.5,405.5C 1299.31,404.525 1302.31,403.858 1305.5,403.5 Z"/></g>
<g><path style="opacity:1" fill="#5d575d" d="M 1363.5,403.5 C 1366.66,403.99 1369.66,404.656 1372.5,405.5C 1373.55,408.127 1374.88,410.627 1376.5,413C 1375.66,414.996 1375.99,416.829 1377.5,418.5C 1378.65,422.111 1379.65,425.777 1380.5,429.5C 1381.97,434.567 1383.63,439.567 1385.5,444.5C 1387.11,448.054 1388.44,451.721 1389.5,455.5C 1391.47,461.416 1393.8,467.083 1396.5,472.5C 1397.93,476.35 1399.59,480.017 1401.5,483.5C 1402.83,489.827 1405.5,495.493 1409.5,500.5C 1405.56,502.104 1401.89,504.771 1398.5,508.5C 1393.46,502.417 1389.46,495.75 1386.5,488.5C 1385.17,484.833 1383.83,481.167 1382.5,477.5C 1379.98,470.987 1377.65,464.654 1375.5,458.5C 1374.65,454.777 1373.65,451.111 1372.5,447.5C 1370.66,441.115 1368.99,434.782 1367.5,428.5C 1367.02,423.929 1366.02,419.596 1364.5,415.5C 1364.35,411.481 1364.02,407.481 1363.5,403.5 Z"/></g>
<g><path style="opacity:1" fill="#6f6a6f" d="M 1296.5,405.5 C 1297.64,409.964 1298.31,414.63 1298.5,419.5C 1288.98,419.564 1280.31,422.23 1272.5,427.5C 1275.68,414.989 1283.68,407.655 1296.5,405.5 Z"/></g>
<g><path style="opacity:1" fill="#706a6f" d="M 1372.5,405.5 C 1383.1,407.267 1393.77,408.6 1404.5,409.5C 1404.62,412.86 1404.95,416.193 1405.5,419.5C 1398.63,417.766 1391.63,416.766 1384.5,416.5C 1381.73,416.529 1379.4,417.195 1377.5,418.5C 1375.99,416.829 1375.66,414.996 1376.5,413C 1374.88,410.627 1373.55,408.127 1372.5,405.5 Z"/></g>
<g><path style="opacity:1" fill="#706b70" d="M 1574.5,403.5 C 1578.4,413.187 1581.73,423.187 1584.5,433.5C 1579.17,433.5 1573.83,433.5 1568.5,433.5C 1566.23,425.678 1563.56,418.012 1560.5,410.5C 1564.98,408.564 1569.64,407.231 1574.5,406.5C 1574.5,405.5 1574.5,404.5 1574.5,403.5 Z"/></g>
<g><path style="opacity:1" fill="#948d93" d="M 1509.5,411.5 C 1511.74,416.216 1513.41,421.216 1514.5,426.5C 1508.35,428.771 1502.02,430.438 1495.5,431.5C 1494.51,428.924 1493.51,426.257 1492.5,423.5C 1492.86,421.629 1493.86,420.129 1495.5,419C 1499.75,415.709 1504.41,413.209 1509.5,411.5 Z"/></g>
<g><path style="opacity:1" fill="#706a70" d="M 1483.5,430.5 C 1486.4,437.876 1488.73,445.542 1490.5,453.5C 1488.91,457.361 1486.07,459.695 1482,460.5C 1476.3,458.756 1470.63,457.089 1465,455.5C 1458.25,455.312 1452.42,457.479 1447.5,462C 1442.49,462.388 1437.49,462.222 1432.5,461.5C 1429.98,457.783 1427.98,453.783 1426.5,449.5C 1427.23,441.971 1428.07,434.304 1429,426.5C 1429.7,422.934 1431.53,420.1 1434.5,418C 1441.08,419.111 1447.74,419.444 1454.5,419C 1457,417.663 1459,415.829 1460.5,413.5C 1468.55,417.714 1475.22,423.548 1480.5,431C 1481.75,431.74 1482.75,431.573 1483.5,430.5 Z"/></g>
<g><path style="opacity:1" fill="#706b70" d="M 1548.5,414.5 C 1551.4,420.527 1553.73,426.861 1555.5,433.5C 1554.49,434.765 1552.99,435.431 1551,435.5C 1545.18,436.309 1539.34,436.975 1533.5,437.5C 1533.5,438.5 1533.5,439.5 1533.5,440.5C 1531.13,434.061 1529.13,427.394 1527.5,420.5C 1534.37,418.099 1541.37,416.099 1548.5,414.5 Z"/></g>
<g><path style="opacity:1" fill="#948d94" d="M 1329.5,402.5 C 1329.09,412.275 1329.76,421.942 1331.5,431.5C 1325.51,432.24 1319.51,432.906 1313.5,433.5C 1312.66,429.126 1311.66,424.793 1310.5,420.5C 1310.5,419.5 1310.5,418.5 1310.5,417.5C 1316.58,417.483 1322.58,416.817 1328.5,415.5C 1328.18,410.968 1328.52,406.634 1329.5,402.5 Z"/></g>
<g><path style="opacity:1" fill="#948d94" d="M 1341.5,415.5 C 1349.17,415.5 1356.83,415.5 1364.5,415.5C 1366.02,419.596 1367.02,423.929 1367.5,428.5C 1360.17,429.833 1352.83,431.167 1345.5,432.5C 1343.72,427.053 1342.39,421.386 1341.5,415.5 Z"/></g>
<g><path style="opacity:1" fill="#948d94" d="M 1405.5,419.5 C 1406.92,421.515 1407.59,423.848 1407.5,426.5C 1407.42,427.75 1406.76,428.583 1405.5,429C 1397.17,429.5 1388.84,429.666 1380.5,429.5C 1379.65,425.777 1378.65,422.111 1377.5,418.5C 1379.4,417.195 1381.73,416.529 1384.5,416.5C 1391.63,416.766 1398.63,417.766 1405.5,419.5 Z"/></g>
<g><path style="opacity:1" fill="#f2e2e2" d="M 284.5,417.5 C 285.376,417.369 286.043,417.702 286.5,418.5C 285.054,426.178 286.721,433.178 291.5,439.5C 282.748,440.528 274.748,443.528 267.5,448.5C 267.752,443.286 267.418,437.952 266.5,432.5C 269.433,430.262 269.099,429.262 265.5,429.5C 265.244,427.063 264.577,424.729 263.5,422.5C 270.875,421.905 277.875,420.238 284.5,417.5 Z"/></g>
<g><path style="opacity:1" fill="#948d94" d="M 1298.5,419.5 C 1299.55,424.107 1300.22,428.773 1300.5,433.5C 1300.5,434.5 1300.5,435.5 1300.5,436.5C 1291.6,438.328 1282.6,438.828 1273.5,438C 1272.55,434.943 1272.22,431.777 1272.5,428.5C 1272.5,428.167 1272.5,427.833 1272.5,427.5C 1280.31,422.23 1288.98,419.564 1298.5,419.5 Z"/></g>
<g><path style="opacity:1" fill="#948d94" d="M 1448.5,425.5 C 1454.28,424.708 1459.45,426.041 1464,429.5C 1464.89,436.767 1461.56,439.767 1454,438.5C 1450.43,438.456 1446.93,437.956 1443.5,437C 1439.63,430.547 1441.3,426.713 1448.5,425.5 Z"/></g>
<g><path style="opacity:1" fill="#706a6f" d="M 1514.5,426.5 C 1516.78,431.189 1518.45,436.189 1519.5,441.5C 1513.69,442.825 1508.03,444.658 1502.5,447C 1501.75,447.671 1501.41,448.504 1501.5,449.5C 1498.93,443.785 1496.93,437.785 1495.5,431.5C 1502.02,430.438 1508.35,428.771 1514.5,426.5 Z"/></g>
<g><path style="opacity:1" fill="#99bde1" d="M 607.5,428.5 C 585.5,428.5 563.5,428.5 541.5,428.5C 555.992,427.493 570.659,426.826 585.5,426.5C 593.062,426.321 600.395,426.988 607.5,428.5 Z"/></g>
<g><path style="opacity:1" fill="#86a6d1" d="M 299.5,428.5 C 375.5,428.5 451.5,428.5 527.5,428.5C 451.833,429.167 376.167,429.833 300.5,430.5C 299.662,430.158 299.328,429.492 299.5,428.5 Z"/></g>
<g><path style="opacity:1" fill="#706b70" d="M 1407.5,426.5 C 1409.67,431.681 1411.67,437.014 1413.5,442.5C 1404.02,440.862 1394.68,441.529 1385.5,444.5C 1383.63,439.567 1381.97,434.567 1380.5,429.5C 1388.84,429.666 1397.17,429.5 1405.5,429C 1406.76,428.583 1407.42,427.75 1407.5,426.5 Z"/></g>
<g><path style="opacity:1" fill="#6c90c8" d="M 1261.5,427.5 C 1261.55,434.849 1261.88,442.183 1262.5,449.5C 1261.54,447.735 1261.21,445.735 1261.5,443.5C 1242.17,443.5 1222.83,443.5 1203.5,443.5C 1171.5,443.5 1139.5,443.5 1107.5,443.5C 1016,442.534 924.331,441.534 832.5,440.5C 822.994,440.5 813.661,440.834 804.5,441.5C 741.831,441.45 679.164,441.783 616.5,442.5C 544.499,442.575 472.499,442.908 400.5,443.5C 369.833,443.5 339.167,443.5 308.5,443.5C 305.048,439.701 302.382,435.368 300.5,430.5C 376.167,429.833 451.833,429.167 527.5,428.5C 532.167,428.5 536.833,428.5 541.5,428.5C 563.5,428.5 585.5,428.5 607.5,428.5C 825.5,429.2 1043.5,428.867 1261.5,427.5 Z"/></g>
<g><path style="opacity:1" fill="#706b70" d="M 1367.5,428.5 C 1368.99,434.782 1370.66,441.115 1372.5,447.5C 1365.12,448.627 1357.79,449.961 1350.5,451.5C 1348.45,445.27 1346.79,438.936 1345.5,432.5C 1352.83,431.167 1360.17,429.833 1367.5,428.5 Z"/></g>
<g><path style="opacity:1" fill="#706b70" d="M 1331.5,431.5 C 1333.86,439.625 1335.86,447.958 1337.5,456.5C 1331.93,457.079 1326.59,458.579 1321.5,461C 1322.34,462.011 1322.67,463.178 1322.5,464.5C 1319.34,454.343 1316.34,444.01 1313.5,433.5C 1319.51,432.906 1325.51,432.24 1331.5,431.5 Z"/></g>
<g><path style="opacity:1" fill="#948e95" d="M 1619.5,433.5 C 1619.5,434.833 1619.5,436.167 1619.5,437.5C 1619.5,439.833 1619.5,442.167 1619.5,444.5C 1613.51,444.966 1607.51,445.299 1601.5,445.5C 1600.37,441.861 1599.37,438.194 1598.5,434.5C 1601.43,433.18 1604.76,432.514 1608.5,432.5C 1612.25,432.535 1615.92,432.869 1619.5,433.5 Z"/></g>
<g><path style="opacity:1" fill="#948e94" d="M 1568.5,433.5 C 1573.83,433.5 1579.17,433.5 1584.5,433.5C 1585.63,437.135 1586.63,440.802 1587.5,444.5C 1587.38,445.586 1586.71,446.253 1585.5,446.5C 1581.05,446.71 1577.05,447.71 1573.5,449.5C 1571.85,444.25 1570.18,438.917 1568.5,433.5 Z"/></g>
<g><path style="opacity:1" fill="#948d94" d="M 1555.5,433.5 C 1557.34,438.575 1558.67,443.909 1559.5,449.5C 1551.74,449.268 1544.07,449.935 1536.5,451.5C 1536.74,450.209 1536.4,449.209 1535.5,448.5C 1535.04,445.779 1534.37,443.112 1533.5,440.5C 1533.5,439.5 1533.5,438.5 1533.5,437.5C 1539.34,436.975 1545.18,436.309 1551,435.5C 1552.99,435.431 1554.49,434.765 1555.5,433.5 Z"/></g>
<g><path style="opacity:1" fill="#706a6f" d="M 1272.5,428.5 C 1272.22,431.777 1272.55,434.943 1273.5,438C 1282.6,438.828 1291.6,438.328 1300.5,436.5C 1300.5,435.5 1300.5,434.5 1300.5,433.5C 1303.07,444.043 1305.74,454.71 1308.5,465.5C 1300.45,467.241 1292.78,470.074 1285.5,474C 1283.08,475.571 1281.74,477.737 1281.5,480.5C 1274.62,463.764 1271.62,446.431 1272.5,428.5 Z"/></g>
<g><path style="opacity:1" fill="#948d94" d="M 1413.5,442.5 C 1414.4,443.209 1414.74,444.209 1414.5,445.5C 1413.88,447.335 1412.54,448.502 1410.5,449C 1403.7,451.879 1396.7,454.045 1389.5,455.5C 1388.44,451.721 1387.11,448.054 1385.5,444.5C 1394.68,441.529 1404.02,440.862 1413.5,442.5 Z"/></g>
<g><path style="opacity:1" fill="#a6c6e6" d="M 804.5,441.5 C 810.206,441.171 815.872,441.505 821.5,442.5C 824.806,446.759 827.973,451.092 831,455.5C 831.441,458.939 833.108,461.606 836,463.5C 836.352,465.247 836.852,466.914 837.5,468.5C 825.988,468.172 814.654,468.505 803.5,469.5C 746.164,469.989 688.831,470.656 631.5,471.5C 626.305,462.279 620.971,453.112 615.5,444C 616.056,443.617 616.389,443.117 616.5,442.5C 679.164,441.783 741.831,441.45 804.5,441.5 Z"/></g>
<g><path style="opacity:1" fill="#88aee0" d="M 804.5,441.5 C 813.661,440.834 822.994,440.5 832.5,440.5C 924.331,441.534 1016,442.534 1107.5,443.5C 1074.16,443.167 1040.83,443.5 1007.5,444.5C 1007.49,446.412 1007.82,448.412 1008.5,450.5C 1012.65,457.616 1016.98,464.616 1021.5,471.5C 1015.17,471.5 1008.83,471.5 1002.5,471.5C 998.353,470.675 994.019,470.175 989.5,470C 956.488,469.611 923.488,468.778 890.5,467.5C 888.713,464.911 888.379,465.077 889.5,468C 872.17,468.5 854.837,468.667 837.5,468.5C 836.852,466.914 836.352,465.247 836,463.5C 833.108,461.606 831.441,458.939 831,455.5C 827.973,451.092 824.806,446.759 821.5,442.5C 815.872,441.505 810.206,441.171 804.5,441.5 Z"/></g>
<g><path style="opacity:1" fill="#938d94" d="M 1519.5,441.5 C 1520.67,444.341 1521.67,447.341 1522.5,450.5C 1522.5,451.5 1522.5,452.5 1522.5,453.5C 1515.85,454.054 1509.18,454.388 1502.5,454.5C 1502.37,452.784 1502.04,451.117 1501.5,449.5C 1501.41,448.504 1501.75,447.671 1502.5,447C 1508.03,444.658 1513.69,442.825 1519.5,441.5 Z"/></g>
<g><path style="opacity:1" fill="#a6c6e5" d="M 239.5,442.5 C 245.516,442.593 251.516,442.926 257.5,443.5C 256.953,449.071 255.953,454.571 254.5,460C 255.542,465.023 258.542,466.69 263.5,465C 267.217,461.615 271.217,458.615 275.5,456C 282.6,451.721 290.266,450.388 298.5,452C 302.404,453.531 306.404,454.198 310.5,454C 311.804,453.196 312.471,452.029 312.5,450.5C 311.177,448.173 309.843,445.84 308.5,443.5C 339.167,443.5 369.833,443.5 400.5,443.5C 406.421,453.673 412.087,464.006 417.5,474.5C 366.498,475.35 315.498,476.35 264.5,477.5C 257.658,477.5 250.991,477.166 244.5,476.5C 247.518,476.665 250.518,476.498 253.5,476C 247.618,464.734 241.952,453.567 236.5,442.5C 237.5,442.5 238.5,442.5 239.5,442.5 Z"/></g>
<g><path style="opacity:1" fill="#88aedf" d="M 616.5,442.5 C 616.389,443.117 616.056,443.617 615.5,444C 620.971,453.112 626.305,462.279 631.5,471.5C 560.172,472.862 488.839,473.862 417.5,474.5C 412.087,464.006 406.421,453.673 400.5,443.5C 472.499,442.908 544.499,442.575 616.5,442.5 Z"/></g>
<g><path style="opacity:1" fill="#a7c7e6" d="M 1107.5,443.5 C 1139.5,443.5 1171.5,443.5 1203.5,443.5C 1209.2,453.071 1214.54,462.905 1219.5,473C 1205.17,473.5 1190.84,473.667 1176.5,473.5C 1124.83,473.275 1073.16,472.608 1021.5,471.5C 1016.98,464.616 1012.65,457.616 1008.5,450.5C 1007.82,448.412 1007.49,446.412 1007.5,444.5C 1040.83,443.5 1074.16,443.167 1107.5,443.5 Z"/></g>
<g><path style="opacity:1" fill="#88aede" d="M 1203.5,443.5 C 1222.83,443.5 1242.17,443.5 1261.5,443.5C 1261.21,445.735 1261.54,447.735 1262.5,449.5C 1264.18,458.216 1266.18,466.882 1268.5,475.5C 1237.67,475.081 1207,474.414 1176.5,473.5C 1190.84,473.667 1205.17,473.5 1219.5,473C 1214.54,462.905 1209.2,453.071 1203.5,443.5 Z"/></g>
<g><path style="opacity:1" fill="#6f6a6f" d="M 1619.5,437.5 C 1623.02,450.079 1619.02,459.412 1607.5,465.5C 1606.35,465.209 1605.68,464.376 1605.5,463C 1604.48,457.071 1603.15,451.237 1601.5,445.5C 1607.51,445.299 1613.51,444.966 1619.5,444.5C 1619.5,442.167 1619.5,439.833 1619.5,437.5 Z"/></g>
<g><path style="opacity:1" fill="#948e94" d="M 1372.5,447.5 C 1373.65,451.111 1374.65,454.777 1375.5,458.5C 1375.5,459.5 1375.5,460.5 1375.5,461.5C 1368.57,462.233 1361.9,463.9 1355.5,466.5C 1354.03,461.41 1352.36,456.41 1350.5,451.5C 1357.79,449.961 1365.12,448.627 1372.5,447.5 Z"/></g>
<g><path style="opacity:1" fill="#706a70" d="M 1587.5,444.5 C 1589.01,452.998 1591.34,461.331 1594.5,469.5C 1588.48,470.003 1582.48,470.669 1576.5,471.5C 1576.67,467.486 1576.5,463.486 1576,459.5C 1574.86,456.223 1574.02,452.89 1573.5,449.5C 1577.05,447.71 1581.05,446.71 1585.5,446.5C 1586.71,446.253 1587.38,445.586 1587.5,444.5 Z"/></g>
<g><path style="opacity:1" fill="#706a70" d="M 1414.5,445.5 C 1417.64,451.46 1419.97,457.793 1421.5,464.5C 1413.44,465.35 1405.6,467.35 1398,470.5C 1396.97,470.836 1396.47,471.503 1396.5,472.5C 1393.8,467.083 1391.47,461.416 1389.5,455.5C 1396.7,454.045 1403.7,451.879 1410.5,449C 1412.54,448.502 1413.88,447.335 1414.5,445.5 Z"/></g>
<g><path style="opacity:1" fill="#706a70" d="M 1535.5,448.5 C 1536.4,449.209 1536.74,450.209 1536.5,451.5C 1544.07,449.935 1551.74,449.268 1559.5,449.5C 1561.7,456.43 1564.03,463.43 1566.5,470.5C 1569.43,471.484 1572.43,471.817 1575.5,471.5C 1571.03,472.486 1566.36,472.819 1561.5,472.5C 1554.83,472.666 1548.16,472.5 1541.5,472C 1539.79,464.314 1537.79,456.481 1535.5,448.5 Z"/></g>
<g><path style="opacity:1" fill="#6f6a6f" d="M 1522.5,450.5 C 1524.07,457.33 1525.4,464.33 1526.5,471.5C 1524.17,471.5 1521.83,471.5 1519.5,471.5C 1514.83,471.5 1510.17,471.5 1505.5,471.5C 1505.61,465.624 1504.61,459.958 1502.5,454.5C 1509.18,454.388 1515.85,454.054 1522.5,453.5C 1522.5,452.5 1522.5,451.5 1522.5,450.5 Z"/></g>
<g><path style="opacity:1" fill="#5c575c" d="M 1490.5,453.5 C 1491.56,456.217 1492.56,459.051 1493.5,462C 1492.15,463.635 1492.32,465.135 1494,466.5C 1495.13,474.05 1491.79,478.05 1484,478.5C 1482.74,478.241 1481.74,477.574 1481,476.5C 1480.28,477.059 1479.44,477.392 1478.5,477.5C 1474.02,476.215 1469.52,475.215 1465,474.5C 1458.48,480.455 1450.98,482.288 1442.5,480C 1437.72,474.6 1434.38,468.433 1432.5,461.5C 1437.49,462.222 1442.49,462.388 1447.5,462C 1452.42,457.479 1458.25,455.312 1465,455.5C 1470.63,457.089 1476.3,458.756 1482,460.5C 1486.07,459.695 1488.91,457.361 1490.5,453.5 Z"/></g>
<g><path style="opacity:1" fill="#948e94" d="M 1337.5,456.5 C 1338.79,461.632 1340.46,466.632 1342.5,471.5C 1336.74,472.419 1331.07,473.753 1325.5,475.5C 1324.88,471.712 1323.88,468.045 1322.5,464.5C 1322.67,463.178 1322.34,462.011 1321.5,461C 1326.59,458.579 1331.93,457.079 1337.5,456.5 Z"/></g>
<g><path style="opacity:1" fill="#706b70" d="M 1375.5,458.5 C 1377.65,464.654 1379.98,470.987 1382.5,477.5C 1375.59,480.123 1368.59,482.457 1361.5,484.5C 1359.7,478.426 1357.7,472.426 1355.5,466.5C 1361.9,463.9 1368.57,462.233 1375.5,461.5C 1375.5,460.5 1375.5,459.5 1375.5,458.5 Z"/></g>
<g><path style="opacity:1" fill="#948d94" d="M 1421.5,464.5 C 1423.01,466.181 1424.01,468.181 1424.5,470.5C 1417.65,476.096 1409.99,480.429 1401.5,483.5C 1399.59,480.017 1397.93,476.35 1396.5,472.5C 1396.47,471.503 1396.97,470.836 1398,470.5C 1405.6,467.35 1413.44,465.35 1421.5,464.5 Z"/></g>
<g><path style="opacity:1" fill="#948d94" d="M 1308.5,465.5 C 1308.89,469.989 1309.89,474.323 1311.5,478.5C 1311.5,479.5 1311.5,480.5 1311.5,481.5C 1302.67,484.11 1294,487.11 1285.5,490.5C 1283.99,487.322 1282.66,483.989 1281.5,480.5C 1281.74,477.737 1283.08,475.571 1285.5,474C 1292.78,470.074 1300.45,467.241 1308.5,465.5 Z"/></g>
<g><path style="opacity:1" fill="#83a4c8" d="M 1002.5,471.5 C 936.171,470.408 869.838,469.742 803.5,469.5C 814.654,468.505 825.988,468.172 837.5,468.5C 854.837,468.667 872.17,468.5 889.5,468C 888.379,465.077 888.713,464.911 890.5,467.5C 923.488,468.778 956.488,469.611 989.5,470C 994.019,470.175 998.353,470.675 1002.5,471.5 Z"/></g>
<g><path style="opacity:1" fill="#706b70" d="M 1342.5,471.5 C 1344.5,477.833 1346.5,484.167 1348.5,490.5C 1345.13,493.7 1341.13,496.2 1336.5,498C 1335.18,498.816 1334.51,499.983 1334.5,501.5C 1331.53,492.914 1328.53,484.247 1325.5,475.5C 1331.07,473.753 1336.74,472.419 1342.5,471.5 Z"/></g>
<g><path style="opacity:1" fill="#6f6a6f" d="M 1424.5,470.5 C 1426.54,474.899 1428.87,479.233 1431.5,483.5C 1423.81,488.68 1416.48,494.347 1409.5,500.5C 1405.5,495.493 1402.83,489.827 1401.5,483.5C 1409.99,480.429 1417.65,476.096 1424.5,470.5 Z"/></g>
<g><path style="opacity:1" fill="#948e94" d="M 1382.5,477.5 C 1383.83,481.167 1385.17,484.833 1386.5,488.5C 1386.67,489.822 1386.34,490.989 1385.5,492C 1380.17,494.667 1374.83,497.333 1369.5,500C 1368.75,500.671 1368.41,501.504 1368.5,502.5C 1366.48,496.487 1364.15,490.487 1361.5,484.5C 1368.59,482.457 1375.59,480.123 1382.5,477.5 Z"/></g>
<g><path style="opacity:1" fill="#6f6a6f" d="M 1311.5,478.5 C 1314.79,488.145 1318.12,497.812 1321.5,507.5C 1313.45,510.695 1306.29,515.362 1300,521.5C 1299.52,522.448 1299.35,523.448 1299.5,524.5C 1294.34,513.503 1289.68,502.169 1285.5,490.5C 1294,487.11 1302.67,484.11 1311.5,481.5C 1311.5,480.5 1311.5,479.5 1311.5,478.5 Z"/></g>
<g><path style="opacity:1" fill="#958e95" d="M 1348.5,490.5 C 1350.63,496.21 1352.96,501.877 1355.5,507.5C 1350.42,510.372 1345.09,512.705 1339.5,514.5C 1337.99,510.145 1336.32,505.812 1334.5,501.5C 1334.51,499.983 1335.18,498.816 1336.5,498C 1341.13,496.2 1345.13,493.7 1348.5,490.5 Z"/></g>
<g><path style="opacity:1" fill="#706a6f" d="M 1386.5,488.5 C 1389.46,495.75 1393.46,502.417 1398.5,508.5C 1391.72,514.064 1384.72,519.398 1377.5,524.5C 1375.08,516.986 1372.08,509.652 1368.5,502.5C 1368.41,501.504 1368.75,500.671 1369.5,500C 1374.83,497.333 1380.17,494.667 1385.5,492C 1386.34,490.989 1386.67,489.822 1386.5,488.5 Z"/></g>
<g><path style="opacity:1" fill="#948d94" d="M 1321.5,507.5 C 1322.94,513.043 1324.94,518.376 1327.5,523.5C 1320.39,527.947 1313.06,531.947 1305.5,535.5C 1303.26,532.028 1301.26,528.362 1299.5,524.5C 1299.35,523.448 1299.52,522.448 1300,521.5C 1306.29,515.362 1313.45,510.695 1321.5,507.5 Z"/></g>
<g><path style="opacity:1" fill="#706a70" d="M 1355.5,507.5 C 1358.05,513.599 1360.88,519.599 1364,525.5C 1365.45,527.464 1367.28,528.797 1369.5,529.5C 1364.03,533.071 1358.37,536.404 1352.5,539.5C 1351.5,539.586 1350.67,539.252 1350,538.5C 1346.19,530.56 1342.69,522.56 1339.5,514.5C 1345.09,512.705 1350.42,510.372 1355.5,507.5 Z"/></g>
<g><path style="opacity:1" fill="#6f696f" d="M 1327.5,523.5 C 1332,530.495 1336,537.828 1339.5,545.5C 1329.77,548.816 1320.44,547.983 1311.5,543C 1308.91,540.914 1306.91,538.414 1305.5,535.5C 1313.06,531.947 1320.39,527.947 1327.5,523.5 Z"/></g>
</svg>
