<?xml version="1.0" encoding="UTF-8"?>
<!DOCTYPE svg PUBLIC "-//W3C//DTD SVG 1.1//EN" "http://www.w3.org/Graphics/SVG/1.1/DTD/svg11.dtd">
<svg xmlns="http://www.w3.org/2000/svg" version="1.1" width="1735px" height="560px" style="shape-rendering:geometricPrecision; text-rendering:geometricPrecision; image-rendering:optimizeQuality; fill-rule:evenodd; clip-rule:evenodd" xmlns:xlink="http://www.w3.org/1999/xlink">
<g><path style="opacity:1" fill="#646464" d="M 77.5,-0.5 C 79.1667,-0.5 80.8333,-0.5 82.5,-0.5C 111.901,9.13503 141.234,19.3017 170.5,30C 203.087,43.1958 235.754,56.1958 268.5,69C 283.618,75.3921 298.618,82.0587 313.5,89C 332.746,90.0924 351.579,90.5924 370,90.5C 499.155,87.719 628.155,85.0523 757,82.5C 822.948,83.628 888.948,83.628 955,82.5C 1085.12,85.1133 1215.78,87.7799 1347,90.5C 1375.01,89.7374 1403.51,89.5707 1432.5,90C 1479.58,88.8035 1520.92,103.47 1556.5,134C 1573.81,149.625 1588.47,167.291 1600.5,187C 1652.04,182.189 1691.87,201.356 1720,244.5C 1727.58,258.744 1732.42,273.744 1734.5,289.5C 1734.5,289.833 1734.5,290.167 1734.5,290.5C 1733.17,290.833 1733.17,291.167 1734.5,291.5C 1734.5,297.5 1734.5,303.5 1734.5,309.5C 1730.5,343.654 1718.33,374.654 1698,402.5C 1674.38,433.788 1646.55,460.622 1614.5,483C 1627.51,491.011 1637.35,501.844 1644,515.5C 1646.34,522.792 1645.67,529.792 1642,536.5C 1633.08,548.88 1620.91,555.38 1605.5,556C 1558.23,557.808 1518.07,541.974 1485,508.5C 1481.28,503.057 1478.12,497.391 1475.5,491.5C 1456.76,496.124 1437.76,499.124 1418.5,500.5C 1375.49,498.309 1332.32,496.975 1289,496.5C 1286.02,496.787 1283.02,497.12 1280,497.5C 1251.53,496.829 1223.03,496.163 1194.5,495.5C 1193.03,495.723 1191.53,496.056 1190,496.5C 1005.32,493.409 819.324,493.076 632,495.5C 628.333,495.167 624.667,494.833 621,494.5C 589,495.167 557,495.833 525,496.5C 521.978,496.12 518.978,495.787 516,495.5C 443.12,496.347 369.62,497.847 295.5,500C 213.833,497.278 152.333,461.112 111,391.5C 93.3686,357.68 85.0352,321.68 86,283.5C 68.0816,272.125 50.2483,260.625 32.5,249C 29.6667,246.167 26.8333,243.333 24,240.5C 23.7625,235.408 23.5959,230.408 23.5,225.5C 16.6441,222.24 9.97741,218.74 3.5,215C 1.50123,212.745 0.167899,210.245 -0.5,207.5C -0.5,205.833 -0.5,204.167 -0.5,202.5C 6.66666,181.156 13.1667,159.489 19,137.5C 35.5207,90.065 55.0207,44.065 77.5,-0.5 Z M 1621.5,242.5 C 1637.29,242.302 1650.45,248.302 1661,260.5C 1677.31,281.007 1681.31,303.673 1673,328.5C 1660.58,350.298 1641.74,360.465 1616.5,359C 1626.03,330.947 1629.53,302.114 1627,272.5C 1626.31,262.156 1624.48,252.156 1621.5,242.5 Z"/></g>
<g><path style="opacity:1" fill="#a9c8e7" d="M 321.5,5.5 C 336.63,8.15377 350.63,13.6538 363.5,22C 369.458,27.4572 370.958,33.9572 368,41.5C 365.465,52.643 362.465,63.643 359,74.5C 357.167,75.6667 355.333,76.8333 353.5,78C 348.474,77.4972 343.474,76.4972 338.5,75C 328.402,70.4115 318.069,66.4115 307.5,63C 302.81,60.1186 300.977,55.9519 302,50.5C 304.667,39.8333 307.333,29.1667 310,18.5C 311.589,12.0828 315.423,7.74947 321.5,5.5 Z"/></g>
<g><path style="opacity:1" fill="#e8eef6" d="M 339.5,117.5 C 339.53,118.497 339.03,119.164 338,119.5C 310.761,111.267 285.261,100.934 261.5,88.5C 259.877,89.4756 258.543,88.9756 257.5,87C 201.441,66.0007 146.107,43.5007 91.5,19.5C 89.9122,18.3647 89.5788,17.0314 90.5,15.5C 155.28,39.5578 219.613,64.7245 283.5,91C 302.345,99.5904 321.011,108.424 339.5,117.5 Z"/></g>
<g><path style="opacity:1" fill="#d8e0f2" d="M 323.5,16.5 C 334.722,20.7779 345.389,26.1112 355.5,32.5C 356.452,36.1609 356.285,39.8276 355,43.5C 353.183,50.7881 350.683,57.7881 347.5,64.5C 337.348,60.0897 327.182,55.7564 317,51.5C 320.495,40.1844 322.662,28.5177 323.5,16.5 Z"/></g>
<g><path style="opacity:1" fill="#d9e0f2" d="M 91.5,19.5 C 146.107,43.5007 201.441,66.0007 257.5,87C 258.543,88.9756 259.877,89.4756 261.5,88.5C 285.261,100.934 310.761,111.267 338,119.5C 339.03,119.164 339.53,118.497 339.5,117.5C 342.833,119.167 346.167,120.833 349.5,122.5C 346.775,128.282 343.775,133.949 340.5,139.5C 338.703,140.73 336.703,141.396 334.5,141.5C 332.801,141.66 331.134,141.494 329.5,141C 274.763,111.298 219.43,82.6309 163.5,55C 153.948,50.7238 144.281,46.7238 134.5,43C 130.194,42.0876 126.194,42.5876 122.5,44.5C 118.864,44.7707 116.03,46.4374 114,49.5C 111.302,53.367 108.802,57.367 106.5,61.5C 101.489,47.4839 96.4894,33.4839 91.5,19.5 Z"/></g>
<g><path style="opacity:1" fill="#d7dff0" d="M 98.5,71.5 C 78.6955,106.434 58.8622,141.434 39,176.5C 35.6831,182.117 33.3497,188.117 32,194.5C 30.4309,195.122 28.7642,195.456 27,195.5C 25.0145,195.431 23.5145,194.765 22.5,193.5C 27.9522,172.975 34.1189,152.641 41,132.5C 54.5303,95.5762 67.8636,58.5762 81,21.5C 87.9184,37.7538 93.7518,54.4205 98.5,71.5 Z"/></g>
<g><path style="opacity:1" fill="#7c7d7c" d="M 673.5,40.5 C 674.833,41.1667 674.833,41.1667 673.5,40.5 Z"/></g>
<g><path style="opacity:1" fill="#f9faf9" d="M 1049.5,40.5 C 1050.83,41.1667 1050.83,41.1667 1049.5,40.5 Z"/></g>
<g><path style="opacity:1" fill="#b3bdd1" d="M 334.5,141.5 C 331.226,142.88 327.893,144.38 324.5,146C 323.167,146.667 321.833,146.667 320.5,146C 274.5,120.667 228.5,95.3333 182.5,70C 167.167,62.3333 151.833,54.6667 136.5,47C 132,45.2079 127.333,44.3746 122.5,44.5C 126.194,42.5876 130.194,42.0876 134.5,43C 144.281,46.7238 153.948,50.7238 163.5,55C 219.43,82.6309 274.763,111.298 329.5,141C 331.134,141.494 332.801,141.66 334.5,141.5 Z"/></g>
<g><path style="opacity:1" fill="#e9eff7" d="M 385.5,206.5 C 383.143,206.663 380.81,206.497 378.5,206C 371.523,202.99 364.523,199.823 357.5,196.5C 356.808,195.975 356.308,195.308 356,194.5C 355.667,194.833 355.333,195.167 355,195.5C 333.945,182.731 312.612,169.731 291,156.5C 290.667,156.833 290.333,157.167 290,157.5C 285.313,154.154 280.647,150.821 276,147.5C 275.667,147.833 275.333,148.167 275,148.5C 269.577,144.838 263.91,140.838 258,136.5C 257.667,136.833 257.333,137.167 257,137.5C 252.843,134.676 248.843,131.676 245,128.5C 244.667,128.833 244.333,129.167 244,129.5C 237.01,123.811 229.677,119.478 222,116.5C 219.079,114.623 216.246,112.623 213.5,110.5C 196.147,101.799 178.814,93.1322 161.5,84.5C 160.315,83.147 158.981,81.9803 157.5,81C 147.795,76.7546 138.461,71.9212 129.5,66.5C 128.272,62.7458 127.105,59.0791 126,55.5C 201.222,95.1906 275.722,136.024 349.5,178C 363.663,187.582 377.996,196.916 392.5,206C 390.19,206.497 387.857,206.663 385.5,206.5 Z"/></g>
<g><path style="opacity:1" fill="#d9e1f2" d="M 129.5,66.5 C 138.461,71.9212 147.795,76.7546 157.5,81C 158.981,81.9803 160.315,83.147 161.5,84.5C 178.814,93.1322 196.147,101.799 213.5,110.5C 216.246,112.623 219.079,114.623 222,116.5C 229.677,119.478 237.01,123.811 244,129.5C 244.333,129.167 244.667,128.833 245,128.5C 248.843,131.676 252.843,134.676 257,137.5C 257.333,137.167 257.667,136.833 258,136.5C 263.91,140.838 269.577,144.838 275,148.5C 275.333,148.167 275.667,147.833 276,147.5C 280.647,150.821 285.313,154.154 290,157.5C 290.333,157.167 290.667,156.833 291,156.5C 312.612,169.731 333.945,182.731 355,195.5C 355.333,195.167 355.667,194.833 356,194.5C 356.308,195.308 356.808,195.975 357.5,196.5C 364.523,199.823 371.523,202.99 378.5,206C 380.81,206.497 383.143,206.663 385.5,206.5C 331.421,218.351 277.421,231.185 223.5,245C 209.569,248.155 195.569,250.989 181.5,253.5C 169.548,215.253 159.048,176.586 150,137.5C 143.938,113.583 137.105,89.9165 129.5,66.5 Z"/></g>
<g><path style="opacity:1" fill="#b2bbce" d="M 165.5,251.5 C 160.693,244.206 157.193,236.206 155,227.5C 146,196.833 137,166.167 128,135.5C 122.734,114.864 118.234,94.1977 114.5,73.5C 115.896,70.1542 117.396,66.8208 119,63.5C 128.688,106.919 138.688,150.252 149,193.5C 154.187,212.914 159.687,232.247 165.5,251.5 Z"/></g>
<g><path style="opacity:1" fill="#d9e0f2" d="M 114.5,73.5 C 118.234,94.1977 122.734,114.864 128,135.5C 137,166.167 146,196.833 155,227.5C 157.193,236.206 160.693,244.206 165.5,251.5C 168.522,259.189 173.855,264.522 181.5,267.5C 187.6,269.258 193.934,269.758 200.5,269C 260.726,259.652 319.892,245.818 378,227.5C 379.377,228.036 379.377,229.036 378,230.5C 352.505,266.82 327.505,303.487 303,340.5C 299.064,346.053 294.897,351.387 290.5,356.5C 236.521,329.511 182.854,302.011 129.5,274C 101.351,259.591 73.0181,245.758 44.5,232.5C 48.0978,221.301 52.2645,210.301 57,199.5C 76.4548,157.593 95.6215,115.593 114.5,73.5 Z"/></g>
<g><path style="opacity:1" fill="#b4bed1" d="M 98.5,71.5 C 99.3909,72.2613 100.058,73.2613 100.5,74.5C 77.6378,119.558 55.3044,164.891 33.5,210.5C 28.4406,209.536 23.6073,207.869 19,205.5C 19.2647,201.209 20.4314,197.209 22.5,193.5C 23.5145,194.765 25.0145,195.431 27,195.5C 28.7642,195.456 30.4309,195.122 32,194.5C 33.3497,188.117 35.6831,182.117 39,176.5C 58.8622,141.434 78.6955,106.434 98.5,71.5 Z"/></g>
<g><path style="opacity:1" fill="#ecf2f9" d="M 145.5,90.5 C 146.496,90.4142 147.329,90.7476 148,91.5C 150.349,96.1978 152.682,100.864 155,105.5C 159.323,120.127 163.99,134.794 169,149.5C 171.061,157.907 172.561,166.407 173.5,175C 173.167,177.167 172.833,179.333 172.5,181.5C 171.833,181.833 171.167,182.167 170.5,182.5C 164.851,172.513 160.851,162.18 158.5,151.5C 157.001,145.941 155.001,140.275 152.5,134.5C 152.694,132.263 152.694,130.097 152.5,128C 149.169,117.123 146.169,105.79 143.5,94C 143.978,92.6974 144.645,91.5307 145.5,90.5 Z"/></g>
<g><path style="opacity:1" fill="#a7c7e6" d="M 1039.5,98.5 C 1039.39,99.1174 1039.06,99.6174 1038.5,100C 1040.83,103.509 1043.49,106.676 1046.5,109.5C 1047.98,114.455 1050.48,118.788 1054,122.5C 1055,125.962 1056.17,129.296 1057.5,132.5C 1008.17,132.5 958.833,132.5 909.5,132.5C 886.004,131.668 862.337,131.168 838.5,131C 831.394,119.719 824.06,108.552 816.5,97.5C 818.969,96.8319 821.302,96.1653 823.5,95.5C 833.161,95.1043 842.828,94.771 852.5,94.5C 914.81,96.9177 977.144,98.251 1039.5,98.5 Z"/></g>
<g><path style="opacity:1" fill="#88aedf" d="M 823.5,95.5 C 821.302,96.1653 818.969,96.8319 816.5,97.5C 824.06,108.552 831.394,119.719 838.5,131C 862.337,131.168 886.004,131.668 909.5,132.5C 823.176,132.087 736.843,132.087 650.5,132.5C 645.12,120.744 638.454,109.744 630.5,99.5C 694.825,98.1886 759.158,96.8553 823.5,95.5 Z"/></g>
<g><path style="opacity:1" fill="#88aedf" d="M 1039.5,98.5 C 1098,99.0686 1156.34,100.069 1214.5,101.5C 1221.21,110.541 1227.71,119.874 1234,129.5C 1234.48,130.448 1234.65,131.448 1234.5,132.5C 1175.5,132.5 1116.5,132.5 1057.5,132.5C 1056.17,129.296 1055,125.962 1054,122.5C 1050.48,118.788 1047.98,114.455 1046.5,109.5C 1043.49,106.676 1040.83,103.509 1038.5,100C 1039.06,99.6174 1039.39,99.1174 1039.5,98.5 Z"/></g>
<g><path style="opacity:1" fill="#a6c6e6" d="M 630.5,99.5 C 638.454,109.744 645.12,120.744 650.5,132.5C 580.5,132.5 510.5,132.5 440.5,132.5C 433.328,122.052 425.995,112.052 418.5,102.5C 489.119,100.638 559.785,99.638 630.5,99.5 Z"/></g>
<g><path style="opacity:1" fill="#a7c7e6" d="M 1214.5,101.5 C 1274.5,101.856 1334.5,102.522 1394.5,103.5C 1401.13,110.731 1407.29,118.398 1413,126.5C 1414.56,128.217 1415.39,130.217 1415.5,132.5C 1404.83,132.5 1394.17,132.5 1383.5,132.5C 1333.83,132.5 1284.17,132.5 1234.5,132.5C 1234.65,131.448 1234.48,130.448 1234,129.5C 1227.71,119.874 1221.21,110.541 1214.5,101.5 Z"/></g>
<g><path style="opacity:1" fill="#88aede" d="M 418.5,102.5 C 425.995,112.052 433.328,122.052 440.5,132.5C 422.833,132.5 405.167,132.5 387.5,132.5C 388.174,128.683 386.841,125.85 383.5,124C 368.946,117.724 354.613,110.89 340.5,103.5C 366.491,102.5 392.491,102.167 418.5,102.5 Z"/></g>
<g><path style="opacity:1" fill="#88aedf" d="M 1394.5,103.5 C 1475.93,94.5564 1538.6,124.223 1582.5,192.5C 1571.43,196.535 1561.09,201.869 1551.5,208.5C 1551.24,205.984 1550.41,203.65 1549,201.5C 1524.78,160.948 1488.94,138.448 1441.5,134C 1422,133.832 1402.66,133.332 1383.5,132.5C 1394.17,132.5 1404.83,132.5 1415.5,132.5C 1415.39,130.217 1414.56,128.217 1413,126.5C 1407.29,118.398 1401.13,110.731 1394.5,103.5 Z"/></g>
<g><path style="opacity:1" fill="#b3bdd0" d="M 349.5,122.5 C 355.505,125.502 361.505,128.502 367.5,131.5C 358.488,134.171 349.488,136.838 340.5,139.5C 343.775,133.949 346.775,128.282 349.5,122.5 Z"/></g>
<g><path style="opacity:1" fill="#6b90c8" d="M 909.5,132.5 C 958.833,132.5 1008.17,132.5 1057.5,132.5C 1116.5,132.5 1175.5,132.5 1234.5,132.5C 1284.17,132.5 1333.83,132.5 1383.5,132.5C 1402.66,133.332 1422,133.832 1441.5,134C 1488.94,138.448 1524.78,160.948 1549,201.5C 1550.41,203.65 1551.24,205.984 1551.5,208.5C 1547.21,211.457 1543.21,214.79 1539.5,218.5C 1519.98,179.242 1488.65,155.742 1445.5,148C 1238.33,147.669 1031.16,146.836 824,145.5C 676.835,146.523 529.668,147.19 382.5,147.5C 383.971,142.421 385.637,137.421 387.5,132.5C 405.167,132.5 422.833,132.5 440.5,132.5C 510.5,132.5 580.5,132.5 650.5,132.5C 736.843,132.087 823.176,132.087 909.5,132.5 Z"/></g>
<g><path style="opacity:1" fill="#b2bccf" d="M 368.5,141.5 C 369.552,141.351 370.552,141.517 371.5,142C 366.659,150.516 362.492,159.349 359,168.5C 351.762,163.602 344.262,159.102 336.5,155C 347.111,150.191 357.778,145.691 368.5,141.5 Z"/></g>
<g><path style="opacity:1" fill="#ecf9f9" d="M 1539.5,218.5 C 1518.03,239.998 1505.19,265.998 1501,296.5C 1498.61,314.762 1497.94,333.095 1499,351.5C 1500.75,369.353 1503.59,387.02 1507.5,404.5C 1482.92,425.589 1454.25,436.256 1421.5,436.5C 1368.01,435.582 1314.51,434.915 1261,434.5C 1105.5,435.267 950,435.934 794.5,436.5C 741.668,435.667 688.668,435.167 635.5,435C 627.706,433.976 619.873,433.476 612,433.5C 597.83,433.91 583.664,434.41 569.5,435C 478.999,435.167 388.666,435.667 298.5,436.5C 236.642,436.339 193.476,408.006 169,351.5C 166.696,345.283 164.863,338.949 163.5,332.5C 199.353,355.603 236.687,376.436 275.5,395C 282.455,398.545 289.788,400.212 297.5,400C 307.377,393.123 315.544,384.623 322,374.5C 349.109,334.639 373.442,292.972 395,249.5C 399.886,239.06 404.22,228.394 408,217.5C 409.645,212.935 410.312,208.269 410,203.5C 397.861,193.763 385.194,184.763 372,176.5C 374.979,166.736 378.479,157.07 382.5,147.5C 529.668,147.19 676.835,146.523 824,145.5C 1031.16,146.836 1238.33,147.669 1445.5,148C 1488.65,155.742 1519.98,179.242 1539.5,218.5 Z"/></g>
<g><path style="opacity:1" fill="#6c91c8" d="M 1409.5,152.5 C 1418.94,151.978 1426.27,155.644 1431.5,163.5C 1438.59,154.771 1446.92,153.271 1456.5,159C 1464.53,166.773 1465.7,175.606 1460,185.5C 1451.35,197.816 1440.01,206.816 1426,212.5C 1413.16,204.667 1403.5,194 1397,180.5C 1393.81,167.876 1397.98,158.543 1409.5,152.5 Z"/></g>
<g><path style="opacity:1" fill="#a7c7e6" d="M 1412.5,162.5 C 1415.79,162.259 1418.79,163.092 1421.5,165C 1425.8,169.453 1429.47,174.287 1432.5,179.5C 1435.43,175.233 1438.76,171.233 1442.5,167.5C 1450.98,165.494 1453.81,168.828 1451,177.5C 1446.54,184.292 1441.04,190.125 1434.5,195C 1431.7,196.914 1428.7,197.914 1425.5,198C 1418.87,192.38 1413.37,185.88 1409,178.5C 1406.42,172.292 1407.59,166.959 1412.5,162.5 Z"/></g>
<g><path style="opacity:1" fill="#e4f0f9" d="M 1413.5,169.5 C 1415.14,169.286 1416.64,169.62 1418,170.5C 1419.67,174.167 1421.33,177.833 1423,181.5C 1424.11,185.89 1422.61,187.224 1418.5,185.5C 1414.45,180.782 1412.79,175.448 1413.5,169.5 Z"/></g>
<g><path style="opacity:1" fill="#e6bac0" d="M 1719.5,302.5 C 1713.78,318.422 1707.28,334.089 1700,349.5C 1695.15,357.881 1689.82,365.881 1684,373.5C 1667.87,392.624 1650.04,410.124 1630.5,426C 1628.64,429.867 1625.64,432.2 1621.5,433C 1618.5,434.667 1616.17,437 1614.5,440C 1606.69,443.48 1599.69,448.147 1593.5,454C 1591.39,454.36 1589.39,455.027 1587.5,456C 1579.03,463.078 1569.36,468.411 1558.5,472C 1555.81,474.918 1552.81,477.418 1549.5,479.5C 1530.55,439.482 1518.38,397.482 1513,353.5C 1509.32,322.512 1512.98,292.512 1524,263.5C 1540.93,225.611 1570.1,204.778 1611.5,201C 1635.15,198.244 1656.48,203.91 1675.5,218C 1698.65,234.461 1713.15,256.628 1719,284.5C 1719.5,290.491 1719.67,296.491 1719.5,302.5 Z M 1621.5,242.5 C 1624.48,252.156 1626.31,262.156 1627,272.5C 1629.53,302.114 1626.03,330.947 1616.5,359C 1641.74,360.465 1660.58,350.298 1673,328.5C 1681.31,303.673 1677.31,281.007 1661,260.5C 1650.45,248.302 1637.29,242.302 1621.5,242.5 Z"/></g>
<g><path style="opacity:1" fill="#6d91c9" d="M 1457.5,210.5 C 1469.67,208.659 1477.17,213.659 1480,225.5C 1485.45,221.696 1490.95,221.863 1496.5,226C 1504.79,235.404 1504.46,244.404 1495.5,253C 1483.6,259.752 1471.27,261.085 1458.5,257C 1454.43,251.694 1451.26,245.861 1449,239.5C 1445.74,232.165 1445.74,224.832 1449,217.5C 1451.46,214.519 1454.3,212.186 1457.5,210.5 Z"/></g>
<g><path style="opacity:1" fill="#b4bfd2" d="M 44.5,232.5 C 73.0181,245.758 101.351,259.591 129.5,274C 182.854,302.011 236.521,329.511 290.5,356.5C 294.897,351.387 299.064,346.053 303,340.5C 327.505,303.487 352.505,266.82 378,230.5C 379.377,229.036 379.377,228.036 378,227.5C 319.892,245.818 260.726,259.652 200.5,269C 193.934,269.758 187.6,269.258 181.5,267.5C 192.24,267.099 202.907,265.933 213.5,264C 274.701,249.7 335.368,233.534 395.5,215.5C 396.408,216.79 396.241,218.123 395,219.5C 374.848,257.816 353.182,295.149 330,331.5C 319.07,348.362 307.403,364.695 295,380.5C 293.928,383.218 292.762,385.885 291.5,388.5C 256.175,369.173 221.175,349.34 186.5,329C 139.27,297.44 91.7705,266.273 44,235.5C 43.2599,234.251 43.4265,233.251 44.5,232.5 Z"/></g>
<g><path style="opacity:1" fill="#accae8" d="M 1459.5,219.5 C 1464.54,219.015 1468.38,221.015 1471,225.5C 1471.92,229.241 1472.92,232.908 1474,236.5C 1479.2,232.077 1485.03,230.577 1491.5,232C 1496.1,238.086 1495.1,243.086 1488.5,247C 1480.44,250.204 1472.11,251.204 1463.5,250C 1457.19,242.61 1454.69,234.11 1456,224.5C 1457,222.677 1458.16,221.01 1459.5,219.5 Z"/></g>
<g><path style="opacity:1" fill="#656464" d="M 1685.5,327.5 C 1673.71,356.678 1651.87,371.678 1620,372.5C 1593.62,371.478 1572.62,360.478 1557,339.5C 1549.11,326.599 1545.61,312.599 1546.5,297.5C 1551.9,264.259 1570.9,243.092 1603.5,234C 1637.35,227.843 1662.85,239.676 1680,269.5C 1689.23,288.048 1691.07,307.382 1685.5,327.5 Z M 1621.5,242.5 C 1624.48,252.156 1626.31,262.156 1627,272.5C 1629.53,302.114 1626.03,330.947 1616.5,359C 1641.74,360.465 1660.58,350.298 1673,328.5C 1681.31,303.673 1677.31,281.007 1661,260.5C 1650.45,248.302 1637.29,242.302 1621.5,242.5 Z"/></g>
<g><path style="opacity:1" fill="#88aedf" d="M 1568.5,334.5 C 1569.07,324.856 1570.24,315.19 1572,305.5C 1572.64,292.154 1572.47,278.821 1571.5,265.5C 1579.66,254.736 1590.32,247.403 1603.5,243.5C 1606.73,252.164 1608.89,261.164 1610,270.5C 1613.07,300.22 1609.57,329.053 1599.5,357C 1586.55,353.226 1576.21,345.726 1568.5,334.5 Z"/></g>
<g><path style="opacity:1" fill="#6a8ec6" d="M 1571.5,265.5 C 1572.47,278.821 1572.64,292.154 1572,305.5C 1570.24,315.19 1569.07,324.856 1568.5,334.5C 1558.6,321.547 1555.1,306.881 1558,290.5C 1560.41,281.013 1564.91,272.679 1571.5,265.5 Z"/></g>
<g><path style="opacity:1" fill="#a9c8e7" d="M 35.5,285.5 C 50.6297,288.154 64.6297,293.654 77.5,302C 83.4584,307.457 84.9584,313.957 82,321.5C 79.4646,332.643 76.4646,343.643 73,354.5C 71.1667,355.667 69.3333,356.833 67.5,358C 62.4745,357.497 57.4745,356.497 52.5,355C 42.4024,350.412 32.0691,346.412 21.5,343C 16.8104,340.119 14.9771,335.952 16,330.5C 18.6667,319.833 21.3333,309.167 24,298.5C 25.5893,292.083 29.4227,287.749 35.5,285.5 Z"/></g>
<g><path style="opacity:1" fill="#88aedf" d="M 143.5,319.5 C 150.033,360.158 168.7,393.991 199.5,421C 219.886,436.069 242.553,445.569 267.5,449.5C 266.5,449.5 265.5,449.5 264.5,449.5C 269.952,460.567 275.618,471.734 281.5,483C 278.518,483.498 275.518,483.665 272.5,483.5C 197.757,472.246 145.591,431.913 116,362.5C 107.043,340.343 103.043,317.343 104,293.5C 117.11,302.301 130.276,310.968 143.5,319.5 Z"/></g>
<g><path style="opacity:1" fill="#d8e0f2" d="M 37.5,296.5 C 48.7225,300.778 59.3892,306.111 69.5,312.5C 70.452,316.161 70.2853,319.828 69,323.5C 67.1827,330.788 64.6827,337.788 61.5,344.5C 51.3484,340.09 41.1817,335.756 31,331.5C 34.4951,320.184 36.6617,308.518 37.5,296.5 Z"/></g>
<g><path style="opacity:1" fill="#dfa7b4" d="M 1719.5,302.5 C 1718.25,330.339 1710.09,356.006 1695,379.5C 1673.71,411.132 1647.87,438.632 1617.5,462C 1598.75,476.037 1579.08,488.537 1558.5,499.5C 1556.05,492.603 1553.05,485.936 1549.5,479.5C 1552.81,477.418 1555.81,474.918 1558.5,472C 1569.36,468.411 1579.03,463.078 1587.5,456C 1589.39,455.027 1591.39,454.36 1593.5,454C 1599.69,448.147 1606.69,443.48 1614.5,440C 1616.17,437 1618.5,434.667 1621.5,433C 1625.64,432.2 1628.64,429.867 1630.5,426C 1650.04,410.124 1667.87,392.624 1684,373.5C 1689.82,365.881 1695.15,357.881 1700,349.5C 1707.28,334.089 1713.78,318.422 1719.5,302.5 Z"/></g>
<g><path style="opacity:1" fill="#dda6b3" d="M 1546.5,297.5 C 1545.61,312.599 1549.11,326.599 1557,339.5C 1572.62,360.478 1593.62,371.478 1620,372.5C 1651.87,371.678 1673.71,356.678 1685.5,327.5C 1685.57,329.401 1685.23,331.234 1684.5,333C 1687.39,334.892 1687.06,335.725 1683.5,335.5C 1671.74,368.586 1648.07,385.253 1612.5,385.5C 1582.39,382.979 1560.89,367.979 1548,340.5C 1542.76,326.089 1542.26,311.756 1546.5,297.5 Z"/></g>
<g><path style="opacity:1" fill="#6b90c8" d="M 143.5,319.5 C 150.167,323.833 156.833,328.167 163.5,332.5C 164.863,338.949 166.696,345.283 169,351.5C 193.476,408.006 236.642,436.339 298.5,436.5C 463.833,436.5 629.167,436.5 794.5,436.5C 950,435.934 1105.5,435.267 1261,434.5C 1314.51,434.915 1368.01,435.582 1421.5,436.5C 1454.25,436.256 1482.92,425.589 1507.5,404.5C 1509.54,410.291 1511.2,416.291 1512.5,422.5C 1491.42,437.856 1467.75,446.856 1441.5,449.5C 1371.51,450.477 1301.51,450.81 1231.5,450.5C 1165.5,450.614 1099.5,450.281 1033.5,449.5C 975.833,448.917 918.167,448.25 860.5,447.5C 850.994,447.5 841.661,447.834 832.5,448.5C 769.831,448.457 707.164,448.79 644.5,449.5C 572.499,449.608 500.499,449.941 428.5,450.5C 374.823,450.784 321.157,450.451 267.5,449.5C 242.553,445.569 219.886,436.069 199.5,421C 168.7,393.991 150.033,360.158 143.5,319.5 Z"/></g>
<g><path style="opacity:1" fill="#6c91c8" d="M 405.5,323.5 C 424.144,326.112 430.644,336.446 425,354.5C 418.035,366.465 408.702,376.131 397,383.5C 382.988,377.816 371.655,368.816 363,356.5C 355.73,343.094 358.896,333.26 372.5,327C 376.261,326.262 379.928,326.595 383.5,328C 386.312,329.977 388.978,332.144 391.5,334.5C 395.092,329.217 399.758,325.55 405.5,323.5 Z"/></g>
<g><path style="opacity:1" fill="#a7c7e6" d="M 405.5,333.5 C 413.365,334.218 416.532,338.551 415,346.5C 410.885,355.953 404.552,363.619 396,369.5C 385.837,365.006 377.837,358.006 372,348.5C 371.333,345.5 371.333,342.5 372,339.5C 373.737,337.375 375.904,336.542 378.5,337C 383.057,341.054 387.057,345.554 390.5,350.5C 394.095,343.573 399.095,337.906 405.5,333.5 Z"/></g>
<g><path style="opacity:1" fill="#e4f0f9" d="M 405.5,340.5 C 407.948,340.01 409.615,340.843 410.5,343C 409.717,346.632 408.551,350.132 407,353.5C 405.924,355.577 404.257,356.91 402,357.5C 400.268,357.266 399.434,356.266 399.5,354.5C 401.311,349.728 403.311,345.061 405.5,340.5 Z"/></g>
<g><path style="opacity:1" fill="#6d91c9" d="M 353.5,381.5 C 373.968,381.169 380.802,390.836 374,410.5C 371.667,415.5 369.333,420.5 367,425.5C 365.269,427.617 363.102,429.117 360.5,430C 348.727,432.072 337.727,430.072 327.5,424C 319.603,416.898 318.436,408.732 324,399.5C 329.635,393.836 336.135,392.336 343.5,395C 345.119,389.216 348.453,384.716 353.5,381.5 Z"/></g>
<g><path style="opacity:1" fill="#accae8" d="M 357.5,390.5 C 364.444,390.11 367.777,393.443 367.5,400.5C 366.927,408.147 364.26,414.98 359.5,421C 351.686,421.968 344.02,421.301 336.5,419C 327.669,414.994 326.336,409.327 332.5,402C 333.5,401.833 334.5,401.667 335.5,401.5C 340.586,402.973 345.586,404.64 350.5,406.5C 349.605,399.634 351.938,394.301 357.5,390.5 Z"/></g>
<g><path style="opacity:1" fill="#a6c6e5" d="M 1512.5,422.5 C 1515.86,432.753 1519.53,442.919 1523.5,453C 1523.17,453.5 1522.83,454 1522.5,454.5C 1514.47,456.008 1506.47,457.842 1498.5,460C 1490.45,462.854 1484.12,467.854 1479.5,475C 1472.14,478.177 1464.47,480.01 1456.5,480.5C 1456.16,478.146 1455.66,475.813 1455,473.5C 1451.6,466.362 1447.43,459.695 1442.5,453.5C 1441.57,452.311 1441.24,450.978 1441.5,449.5C 1467.75,446.856 1491.42,437.856 1512.5,422.5 Z"/></g>
<g><path style="opacity:1" fill="#84a6d4" d="M 794.5,436.5 C 629.167,436.5 463.833,436.5 298.5,436.5C 388.666,435.667 478.999,435.167 569.5,435C 583.664,434.41 597.83,433.91 612,433.5C 619.873,433.476 627.706,433.976 635.5,435C 688.668,435.167 741.668,435.667 794.5,436.5 Z"/></g>
<g><path style="opacity:1" fill="#a6c6e6" d="M 832.5,448.5 C 838.206,448.171 843.872,448.505 849.5,449.5C 850.541,451.585 852.041,453.252 854,454.5C 854.441,457.939 856.108,460.606 859,462.5C 860.801,466.937 862.967,471.104 865.5,475C 853.993,475.169 842.659,475.669 831.5,476.5C 774.163,476.84 716.829,477.507 659.5,478.5C 654.305,469.279 648.971,460.112 643.5,451C 644.056,450.617 644.389,450.117 644.5,449.5C 707.164,448.79 769.831,448.457 832.5,448.5 Z"/></g>
<g><path style="opacity:1" fill="#88aedf" d="M 832.5,448.5 C 841.661,447.834 850.994,447.5 860.5,447.5C 918.167,448.25 975.833,448.917 1033.5,449.5C 1034.49,452.146 1035.49,454.812 1036.5,457.5C 1040.65,464.616 1044.98,471.616 1049.5,478.5C 976.837,477.478 904.17,476.812 831.5,476.5C 842.659,475.669 853.993,475.169 865.5,475C 862.967,471.104 860.801,466.937 859,462.5C 856.108,460.606 854.441,457.939 854,454.5C 852.041,453.252 850.541,451.585 849.5,449.5C 843.872,448.505 838.206,448.171 832.5,448.5 Z"/></g>
<g><path style="opacity:1" fill="#a6c6e5" d="M 267.5,449.5 C 321.157,450.451 374.823,450.784 428.5,450.5C 434.421,460.673 440.087,471.006 445.5,481.5C 394.536,482.456 343.536,483.456 292.5,484.5C 285.658,484.5 278.991,484.166 272.5,483.5C 275.518,483.665 278.518,483.498 281.5,483C 275.618,471.734 269.952,460.567 264.5,449.5C 265.5,449.5 266.5,449.5 267.5,449.5 Z"/></g>
<g><path style="opacity:1" fill="#88aee0" d="M 644.5,449.5 C 644.389,450.117 644.056,450.617 643.5,451C 648.971,460.112 654.305,469.279 659.5,478.5C 588.167,479.526 516.834,480.526 445.5,481.5C 440.087,471.006 434.421,460.673 428.5,450.5C 500.499,449.941 572.499,449.608 644.5,449.5 Z"/></g>
<g><path style="opacity:1" fill="#a7c7e6" d="M 1033.5,449.5 C 1099.5,450.281 1165.5,450.614 1231.5,450.5C 1237.1,460.046 1242.44,469.712 1247.5,479.5C 1228.01,480.497 1208.34,480.83 1188.5,480.5C 1142.16,480.294 1095.83,479.627 1049.5,478.5C 1044.98,471.616 1040.65,464.616 1036.5,457.5C 1035.49,454.812 1034.49,452.146 1033.5,449.5 Z"/></g>
<g><path style="opacity:1" fill="#88aee0" d="M 1441.5,449.5 C 1441.24,450.978 1441.57,452.311 1442.5,453.5C 1447.43,459.695 1451.6,466.362 1455,473.5C 1455.66,475.813 1456.16,478.146 1456.5,480.5C 1451.39,482.044 1446.06,483.044 1440.5,483.5C 1375.14,481.641 1310.81,480.308 1247.5,479.5C 1242.44,469.712 1237.1,460.046 1231.5,450.5C 1301.51,450.81 1371.51,450.477 1441.5,449.5 Z"/></g>
<g><path style="opacity:1" fill="#a6c6e5" d="M 1554.5,512.5 C 1559.32,513.65 1564.32,513.816 1569.5,513C 1587.15,510.281 1604.81,507.781 1622.5,505.5C 1627.45,510.236 1630.45,516.069 1631.5,523C 1630.85,530.628 1626.85,535.628 1619.5,538C 1601.3,543.636 1582.97,543.97 1564.5,539C 1539.13,533.401 1516.96,521.901 1498,504.5C 1493.24,498.982 1490.07,492.649 1488.5,485.5C 1489.4,478.101 1493.4,473.267 1500.5,471C 1509.86,467.162 1519.53,465.995 1529.5,467.5C 1536.59,483.368 1544.93,498.368 1554.5,512.5 Z"/></g>
<g><path style="opacity:1" fill="#83a4c8" d="M 1247.5,479.5 C 1310.81,480.308 1375.14,481.641 1440.5,483.5C 1434.68,484.166 1428.68,484.5 1422.5,484.5C 1344.33,483.387 1266.33,482.054 1188.5,480.5C 1208.34,480.83 1228.01,480.497 1247.5,479.5 Z"/></g>
<g><path style="opacity:1" fill="#88addd" d="M 1622.5,505.5 C 1604.81,507.781 1587.15,510.281 1569.5,513C 1564.32,513.816 1559.32,513.65 1554.5,512.5C 1558.41,512.737 1562.08,511.904 1565.5,510C 1577.87,503.15 1590.2,496.317 1602.5,489.5C 1610.05,493.715 1616.72,499.049 1622.5,505.5 Z"/></g>
</svg>
